<?xml version="1.0" encoding="utf-8" ?>
<svg baseProfile="full" height="14" version="1.1" width="21" xmlns="http://www.w3.org/2000/svg" xmlns:ev="http://www.w3.org/2001/xml-events" xmlns:xlink="http://www.w3.org/1999/xlink"><defs /><rect fill="black" height="14" width="21" x="0" y="0" /><rect fill="white" height="12.4" width="19.4" x="0.8" y="0.8" /><g fill="black"><path d="M5.9296875 11.472050781250001H4.14599609375V4.749882812500001Q3.16845703125 5.663945312500001 1.841796875 6.101933593750001V4.483281250000001Q2.5400390625 4.254765625000001 3.35888671875 3.616826171875001Q4.177734375 2.978886718750001 4.482421875 2.128300781250001H5.9296875Z" /><path d="M9.5224609375 2.128300781250001Q10.87451171875 2.128300781250001 11.63623046875 3.093144531250001Q12.5439453125 4.235722656250001 12.5439453125 6.882695312500001Q12.5439453125 9.523320312500001 11.6298828125 10.678593750000001Q10.87451171875 11.630742187500001 9.5224609375 11.630742187500001Q8.1640625 11.630742187500001 7.33251953125 10.586552734375001Q6.5009765625 9.542363281250001 6.5009765625 6.863652343750001Q6.5009765625 4.235722656250001 7.4150390625 3.080449218750001Q8.17041015625 2.128300781250001 9.5224609375 2.128300781250001ZM9.5224609375 3.607304687500001Q9.19873046875 3.607304687500001 8.94482421875 3.813603515625001Q8.69091796875 4.019902343750001 8.55126953125 4.553105468750001Q8.3671875 5.245000000000001 8.3671875 6.882695312500001Q8.3671875 8.520390625000001 8.5322265625 9.132939453125001Q8.697265625 9.745488281250001 8.947998046875 9.948613281250001Q9.19873046875 10.151738281250001 9.5224609375 10.151738281250001Q9.84619140625 10.151738281250001 10.10009765625 9.945439453125001Q10.35400390625 9.739140625000001 10.49365234375 9.205937500000001Q10.677734375 8.520390625000001 10.677734375 6.882695312500001Q10.677734375 5.245000000000001 10.5126953125 4.632451171875001Q10.34765625 4.019902343750001 10.096923828125 3.813603515625001Q9.84619140625 3.607304687500001 9.5224609375 3.607304687500001Z" /><path d="M16.13671875 2.128300781250001Q17.48876953125 2.128300781250001 18.25048828125 3.093144531250001Q19.158203125 4.235722656250001 19.158203125 6.882695312500001Q19.158203125 9.523320312500001 18.244140625 10.678593750000001Q17.48876953125 11.630742187500001 16.13671875 11.630742187500001Q14.7783203125 11.630742187500001 13.94677734375 10.586552734375001Q13.115234375 9.542363281250001 13.115234375 6.863652343750001Q13.115234375 4.235722656250001 14.029296875 3.080449218750001Q14.78466796875 2.128300781250001 16.13671875 2.128300781250001ZM16.13671875 3.607304687500001Q15.81298828125 3.607304687500001 15.55908203125 3.813603515625001Q15.30517578125 4.019902343750001 15.16552734375 4.553105468750001Q14.9814453125 5.245000000000001 14.9814453125 6.882695312500001Q14.9814453125 8.520390625000001 15.146484375 9.132939453125001Q15.3115234375 9.745488281250001 15.562255859375 9.948613281250001Q15.81298828125 10.151738281250001 16.13671875 10.151738281250001Q16.46044921875 10.151738281250001 16.71435546875 9.945439453125001Q16.96826171875 9.739140625000001 17.10791015625 9.205937500000001Q17.2919921875 8.520390625000001 17.2919921875 6.882695312500001Q17.2919921875 5.245000000000001 17.126953125 4.632451171875001Q16.9619140625 4.019902343750001 16.711181640625 3.813603515625001Q16.46044921875 3.607304687500001 16.13671875 3.607304687500001Z" /></g></svg>