<?xml version="1.0" encoding="utf-8" ?>
<svg baseProfile="full" height="14" version="1.1" width="21" xmlns="http://www.w3.org/2000/svg" xmlns:ev="http://www.w3.org/2001/xml-events" xmlns:xlink="http://www.w3.org/1999/xlink"><defs /><rect fill="black" height="14" width="21" x="0" y="0" /><rect fill="white" height="12.4" width="19.4" x="0.8" y="0.8" /><g fill="black"><path d="M5.82177734375 11.472050781250001H4.0380859375V4.749882812500001Q3.060546875 5.663945312500001 1.73388671875 6.101933593750001V4.483281250000001Q2.43212890625 4.254765625000001 3.2509765625 3.616826171875001Q4.06982421875 2.978886718750001 4.37451171875 2.128300781250001H5.82177734375Z" /><path d="M9.41455078125 2.128300781250001Q10.7666015625 2.128300781250001 11.5283203125 3.093144531250001Q12.43603515625 4.235722656250001 12.43603515625 6.882695312500001Q12.43603515625 9.523320312500001 11.52197265625 10.678593750000001Q10.7666015625 11.630742187500001 9.41455078125 11.630742187500001Q8.05615234375 11.630742187500001 7.224609375 10.586552734375001Q6.39306640625 9.542363281250001 6.39306640625 6.863652343750001Q6.39306640625 4.235722656250001 7.30712890625 3.080449218750001Q8.0625 2.128300781250001 9.41455078125 2.128300781250001ZM9.41455078125 3.607304687500001Q9.0908203125 3.607304687500001 8.8369140625 3.813603515625001Q8.5830078125 4.019902343750001 8.443359375 4.553105468750001Q8.25927734375 5.245000000000001 8.25927734375 6.882695312500001Q8.25927734375 8.520390625000001 8.42431640625 9.132939453125001Q8.58935546875 9.745488281250001 8.840087890625 9.948613281250001Q9.0908203125 10.151738281250001 9.41455078125 10.151738281250001Q9.73828125 10.151738281250001 9.9921875 9.945439453125001Q10.24609375 9.739140625000001 10.3857421875 9.205937500000001Q10.56982421875 8.520390625000001 10.56982421875 6.882695312500001Q10.56982421875 5.245000000000001 10.40478515625 4.632451171875001Q10.23974609375 4.019902343750001 9.989013671875 3.813603515625001Q9.73828125 3.607304687500001 9.41455078125 3.607304687500001Z" /><path d="M13.00732421875 9.078984375000001 14.78466796875 8.894902343750001Q14.86083984375 9.497929687500001 15.2353515625 9.850224609375001Q15.60986328125 10.202519531250001 16.0986328125 10.202519531250001Q16.6572265625 10.202519531250001 17.04443359375 9.748662109375001Q17.431640625 9.294804687500001 17.431640625 8.380742187500001Q17.431640625 7.523808593750001 17.047607421875 7.095341796875001Q16.66357421875 6.666875000000001 16.0478515625 6.666875000000001Q15.27978515625 6.666875000000001 14.67041015625 7.346074218750001L13.22314453125 7.136601562500001L14.13720703125 2.293339843750001H18.853515625V3.962773437500001H15.4892578125L15.2099609375 5.543339843750001Q15.806640625 5.245000000000001 16.4287109375 5.245000000000001Q17.61572265625 5.245000000000001 18.44091796875 6.108281250000001Q19.26611328125 6.971562500000001 19.26611328125 8.349003906250001Q19.26611328125 9.497929687500001 18.599609375 10.399296875000001Q17.69189453125 11.630742187500001 16.07958984375 11.630742187500001Q14.791015625 11.630742187500001 13.978515625 10.938847656250001Q13.166015625 10.246953125000001 13.00732421875 9.078984375000001Z" /></g></svg>