<?xml version="1.0" encoding="utf-8" ?>
<svg baseProfile="full" height="14" version="1.1" width="21" xmlns="http://www.w3.org/2000/svg" xmlns:ev="http://www.w3.org/2001/xml-events" xmlns:xlink="http://www.w3.org/1999/xlink"><defs /><rect fill="black" height="14" width="21" x="0" y="0" /><rect fill="white" height="12.4" width="19.4" x="0.8" y="0.8" /><g fill="black"><path d="M6.9072265625 11.472050781250001H5.12353515625V4.749882812500001Q4.14599609375 5.663945312500001 2.8193359375 6.101933593750001V4.483281250000001Q3.517578125 4.254765625000001 4.33642578125 3.616826171875001Q5.1552734375 2.978886718750001 5.4599609375 2.128300781250001H6.9072265625Z" /><path d="M11.56640625 11.472050781250001H9.78271484375V4.749882812500001Q8.80517578125 5.663945312500001 7.478515625 6.101933593750001V4.483281250000001Q8.1767578125 4.254765625000001 8.99560546875 3.616826171875001Q9.814453125 2.978886718750001 10.119140625 2.128300781250001H11.56640625Z" /><path d="M15.1591796875 2.128300781250001Q16.51123046875 2.128300781250001 17.27294921875 3.093144531250001Q18.1806640625 4.235722656250001 18.1806640625 6.882695312500001Q18.1806640625 9.523320312500001 17.2666015625 10.678593750000001Q16.51123046875 11.630742187500001 15.1591796875 11.630742187500001Q13.80078125 11.630742187500001 12.96923828125 10.586552734375001Q12.1376953125 9.542363281250001 12.1376953125 6.863652343750001Q12.1376953125 4.235722656250001 13.0517578125 3.080449218750001Q13.80712890625 2.128300781250001 15.1591796875 2.128300781250001ZM15.1591796875 3.607304687500001Q14.83544921875 3.607304687500001 14.58154296875 3.813603515625001Q14.32763671875 4.019902343750001 14.18798828125 4.553105468750001Q14.00390625 5.245000000000001 14.00390625 6.882695312500001Q14.00390625 8.520390625000001 14.1689453125 9.132939453125001Q14.333984375 9.745488281250001 14.584716796875 9.948613281250001Q14.83544921875 10.151738281250001 15.1591796875 10.151738281250001Q15.48291015625 10.151738281250001 15.73681640625 9.945439453125001Q15.99072265625 9.739140625000001 16.13037109375 9.205937500000001Q16.314453125 8.520390625000001 16.314453125 6.882695312500001Q16.314453125 5.245000000000001 16.1494140625 4.632451171875001Q15.984375 4.019902343750001 15.733642578125 3.813603515625001Q15.48291015625 3.607304687500001 15.1591796875 3.607304687500001Z" /></g></svg>