<?xml version="1.0" encoding="utf-8" ?>
<svg baseProfile="full" height="14" version="1.1" width="21" xmlns="http://www.w3.org/2000/svg" xmlns:ev="http://www.w3.org/2001/xml-events" xmlns:xlink="http://www.w3.org/1999/xlink"><defs /><rect fill="black" height="14" width="21" x="0" y="0" /><rect fill="white" height="12.4" width="19.4" x="0.8" y="0.8" /><g fill="black"><path d="M6.79931640625 11.472050781250001H5.015625V4.749882812500001Q4.0380859375 5.663945312500001 2.71142578125 6.101933593750001V4.483281250000001Q3.40966796875 4.254765625000001 4.228515625 3.616826171875001Q5.04736328125 2.978886718750001 5.35205078125 2.128300781250001H6.79931640625Z" /><path d="M11.45849609375 11.472050781250001H9.6748046875V4.749882812500001Q8.697265625 5.663945312500001 7.37060546875 6.101933593750001V4.483281250000001Q8.06884765625 4.254765625000001 8.8876953125 3.616826171875001Q9.70654296875 2.978886718750001 10.01123046875 2.128300781250001H11.45849609375Z" /><path d="M12.02978515625 9.078984375000001 13.80712890625 8.894902343750001Q13.88330078125 9.497929687500001 14.2578125 9.850224609375001Q14.63232421875 10.202519531250001 15.12109375 10.202519531250001Q15.6796875 10.202519531250001 16.06689453125 9.748662109375001Q16.4541015625 9.294804687500001 16.4541015625 8.380742187500001Q16.4541015625 7.523808593750001 16.070068359375 7.095341796875001Q15.68603515625 6.666875000000001 15.0703125 6.666875000000001Q14.30224609375 6.666875000000001 13.69287109375 7.346074218750001L12.24560546875 7.136601562500001L13.15966796875 2.293339843750001H17.8759765625V3.962773437500001H14.51171875L14.232421875 5.543339843750001Q14.8291015625 5.245000000000001 15.451171875 5.245000000000001Q16.63818359375 5.245000000000001 17.46337890625 6.108281250000001Q18.28857421875 6.971562500000001 18.28857421875 8.349003906250001Q18.28857421875 9.497929687500001 17.6220703125 10.399296875000001Q16.71435546875 11.630742187500001 15.10205078125 11.630742187500001Q13.8134765625 11.630742187500001 13.0009765625 10.938847656250001Q12.1884765625 10.246953125000001 12.02978515625 9.078984375000001Z" /></g></svg>