<?xml version="1.0" encoding="utf-8" ?>
<svg baseProfile="full" height="14" version="1.1" width="21" xmlns="http://www.w3.org/2000/svg" xmlns:ev="http://www.w3.org/2001/xml-events" xmlns:xlink="http://www.w3.org/1999/xlink"><defs /><rect fill="black" height="14" width="21" x="0" y="0" /><rect fill="white" height="12.4" width="19.4" x="0.8" y="0.8" /><g fill="black"><path d="M5.824951171875 11.472050781250001H4.041259765625V4.749882812500001Q3.063720703125 5.663945312500001 1.737060546875 6.101933593750001V4.483281250000001Q2.435302734375 4.254765625000001 3.254150390625 3.616826171875001Q4.072998046875 2.978886718750001 4.377685546875 2.128300781250001H5.824951171875Z" /><path d="M12.648681640625 9.815312500000001V11.472050781250001H6.396240234375Q6.497802734375 10.532597656250001 7.005615234375 9.691533203125001Q7.513427734375 8.850468750000001 9.011474609375 7.460332031250001Q10.217529296875 6.336796875000001 10.490478515625 5.936894531250001Q10.858642578125 5.384648437500001 10.858642578125 4.845097656250001Q10.858642578125 4.248417968750001 10.5380859375 3.927861328125001Q10.217529296875 3.607304687500001 9.652587890625 3.607304687500001Q9.093994140625 3.607304687500001 8.763916015625 3.943730468750001Q8.433837890625 4.280156250000001 8.383056640625 5.060917968750001L6.605712890625 4.883183593750001Q6.764404296875 3.410527343750001 7.602294921875 2.769414062500001Q8.440185546875 2.128300781250001 9.697021484375 2.128300781250001Q11.074462890625 2.128300781250001 11.861572265625 2.870976562500001Q12.648681640625 3.613652343750001 12.648681640625 4.718144531250001Q12.648681640625 5.346562500000001 12.42333984375 5.914677734375001Q12.197998046875 6.482792968750001 11.709228515625 7.104863281250001Q11.385498046875 7.517460937500001 10.541259765625 8.291875000000001Q9.697021484375 9.066289062500001 9.4716796875 9.320195312500001Q9.246337890625 9.574101562500001 9.106689453125 9.815312500000001Z" /><path d="M16.241455078125 2.128300781250001Q17.593505859375 2.128300781250001 18.355224609375 3.093144531250001Q19.262939453125 4.235722656250001 19.262939453125 6.882695312500001Q19.262939453125 9.523320312500001 18.348876953125 10.678593750000001Q17.593505859375 11.630742187500001 16.241455078125 11.630742187500001Q14.883056640625 11.630742187500001 14.051513671875 10.586552734375001Q13.219970703125 9.542363281250001 13.219970703125 6.863652343750001Q13.219970703125 4.235722656250001 14.134033203125 3.080449218750001Q14.889404296875 2.128300781250001 16.241455078125 2.128300781250001ZM16.241455078125 3.607304687500001Q15.917724609375 3.607304687500001 15.663818359375 3.813603515625001Q15.409912109375 4.019902343750001 15.270263671875 4.553105468750001Q15.086181640625 5.245000000000001 15.086181640625 6.882695312500001Q15.086181640625 8.520390625000001 15.251220703125 9.132939453125001Q15.416259765625 9.745488281250001 15.6669921875 9.948613281250001Q15.917724609375 10.151738281250001 16.241455078125 10.151738281250001Q16.565185546875 10.151738281250001 16.819091796875 9.945439453125001Q17.072998046875 9.739140625000001 17.212646484375 9.205937500000001Q17.396728515625 8.520390625000001 17.396728515625 6.882695312500001Q17.396728515625 5.245000000000001 17.231689453125 4.632451171875001Q17.066650390625 4.019902343750001 16.81591796875 3.813603515625001Q16.565185546875 3.607304687500001 16.241455078125 3.607304687500001Z" /></g></svg>