<?xml version="1.0" encoding="utf-8" ?>
<svg baseProfile="full" height="14" version="1.1" width="21" xmlns="http://www.w3.org/2000/svg" xmlns:ev="http://www.w3.org/2001/xml-events" xmlns:xlink="http://www.w3.org/1999/xlink"><defs /><rect fill="black" height="14" width="21" x="0" y="0" /><rect fill="white" height="12.4" width="19.4" x="0.8" y="0.8" /><g fill="black"><path d="M5.717041015625 11.472050781250001H3.933349609375V4.749882812500001Q2.955810546875 5.663945312500001 1.629150390625 6.101933593750001V4.483281250000001Q2.327392578125 4.254765625000001 3.146240234375 3.616826171875001Q3.965087890625 2.978886718750001 4.269775390625 2.128300781250001H5.717041015625Z" /><path d="M12.540771484375 9.815312500000001V11.472050781250001H6.288330078125Q6.389892578125 10.532597656250001 6.897705078125 9.691533203125001Q7.405517578125 8.850468750000001 8.903564453125 7.460332031250001Q10.109619140625 6.336796875000001 10.382568359375 5.936894531250001Q10.750732421875 5.384648437500001 10.750732421875 4.845097656250001Q10.750732421875 4.248417968750001 10.43017578125 3.927861328125001Q10.109619140625 3.607304687500001 9.544677734375 3.607304687500001Q8.986083984375 3.607304687500001 8.656005859375 3.943730468750001Q8.325927734375 4.280156250000001 8.275146484375 5.060917968750001L6.497802734375 4.883183593750001Q6.656494140625 3.410527343750001 7.494384765625 2.769414062500001Q8.332275390625 2.128300781250001 9.589111328125 2.128300781250001Q10.966552734375 2.128300781250001 11.753662109375 2.870976562500001Q12.540771484375 3.613652343750001 12.540771484375 4.718144531250001Q12.540771484375 5.346562500000001 12.3154296875 5.914677734375001Q12.090087890625 6.482792968750001 11.601318359375 7.104863281250001Q11.277587890625 7.517460937500001 10.433349609375 8.291875000000001Q9.589111328125 9.066289062500001 9.36376953125 9.320195312500001Q9.138427734375 9.574101562500001 8.998779296875 9.815312500000001Z" /><path d="M13.112060546875 9.078984375000001 14.889404296875 8.894902343750001Q14.965576171875 9.497929687500001 15.340087890625 9.850224609375001Q15.714599609375 10.202519531250001 16.203369140625 10.202519531250001Q16.761962890625 10.202519531250001 17.149169921875 9.748662109375001Q17.536376953125 9.294804687500001 17.536376953125 8.380742187500001Q17.536376953125 7.523808593750001 17.15234375 7.095341796875001Q16.768310546875 6.666875000000001 16.152587890625 6.666875000000001Q15.384521484375 6.666875000000001 14.775146484375 7.346074218750001L13.327880859375 7.136601562500001L14.241943359375 2.293339843750001H18.958251953125V3.962773437500001H15.593994140625L15.314697265625 5.543339843750001Q15.911376953125 5.245000000000001 16.533447265625 5.245000000000001Q17.720458984375 5.245000000000001 18.545654296875 6.108281250000001Q19.370849609375 6.971562500000001 19.370849609375 8.349003906250001Q19.370849609375 9.497929687500001 18.704345703125 10.399296875000001Q17.796630859375 11.630742187500001 16.184326171875 11.630742187500001Q14.895751953125 11.630742187500001 14.083251953125 10.938847656250001Q13.270751953125 10.246953125000001 13.112060546875 9.078984375000001Z" /></g></svg>