<?xml version="1.0" encoding="utf-8" ?>
<svg baseProfile="full" height="14" version="1.1" width="21" xmlns="http://www.w3.org/2000/svg" xmlns:ev="http://www.w3.org/2001/xml-events" xmlns:xlink="http://www.w3.org/1999/xlink"><defs /><rect fill="black" height="14" width="21" x="0" y="0" /><rect fill="white" height="12.4" width="19.4" x="0.8" y="0.8" /><g fill="black"><path d="M5.85986328125 11.472050781250001H4.076171875V4.749882812500001Q3.0986328125 5.663945312500001 1.77197265625 6.101933593750001V4.483281250000001Q2.47021484375 4.254765625000001 3.2890625 3.616826171875001Q4.10791015625 2.978886718750001 4.41259765625 2.128300781250001H5.85986328125Z" /><path d="M6.43115234375 9.002812500000001 8.15771484375 8.793339843750001Q8.240234375 9.453496093750001 8.60205078125 9.802617187500001Q8.9638671875 10.151738281250001 9.47802734375 10.151738281250001Q10.0302734375 10.151738281250001 10.407958984375 9.732792968750001Q10.78564453125 9.313847656250001 10.78564453125 8.602910156250001Q10.78564453125 7.930058593750001 10.423828125 7.536503906250001Q10.06201171875 7.142949218750001 9.54150390625 7.142949218750001Q9.19873046875 7.142949218750001 8.72265625 7.276250000000001L8.91943359375 5.822636718750001Q9.64306640625 5.841679687500001 10.02392578125 5.508427734375001Q10.40478515625 5.175175781250001 10.40478515625 4.622929687500001Q10.40478515625 4.153203125000001 10.12548828125 3.873906250000001Q9.84619140625 3.594609375000001 9.3828125 3.594609375000001Q8.92578125 3.594609375000001 8.60205078125 3.911992187500001Q8.2783203125 4.229375000000001 8.20849609375 4.838750000000001L6.564453125 4.559453125000001Q6.73583984375 3.715214843750001 7.081787109375 3.210576171875001Q7.427734375 2.705937500000001 8.046630859375 2.417119140625001Q8.66552734375 2.128300781250001 9.43359375 2.128300781250001Q10.74755859375 2.128300781250001 11.541015625 2.966191406250001Q12.19482421875 3.651738281250001 12.19482421875 4.515019531250001Q12.19482421875 5.740117187500001 10.85546875 6.470097656250001Q11.6552734375 6.641484375000001 12.134521484375 7.238164062500001Q12.61376953125 7.834843750000001 12.61376953125 8.679082031250001Q12.61376953125 9.904179687500001 11.71875 10.767460937500001Q10.82373046875 11.630742187500001 9.49072265625 11.630742187500001Q8.2275390625 11.630742187500001 7.39599609375 10.903935546875001Q6.564453125 10.177128906250001 6.43115234375 9.002812500000001Z" /><path d="M16.20654296875 2.128300781250001Q17.55859375 2.128300781250001 18.3203125 3.093144531250001Q19.22802734375 4.235722656250001 19.22802734375 6.882695312500001Q19.22802734375 9.523320312500001 18.31396484375 10.678593750000001Q17.55859375 11.630742187500001 16.20654296875 11.630742187500001Q14.84814453125 11.630742187500001 14.0166015625 10.586552734375001Q13.18505859375 9.542363281250001 13.18505859375 6.863652343750001Q13.18505859375 4.235722656250001 14.09912109375 3.080449218750001Q14.8544921875 2.128300781250001 16.20654296875 2.128300781250001ZM16.20654296875 3.607304687500001Q15.8828125 3.607304687500001 15.62890625 3.813603515625001Q15.375 4.019902343750001 15.2353515625 4.553105468750001Q15.05126953125 5.245000000000001 15.05126953125 6.882695312500001Q15.05126953125 8.520390625000001 15.21630859375 9.132939453125001Q15.38134765625 9.745488281250001 15.632080078125 9.948613281250001Q15.8828125 10.151738281250001 16.20654296875 10.151738281250001Q16.5302734375 10.151738281250001 16.7841796875 9.945439453125001Q17.0380859375 9.739140625000001 17.177734375 9.205937500000001Q17.36181640625 8.520390625000001 17.36181640625 6.882695312500001Q17.36181640625 5.245000000000001 17.19677734375 4.632451171875001Q17.03173828125 4.019902343750001 16.781005859375 3.813603515625001Q16.5302734375 3.607304687500001 16.20654296875 3.607304687500001Z" /></g></svg>