<?xml version="1.0" encoding="utf-8" ?>
<svg baseProfile="full" height="14" version="1.1" width="21" xmlns="http://www.w3.org/2000/svg" xmlns:ev="http://www.w3.org/2001/xml-events" xmlns:xlink="http://www.w3.org/1999/xlink"><defs /><rect fill="black" height="14" width="21" x="0" y="0" /><rect fill="white" height="12.4" width="19.4" x="0.8" y="0.8" /><g fill="black"><path d="M5.751953125 11.472050781250001H3.96826171875V4.749882812500001Q2.99072265625 5.663945312500001 1.6640625 6.101933593750001V4.483281250000001Q2.3623046875 4.254765625000001 3.18115234375 3.616826171875001Q4.0 2.978886718750001 4.3046875 2.128300781250001H5.751953125Z" /><path d="M6.3232421875 9.002812500000001 8.0498046875 8.793339843750001Q8.13232421875 9.453496093750001 8.494140625 9.802617187500001Q8.85595703125 10.151738281250001 9.3701171875 10.151738281250001Q9.92236328125 10.151738281250001 10.300048828125 9.732792968750001Q10.677734375 9.313847656250001 10.677734375 8.602910156250001Q10.677734375 7.930058593750001 10.31591796875 7.536503906250001Q9.9541015625 7.142949218750001 9.43359375 7.142949218750001Q9.0908203125 7.142949218750001 8.61474609375 7.276250000000001L8.8115234375 5.822636718750001Q9.53515625 5.841679687500001 9.916015625 5.508427734375001Q10.296875 5.175175781250001 10.296875 4.622929687500001Q10.296875 4.153203125000001 10.017578125 3.873906250000001Q9.73828125 3.594609375000001 9.27490234375 3.594609375000001Q8.81787109375 3.594609375000001 8.494140625 3.911992187500001Q8.17041015625 4.229375000000001 8.1005859375 4.838750000000001L6.45654296875 4.559453125000001Q6.6279296875 3.715214843750001 6.973876953125 3.210576171875001Q7.31982421875 2.705937500000001 7.938720703125 2.417119140625001Q8.5576171875 2.128300781250001 9.32568359375 2.128300781250001Q10.6396484375 2.128300781250001 11.43310546875 2.966191406250001Q12.0869140625 3.651738281250001 12.0869140625 4.515019531250001Q12.0869140625 5.740117187500001 10.74755859375 6.470097656250001Q11.54736328125 6.641484375000001 12.026611328125 7.238164062500001Q12.505859375 7.834843750000001 12.505859375 8.679082031250001Q12.505859375 9.904179687500001 11.61083984375 10.767460937500001Q10.7158203125 11.630742187500001 9.3828125 11.630742187500001Q8.11962890625 11.630742187500001 7.2880859375 10.903935546875001Q6.45654296875 10.177128906250001 6.3232421875 9.002812500000001Z" /><path d="M13.0771484375 9.078984375000001 14.8544921875 8.894902343750001Q14.9306640625 9.497929687500001 15.30517578125 9.850224609375001Q15.6796875 10.202519531250001 16.16845703125 10.202519531250001Q16.72705078125 10.202519531250001 17.1142578125 9.748662109375001Q17.50146484375 9.294804687500001 17.50146484375 8.380742187500001Q17.50146484375 7.523808593750001 17.117431640625 7.095341796875001Q16.7333984375 6.666875000000001 16.11767578125 6.666875000000001Q15.349609375 6.666875000000001 14.740234375 7.346074218750001L13.29296875 7.136601562500001L14.20703125 2.293339843750001H18.92333984375V3.962773437500001H15.55908203125L15.27978515625 5.543339843750001Q15.87646484375 5.245000000000001 16.49853515625 5.245000000000001Q17.685546875 5.245000000000001 18.5107421875 6.108281250000001Q19.3359375 6.971562500000001 19.3359375 8.349003906250001Q19.3359375 9.497929687500001 18.66943359375 10.399296875000001Q17.76171875 11.630742187500001 16.1494140625 11.630742187500001Q14.86083984375 11.630742187500001 14.04833984375 10.938847656250001Q13.23583984375 10.246953125000001 13.0771484375 9.078984375000001Z" /></g></svg>