<?xml version="1.0" encoding="utf-8" ?>
<svg baseProfile="full" height="14" version="1.1" width="21" xmlns="http://www.w3.org/2000/svg" xmlns:ev="http://www.w3.org/2001/xml-events" xmlns:xlink="http://www.w3.org/1999/xlink"><defs /><rect fill="black" height="14" width="21" x="0" y="0" /><rect fill="white" height="12.4" width="19.4" x="0.8" y="0.8" /><g fill="black"><path d="M5.60595703125 11.472050781250001H3.822265625V4.749882812500001Q2.8447265625 5.663945312500001 1.51806640625 6.101933593750001V4.483281250000001Q2.21630859375 4.254765625000001 3.03515625 3.616826171875001Q3.85400390625 2.978886718750001 4.15869140625 2.128300781250001H5.60595703125Z" /><path d="M9.98583984375 11.472050781250001V9.599492187500001H6.17724609375V8.037968750000001L10.21435546875 2.128300781250001H11.71240234375V8.031621093750001H12.86767578125V9.599492187500001H11.71240234375V11.472050781250001ZM9.98583984375 8.031621093750001V4.851445312500001L7.8466796875 8.031621093750001Z" /><path d="M16.46044921875 2.128300781250001Q17.8125 2.128300781250001 18.57421875 3.093144531250001Q19.48193359375 4.235722656250001 19.48193359375 6.882695312500001Q19.48193359375 9.523320312500001 18.56787109375 10.678593750000001Q17.8125 11.630742187500001 16.46044921875 11.630742187500001Q15.10205078125 11.630742187500001 14.2705078125 10.586552734375001Q13.43896484375 9.542363281250001 13.43896484375 6.863652343750001Q13.43896484375 4.235722656250001 14.35302734375 3.080449218750001Q15.1083984375 2.128300781250001 16.46044921875 2.128300781250001ZM16.46044921875 3.607304687500001Q16.13671875 3.607304687500001 15.8828125 3.813603515625001Q15.62890625 4.019902343750001 15.4892578125 4.553105468750001Q15.30517578125 5.245000000000001 15.30517578125 6.882695312500001Q15.30517578125 8.520390625000001 15.47021484375 9.132939453125001Q15.63525390625 9.745488281250001 15.885986328125 9.948613281250001Q16.13671875 10.151738281250001 16.46044921875 10.151738281250001Q16.7841796875 10.151738281250001 17.0380859375 9.945439453125001Q17.2919921875 9.739140625000001 17.431640625 9.205937500000001Q17.61572265625 8.520390625000001 17.61572265625 6.882695312500001Q17.61572265625 5.245000000000001 17.45068359375 4.632451171875001Q17.28564453125 4.019902343750001 17.034912109375 3.813603515625001Q16.7841796875 3.607304687500001 16.46044921875 3.607304687500001Z" /></g></svg>