<?xml version="1.0" encoding="utf-8" ?>
<svg baseProfile="full" height="14" version="1.1" width="21" xmlns="http://www.w3.org/2000/svg" xmlns:ev="http://www.w3.org/2001/xml-events" xmlns:xlink="http://www.w3.org/1999/xlink"><defs /><rect fill="black" height="14" width="21" x="0" y="0" /><rect fill="white" height="12.4" width="19.4" x="0.8" y="0.8" /><g fill="black"><path d="M5.498046875 11.472050781250001H3.71435546875V4.749882812500001Q2.73681640625 5.663945312500001 1.41015625 6.101933593750001V4.483281250000001Q2.1083984375 4.254765625000001 2.92724609375 3.616826171875001Q3.74609375 2.978886718750001 4.05078125 2.128300781250001H5.498046875Z" /><path d="M9.8779296875 11.472050781250001V9.599492187500001H6.0693359375V8.037968750000001L10.1064453125 2.128300781250001H11.6044921875V8.031621093750001H12.759765625V9.599492187500001H11.6044921875V11.472050781250001ZM9.8779296875 8.031621093750001V4.851445312500001L7.73876953125 8.031621093750001Z" /><path d="M13.3310546875 9.078984375000001 15.1083984375 8.894902343750001Q15.1845703125 9.497929687500001 15.55908203125 9.850224609375001Q15.93359375 10.202519531250001 16.42236328125 10.202519531250001Q16.98095703125 10.202519531250001 17.3681640625 9.748662109375001Q17.75537109375 9.294804687500001 17.75537109375 8.380742187500001Q17.75537109375 7.523808593750001 17.371337890625 7.095341796875001Q16.9873046875 6.666875000000001 16.37158203125 6.666875000000001Q15.603515625 6.666875000000001 14.994140625 7.346074218750001L13.546875 7.136601562500001L14.4609375 2.293339843750001H19.17724609375V3.962773437500001H15.81298828125L15.53369140625 5.543339843750001Q16.13037109375 5.245000000000001 16.75244140625 5.245000000000001Q17.939453125 5.245000000000001 18.7646484375 6.108281250000001Q19.58984375 6.971562500000001 19.58984375 8.349003906250001Q19.58984375 9.497929687500001 18.92333984375 10.399296875000001Q18.015625 11.630742187500001 16.4033203125 11.630742187500001Q15.11474609375 11.630742187500001 14.30224609375 10.938847656250001Q13.48974609375 10.246953125000001 13.3310546875 9.078984375000001Z" /></g></svg>