<?xml version="1.0" encoding="utf-8" ?>
<svg baseProfile="full" height="14" version="1.1" width="21" xmlns="http://www.w3.org/2000/svg" xmlns:ev="http://www.w3.org/2001/xml-events" xmlns:xlink="http://www.w3.org/1999/xlink"><defs /><rect fill="black" height="14" width="21" x="0" y="0" /><rect fill="white" height="12.4" width="19.4" x="0.8" y="0.8" /><g fill="black"><path d="M5.82177734375 11.472050781250001H4.0380859375V4.749882812500001Q3.060546875 5.663945312500001 1.73388671875 6.101933593750001V4.483281250000001Q2.43212890625 4.254765625000001 3.2509765625 3.616826171875001Q4.06982421875 2.978886718750001 4.37451171875 2.128300781250001H5.82177734375Z" /><path d="M6.39306640625 9.078984375000001 8.17041015625 8.894902343750001Q8.24658203125 9.497929687500001 8.62109375 9.850224609375001Q8.99560546875 10.202519531250001 9.484375 10.202519531250001Q10.04296875 10.202519531250001 10.43017578125 9.748662109375001Q10.8173828125 9.294804687500001 10.8173828125 8.380742187500001Q10.8173828125 7.523808593750001 10.433349609375 7.095341796875001Q10.04931640625 6.666875000000001 9.43359375 6.666875000000001Q8.66552734375 6.666875000000001 8.05615234375 7.346074218750001L6.60888671875 7.136601562500001L7.52294921875 2.293339843750001H12.2392578125V3.962773437500001H8.875L8.595703125 5.543339843750001Q9.1923828125 5.245000000000001 9.814453125 5.245000000000001Q11.00146484375 5.245000000000001 11.82666015625 6.108281250000001Q12.65185546875 6.971562500000001 12.65185546875 8.349003906250001Q12.65185546875 9.497929687500001 11.9853515625 10.399296875000001Q11.07763671875 11.630742187500001 9.46533203125 11.630742187500001Q8.1767578125 11.630742187500001 7.3642578125 10.938847656250001Q6.5517578125 10.246953125000001 6.39306640625 9.078984375000001Z" /><path d="M16.24462890625 2.128300781250001Q17.5966796875 2.128300781250001 18.3583984375 3.093144531250001Q19.26611328125 4.235722656250001 19.26611328125 6.882695312500001Q19.26611328125 9.523320312500001 18.35205078125 10.678593750000001Q17.5966796875 11.630742187500001 16.24462890625 11.630742187500001Q14.88623046875 11.630742187500001 14.0546875 10.586552734375001Q13.22314453125 9.542363281250001 13.22314453125 6.863652343750001Q13.22314453125 4.235722656250001 14.13720703125 3.080449218750001Q14.892578125 2.128300781250001 16.24462890625 2.128300781250001ZM16.24462890625 3.607304687500001Q15.9208984375 3.607304687500001 15.6669921875 3.813603515625001Q15.4130859375 4.019902343750001 15.2734375 4.553105468750001Q15.08935546875 5.245000000000001 15.08935546875 6.882695312500001Q15.08935546875 8.520390625000001 15.25439453125 9.132939453125001Q15.41943359375 9.745488281250001 15.670166015625 9.948613281250001Q15.9208984375 10.151738281250001 16.24462890625 10.151738281250001Q16.568359375 10.151738281250001 16.822265625 9.945439453125001Q17.076171875 9.739140625000001 17.2158203125 9.205937500000001Q17.39990234375 8.520390625000001 17.39990234375 6.882695312500001Q17.39990234375 5.245000000000001 17.23486328125 4.632451171875001Q17.06982421875 4.019902343750001 16.819091796875 3.813603515625001Q16.568359375 3.607304687500001 16.24462890625 3.607304687500001Z" /></g></svg>