<?xml version="1.0" encoding="utf-8" ?>
<svg baseProfile="full" height="14" version="1.1" width="21" xmlns="http://www.w3.org/2000/svg" xmlns:ev="http://www.w3.org/2001/xml-events" xmlns:xlink="http://www.w3.org/1999/xlink"><defs /><rect fill="black" height="14" width="21" x="0" y="0" /><rect fill="white" height="12.4" width="19.4" x="0.8" y="0.8" /><g fill="black"><path d="M5.7138671875 11.472050781250001H3.93017578125V4.749882812500001Q2.95263671875 5.663945312500001 1.6259765625 6.101933593750001V4.483281250000001Q2.32421875 4.254765625000001 3.14306640625 3.616826171875001Q3.9619140625 2.978886718750001 4.2666015625 2.128300781250001H5.7138671875Z" /><path d="M6.28515625 9.078984375000001 8.0625 8.894902343750001Q8.138671875 9.497929687500001 8.51318359375 9.850224609375001Q8.8876953125 10.202519531250001 9.37646484375 10.202519531250001Q9.93505859375 10.202519531250001 10.322265625 9.748662109375001Q10.70947265625 9.294804687500001 10.70947265625 8.380742187500001Q10.70947265625 7.523808593750001 10.325439453125 7.095341796875001Q9.94140625 6.666875000000001 9.32568359375 6.666875000000001Q8.5576171875 6.666875000000001 7.9482421875 7.346074218750001L6.5009765625 7.136601562500001L7.4150390625 2.293339843750001H12.13134765625V3.962773437500001H8.76708984375L8.48779296875 5.543339843750001Q9.08447265625 5.245000000000001 9.70654296875 5.245000000000001Q10.8935546875 5.245000000000001 11.71875 6.108281250000001Q12.5439453125 6.971562500000001 12.5439453125 8.349003906250001Q12.5439453125 9.497929687500001 11.87744140625 10.399296875000001Q10.9697265625 11.630742187500001 9.357421875 11.630742187500001Q8.06884765625 11.630742187500001 7.25634765625 10.938847656250001Q6.44384765625 10.246953125000001 6.28515625 9.078984375000001Z" /><path d="M13.115234375 9.078984375000001 14.892578125 8.894902343750001Q14.96875 9.497929687500001 15.34326171875 9.850224609375001Q15.7177734375 10.202519531250001 16.20654296875 10.202519531250001Q16.76513671875 10.202519531250001 17.15234375 9.748662109375001Q17.53955078125 9.294804687500001 17.53955078125 8.380742187500001Q17.53955078125 7.523808593750001 17.155517578125 7.095341796875001Q16.771484375 6.666875000000001 16.15576171875 6.666875000000001Q15.3876953125 6.666875000000001 14.7783203125 7.346074218750001L13.3310546875 7.136601562500001L14.2451171875 2.293339843750001H18.96142578125V3.962773437500001H15.59716796875L15.31787109375 5.543339843750001Q15.91455078125 5.245000000000001 16.53662109375 5.245000000000001Q17.7236328125 5.245000000000001 18.548828125 6.108281250000001Q19.3740234375 6.971562500000001 19.3740234375 8.349003906250001Q19.3740234375 9.497929687500001 18.70751953125 10.399296875000001Q17.7998046875 11.630742187500001 16.1875 11.630742187500001Q14.89892578125 11.630742187500001 14.08642578125 10.938847656250001Q13.27392578125 10.246953125000001 13.115234375 9.078984375000001Z" /></g></svg>