<?xml version="1.0" encoding="utf-8" ?>
<svg baseProfile="full" height="14" version="1.1" width="21" xmlns="http://www.w3.org/2000/svg" xmlns:ev="http://www.w3.org/2001/xml-events" xmlns:xlink="http://www.w3.org/1999/xlink"><defs /><rect fill="black" height="14" width="21" x="0" y="0" /><rect fill="white" height="12.4" width="19.4" x="0.8" y="0.8" /><g fill="black"><path d="M5.843994140625 11.472050781250001H4.060302734375V4.749882812500001Q3.082763671875 5.663945312500001 1.756103515625 6.101933593750001V4.483281250000001Q2.454345703125 4.254765625000001 3.273193359375 3.616826171875001Q4.092041015625 2.978886718750001 4.396728515625 2.128300781250001H5.843994140625Z" /><path d="M12.458251953125 4.445195312500001 10.731689453125 4.635625000000001Q10.668212890625 4.102421875000001 10.401611328125 3.848515625000001Q10.135009765625 3.594609375000001 9.709716796875 3.594609375000001Q9.144775390625 3.594609375000001 8.75439453125 4.102421875000001Q8.364013671875 4.610234375000001 8.262451171875 6.216191406250001Q8.928955078125 5.429082031250001 9.919189453125 5.429082031250001Q11.036376953125 5.429082031250001 11.8330078125 6.279667968750001Q12.629638671875 7.130253906250001 12.629638671875 8.475957031250001Q12.629638671875 9.904179687500001 11.791748046875 10.767460937500001Q10.953857421875 11.630742187500001 9.639892578125 11.630742187500001Q8.230712890625 11.630742187500001 7.322998046875 10.535771484375001Q6.415283203125 9.440800781250001 6.415283203125 6.946171875000001Q6.415283203125 4.388066406250001 7.361083984375 3.258183593750001Q8.306884765625 2.128300781250001 9.817626953125 2.128300781250001Q10.877685546875 2.128300781250001 11.57275390625 2.721806640625001Q12.267822265625 3.315312500000001 12.458251953125 4.445195312500001ZM8.414794921875 8.336308593750001Q8.414794921875 9.205937500000001 8.814697265625 9.678837890625001Q9.214599609375 10.151738281250001 9.728759765625 10.151738281250001Q10.223876953125 10.151738281250001 10.553955078125 9.764531250000001Q10.884033203125 9.377324218750001 10.884033203125 8.495000000000001Q10.884033203125 7.587285156250001 10.528564453125 7.165166015625001Q10.173095703125 6.743046875000001 9.639892578125 6.743046875000001Q9.125732421875 6.743046875000001 8.770263671875 7.146123046875001Q8.414794921875 7.549199218750001 8.414794921875 8.336308593750001Z" /><path d="M16.222412109375 2.128300781250001Q17.574462890625 2.128300781250001 18.336181640625 3.093144531250001Q19.243896484375 4.235722656250001 19.243896484375 6.882695312500001Q19.243896484375 9.523320312500001 18.329833984375 10.678593750000001Q17.574462890625 11.630742187500001 16.222412109375 11.630742187500001Q14.864013671875 11.630742187500001 14.032470703125 10.586552734375001Q13.200927734375 9.542363281250001 13.200927734375 6.863652343750001Q13.200927734375 4.235722656250001 14.114990234375 3.080449218750001Q14.870361328125 2.128300781250001 16.222412109375 2.128300781250001ZM16.222412109375 3.607304687500001Q15.898681640625 3.607304687500001 15.644775390625 3.813603515625001Q15.390869140625 4.019902343750001 15.251220703125 4.553105468750001Q15.067138671875 5.245000000000001 15.067138671875 6.882695312500001Q15.067138671875 8.520390625000001 15.232177734375 9.132939453125001Q15.397216796875 9.745488281250001 15.64794921875 9.948613281250001Q15.898681640625 10.151738281250001 16.222412109375 10.151738281250001Q16.546142578125 10.151738281250001 16.800048828125 9.945439453125001Q17.053955078125 9.739140625000001 17.193603515625 9.205937500000001Q17.377685546875 8.520390625000001 17.377685546875 6.882695312500001Q17.377685546875 5.245000000000001 17.212646484375 4.632451171875001Q17.047607421875 4.019902343750001 16.796875 3.813603515625001Q16.546142578125 3.607304687500001 16.222412109375 3.607304687500001Z" /></g></svg>