<?xml version="1.0" encoding="utf-8" ?>
<svg baseProfile="full" height="14" version="1.1" width="21" xmlns="http://www.w3.org/2000/svg" xmlns:ev="http://www.w3.org/2001/xml-events" xmlns:xlink="http://www.w3.org/1999/xlink"><defs /><rect fill="black" height="14" width="21" x="0" y="0" /><rect fill="white" height="12.4" width="19.4" x="0.8" y="0.8" /><g fill="black"><path d="M3.99365234375 9.002812500000001 5.72021484375 8.793339843750001Q5.802734375 9.453496093750001 6.16455078125 9.802617187500001Q6.5263671875 10.151738281250001 7.04052734375 10.151738281250001Q7.5927734375 10.151738281250001 7.970458984375 9.732792968750001Q8.34814453125 9.313847656250001 8.34814453125 8.602910156250001Q8.34814453125 7.930058593750001 7.986328125 7.536503906250001Q7.62451171875 7.142949218750001 7.10400390625 7.142949218750001Q6.76123046875 7.142949218750001 6.28515625 7.276250000000001L6.48193359375 5.822636718750001Q7.20556640625 5.841679687500001 7.58642578125 5.508427734375001Q7.96728515625 5.175175781250001 7.96728515625 4.622929687500001Q7.96728515625 4.153203125000001 7.68798828125 3.873906250000001Q7.40869140625 3.594609375000001 6.9453125 3.594609375000001Q6.48828125 3.594609375000001 6.16455078125 3.911992187500001Q5.8408203125 4.229375000000001 5.77099609375 4.838750000000001L4.126953125 4.559453125000001Q4.29833984375 3.715214843750001 4.644287109375 3.210576171875001Q4.990234375 2.705937500000001 5.609130859375 2.417119140625001Q6.22802734375 2.128300781250001 6.99609375 2.128300781250001Q8.31005859375 2.128300781250001 9.103515625 2.966191406250001Q9.75732421875 3.651738281250001 9.75732421875 4.515019531250001Q9.75732421875 5.740117187500001 8.41796875 6.470097656250001Q9.2177734375 6.641484375000001 9.697021484375 7.238164062500001Q10.17626953125 7.834843750000001 10.17626953125 8.679082031250001Q10.17626953125 9.904179687500001 9.28125 10.767460937500001Q8.38623046875 11.630742187500001 7.05322265625 11.630742187500001Q5.7900390625 11.630742187500001 4.95849609375 10.903935546875001Q4.126953125 10.177128906250001 3.99365234375 9.002812500000001Z" /><path d="M10.74755859375 9.078984375000001 12.52490234375 8.894902343750001Q12.60107421875 9.497929687500001 12.9755859375 9.850224609375001Q13.35009765625 10.202519531250001 13.8388671875 10.202519531250001Q14.3974609375 10.202519531250001 14.78466796875 9.748662109375001Q15.171875 9.294804687500001 15.171875 8.380742187500001Q15.171875 7.523808593750001 14.787841796875 7.095341796875001Q14.40380859375 6.666875000000001 13.7880859375 6.666875000000001Q13.02001953125 6.666875000000001 12.41064453125 7.346074218750001L10.96337890625 7.136601562500001L11.87744140625 2.293339843750001H16.59375V3.962773437500001H13.2294921875L12.9501953125 5.543339843750001Q13.546875 5.245000000000001 14.1689453125 5.245000000000001Q15.35595703125 5.245000000000001 16.18115234375 6.108281250000001Q17.00634765625 6.971562500000001 17.00634765625 8.349003906250001Q17.00634765625 9.497929687500001 16.33984375 10.399296875000001Q15.43212890625 11.630742187500001 13.81982421875 11.630742187500001Q12.53125 11.630742187500001 11.71875 10.938847656250001Q10.90625 10.246953125000001 10.74755859375 9.078984375000001Z" /></g></svg>