<?xml version="1.0" encoding="utf-8" ?>
<svg baseProfile="full" height="14" version="1.1" width="21" xmlns="http://www.w3.org/2000/svg" xmlns:ev="http://www.w3.org/2001/xml-events" xmlns:xlink="http://www.w3.org/1999/xlink"><defs /><rect fill="black" height="14" width="21" x="0" y="0" /><rect fill="white" height="12.4" width="19.4" x="0.8" y="0.8" /><g fill="black"><path d="M7.65625 11.472050781250001V9.599492187500001H3.84765625V8.037968750000001L7.884765625 2.128300781250001H9.3828125V8.031621093750001H10.5380859375V9.599492187500001H9.3828125V11.472050781250001ZM7.65625 8.031621093750001V4.851445312500001L5.51708984375 8.031621093750001Z" /><path d="M14.130859375 2.128300781250001Q15.48291015625 2.128300781250001 16.24462890625 3.093144531250001Q17.15234375 4.235722656250001 17.15234375 6.882695312500001Q17.15234375 9.523320312500001 16.23828125 10.678593750000001Q15.48291015625 11.630742187500001 14.130859375 11.630742187500001Q12.7724609375 11.630742187500001 11.94091796875 10.586552734375001Q11.109375 9.542363281250001 11.109375 6.863652343750001Q11.109375 4.235722656250001 12.0234375 3.080449218750001Q12.77880859375 2.128300781250001 14.130859375 2.128300781250001ZM14.130859375 3.607304687500001Q13.80712890625 3.607304687500001 13.55322265625 3.813603515625001Q13.29931640625 4.019902343750001 13.15966796875 4.553105468750001Q12.9755859375 5.245000000000001 12.9755859375 6.882695312500001Q12.9755859375 8.520390625000001 13.140625 9.132939453125001Q13.3056640625 9.745488281250001 13.556396484375 9.948613281250001Q13.80712890625 10.151738281250001 14.130859375 10.151738281250001Q14.45458984375 10.151738281250001 14.70849609375 9.945439453125001Q14.96240234375 9.739140625000001 15.10205078125 9.205937500000001Q15.2861328125 8.520390625000001 15.2861328125 6.882695312500001Q15.2861328125 5.245000000000001 15.12109375 4.632451171875001Q14.9560546875 4.019902343750001 14.705322265625 3.813603515625001Q14.45458984375 3.607304687500001 14.130859375 3.607304687500001Z" /></g></svg>