<?xml version="1.0" encoding="utf-8" ?>
<svg baseProfile="full" height="14" version="1.1" width="21" xmlns="http://www.w3.org/2000/svg" xmlns:ev="http://www.w3.org/2001/xml-events" xmlns:xlink="http://www.w3.org/1999/xlink"><defs /><rect fill="black" height="14" width="21" x="0" y="0" /><rect fill="white" height="12.4" width="19.4" x="0.8" y="0.8" /><g fill="black"><path d="M7.54833984375 11.472050781250001V9.599492187500001H3.73974609375V8.037968750000001L7.77685546875 2.128300781250001H9.27490234375V8.031621093750001H10.43017578125V9.599492187500001H9.27490234375V11.472050781250001ZM7.54833984375 8.031621093750001V4.851445312500001L5.4091796875 8.031621093750001Z" /><path d="M11.00146484375 9.078984375000001 12.77880859375 8.894902343750001Q12.85498046875 9.497929687500001 13.2294921875 9.850224609375001Q13.60400390625 10.202519531250001 14.0927734375 10.202519531250001Q14.6513671875 10.202519531250001 15.03857421875 9.748662109375001Q15.42578125 9.294804687500001 15.42578125 8.380742187500001Q15.42578125 7.523808593750001 15.041748046875 7.095341796875001Q14.65771484375 6.666875000000001 14.0419921875 6.666875000000001Q13.27392578125 6.666875000000001 12.66455078125 7.346074218750001L11.21728515625 7.136601562500001L12.13134765625 2.293339843750001H16.84765625V3.962773437500001H13.4833984375L13.2041015625 5.543339843750001Q13.80078125 5.245000000000001 14.4228515625 5.245000000000001Q15.60986328125 5.245000000000001 16.43505859375 6.108281250000001Q17.26025390625 6.971562500000001 17.26025390625 8.349003906250001Q17.26025390625 9.497929687500001 16.59375 10.399296875000001Q15.68603515625 11.630742187500001 14.07373046875 11.630742187500001Q12.78515625 11.630742187500001 11.97265625 10.938847656250001Q11.16015625 10.246953125000001 11.00146484375 9.078984375000001Z" /></g></svg>