<?xml version="1.0" encoding="utf-8" ?>
<svg baseProfile="full" height="14" version="1.1" width="21" xmlns="http://www.w3.org/2000/svg" xmlns:ev="http://www.w3.org/2001/xml-events" xmlns:xlink="http://www.w3.org/1999/xlink"><defs /><rect fill="black" height="14" width="21" x="0" y="0" /><rect fill="white" height="12.4" width="19.4" x="0.8" y="0.8" /><g fill="black"><path d="M4.0634765625 9.078984375000001 5.8408203125 8.894902343750001Q5.9169921875 9.497929687500001 6.29150390625 9.850224609375001Q6.666015625 10.202519531250001 7.15478515625 10.202519531250001Q7.71337890625 10.202519531250001 8.1005859375 9.748662109375001Q8.48779296875 9.294804687500001 8.48779296875 8.380742187500001Q8.48779296875 7.523808593750001 8.103759765625 7.095341796875001Q7.7197265625 6.666875000000001 7.10400390625 6.666875000000001Q6.3359375 6.666875000000001 5.7265625 7.346074218750001L4.279296875 7.136601562500001L5.193359375 2.293339843750001H9.90966796875V3.962773437500001H6.54541015625L6.26611328125 5.543339843750001Q6.86279296875 5.245000000000001 7.48486328125 5.245000000000001Q8.671875 5.245000000000001 9.4970703125 6.108281250000001Q10.322265625 6.971562500000001 10.322265625 8.349003906250001Q10.322265625 9.497929687500001 9.65576171875 10.399296875000001Q8.748046875 11.630742187500001 7.1357421875 11.630742187500001Q5.84716796875 11.630742187500001 5.03466796875 10.938847656250001Q4.22216796875 10.246953125000001 4.0634765625 9.078984375000001Z" /><path d="M13.9150390625 2.128300781250001Q15.26708984375 2.128300781250001 16.02880859375 3.093144531250001Q16.9365234375 4.235722656250001 16.9365234375 6.882695312500001Q16.9365234375 9.523320312500001 16.0224609375 10.678593750000001Q15.26708984375 11.630742187500001 13.9150390625 11.630742187500001Q12.556640625 11.630742187500001 11.72509765625 10.586552734375001Q10.8935546875 9.542363281250001 10.8935546875 6.863652343750001Q10.8935546875 4.235722656250001 11.8076171875 3.080449218750001Q12.56298828125 2.128300781250001 13.9150390625 2.128300781250001ZM13.9150390625 3.607304687500001Q13.59130859375 3.607304687500001 13.33740234375 3.813603515625001Q13.08349609375 4.019902343750001 12.94384765625 4.553105468750001Q12.759765625 5.245000000000001 12.759765625 6.882695312500001Q12.759765625 8.520390625000001 12.9248046875 9.132939453125001Q13.08984375 9.745488281250001 13.340576171875 9.948613281250001Q13.59130859375 10.151738281250001 13.9150390625 10.151738281250001Q14.23876953125 10.151738281250001 14.49267578125 9.945439453125001Q14.74658203125 9.739140625000001 14.88623046875 9.205937500000001Q15.0703125 8.520390625000001 15.0703125 6.882695312500001Q15.0703125 5.245000000000001 14.9052734375 4.632451171875001Q14.740234375 4.019902343750001 14.489501953125 3.813603515625001Q14.23876953125 3.607304687500001 13.9150390625 3.607304687500001Z" /></g></svg>