<?xml version="1.0" encoding="utf-8" ?>
<svg baseProfile="full" height="14" version="1.1" width="21" xmlns="http://www.w3.org/2000/svg" xmlns:ev="http://www.w3.org/2001/xml-events" xmlns:xlink="http://www.w3.org/1999/xlink"><defs /><rect fill="black" height="14" width="21" x="0" y="0" /><rect fill="white" height="12.4" width="19.4" x="0.8" y="0.8" /><g fill="black"><path d="M10.128662109375 4.445195312500001 8.402099609375 4.635625000000001Q8.338623046875 4.102421875000001 8.072021484375 3.848515625000001Q7.805419921875 3.594609375000001 7.380126953125 3.594609375000001Q6.815185546875 3.594609375000001 6.4248046875 4.102421875000001Q6.034423828125 4.610234375000001 5.932861328125 6.216191406250001Q6.599365234375 5.429082031250001 7.589599609375 5.429082031250001Q8.706787109375 5.429082031250001 9.50341796875 6.279667968750001Q10.300048828125 7.130253906250001 10.300048828125 8.475957031250001Q10.300048828125 9.904179687500001 9.462158203125 10.767460937500001Q8.624267578125 11.630742187500001 7.310302734375 11.630742187500001Q5.901123046875 11.630742187500001 4.993408203125 10.535771484375001Q4.085693359375 9.440800781250001 4.085693359375 6.946171875000001Q4.085693359375 4.388066406250001 5.031494140625 3.258183593750001Q5.977294921875 2.128300781250001 7.488037109375 2.128300781250001Q8.548095703125 2.128300781250001 9.2431640625 2.721806640625001Q9.938232421875 3.315312500000001 10.128662109375 4.445195312500001ZM6.085205078125 8.336308593750001Q6.085205078125 9.205937500000001 6.485107421875 9.678837890625001Q6.885009765625 10.151738281250001 7.399169921875 10.151738281250001Q7.894287109375 10.151738281250001 8.224365234375 9.764531250000001Q8.554443359375 9.377324218750001 8.554443359375 8.495000000000001Q8.554443359375 7.587285156250001 8.198974609375 7.165166015625001Q7.843505859375 6.743046875000001 7.310302734375 6.743046875000001Q6.796142578125 6.743046875000001 6.440673828125 7.146123046875001Q6.085205078125 7.549199218750001 6.085205078125 8.336308593750001Z" /><path d="M13.892822265625 2.128300781250001Q15.244873046875 2.128300781250001 16.006591796875 3.093144531250001Q16.914306640625 4.235722656250001 16.914306640625 6.882695312500001Q16.914306640625 9.523320312500001 16.000244140625 10.678593750000001Q15.244873046875 11.630742187500001 13.892822265625 11.630742187500001Q12.534423828125 11.630742187500001 11.702880859375 10.586552734375001Q10.871337890625 9.542363281250001 10.871337890625 6.863652343750001Q10.871337890625 4.235722656250001 11.785400390625 3.080449218750001Q12.540771484375 2.128300781250001 13.892822265625 2.128300781250001ZM13.892822265625 3.607304687500001Q13.569091796875 3.607304687500001 13.315185546875 3.813603515625001Q13.061279296875 4.019902343750001 12.921630859375 4.553105468750001Q12.737548828125 5.245000000000001 12.737548828125 6.882695312500001Q12.737548828125 8.520390625000001 12.902587890625 9.132939453125001Q13.067626953125 9.745488281250001 13.318359375 9.948613281250001Q13.569091796875 10.151738281250001 13.892822265625 10.151738281250001Q14.216552734375 10.151738281250001 14.470458984375 9.945439453125001Q14.724365234375 9.739140625000001 14.864013671875 9.205937500000001Q15.048095703125 8.520390625000001 15.048095703125 6.882695312500001Q15.048095703125 5.245000000000001 14.883056640625 4.632451171875001Q14.718017578125 4.019902343750001 14.46728515625 3.813603515625001Q14.216552734375 3.607304687500001 13.892822265625 3.607304687500001Z" /></g></svg>