<?xml version="1.0" encoding="utf-8" ?>
<svg baseProfile="full" height="14" version="1.1" width="21" xmlns="http://www.w3.org/2000/svg" xmlns:ev="http://www.w3.org/2001/xml-events" xmlns:xlink="http://www.w3.org/1999/xlink"><defs /><rect fill="black" height="14" width="21" x="0" y="0" /><rect fill="white" height="12.4" width="19.4" x="0.8" y="0.8" /><g fill="black"><path d="M4.034912109375 3.950078125000001V2.293339843750001H10.135009765625V3.588261718750001Q9.379638671875 4.330937500000001 8.598876953125 5.721074218750001Q7.818115234375 7.111210937500001 7.40869140625 8.675908203125001Q6.999267578125 10.240605468750001 7.005615234375 11.472050781250001H5.285400390625Q5.329833984375 9.542363281250001 6.08203125 7.536503906250001Q6.834228515625 5.530644531250001 8.091064453125 3.950078125000001Z" /><path d="M10.706298828125 9.078984375000001 12.483642578125 8.894902343750001Q12.559814453125 9.497929687500001 12.934326171875 9.850224609375001Q13.308837890625 10.202519531250001 13.797607421875 10.202519531250001Q14.356201171875 10.202519531250001 14.743408203125 9.748662109375001Q15.130615234375 9.294804687500001 15.130615234375 8.380742187500001Q15.130615234375 7.523808593750001 14.74658203125 7.095341796875001Q14.362548828125 6.666875000000001 13.746826171875 6.666875000000001Q12.978759765625 6.666875000000001 12.369384765625 7.346074218750001L10.922119140625 7.136601562500001L11.836181640625 2.293339843750001H16.552490234375V3.962773437500001H13.188232421875L12.908935546875 5.543339843750001Q13.505615234375 5.245000000000001 14.127685546875 5.245000000000001Q15.314697265625 5.245000000000001 16.139892578125 6.108281250000001Q16.965087890625 6.971562500000001 16.965087890625 8.349003906250001Q16.965087890625 9.497929687500001 16.298583984375 10.399296875000001Q15.390869140625 11.630742187500001 13.778564453125 11.630742187500001Q12.489990234375 11.630742187500001 11.677490234375 10.938847656250001Q10.864990234375 10.246953125000001 10.706298828125 9.078984375000001Z" /></g></svg>