<?xml version="1.0" encoding="utf-8" ?>
<svg baseProfile="full" height="14" version="1.1" width="21" xmlns="http://www.w3.org/2000/svg" xmlns:ev="http://www.w3.org/2001/xml-events" xmlns:xlink="http://www.w3.org/1999/xlink"><defs /><rect fill="black" height="14" width="21" x="0" y="0" /><rect fill="white" height="12.4" width="19.4" x="0.8" y="0.8" /><g fill="black"><path d="M5.6884765625 6.451054687500001Q4.99658203125 6.159062500000001 4.682373046875 5.648076171875001Q4.3681640625 5.137089843750001 4.3681640625 4.527714843750001Q4.3681640625 3.486699218750001 5.094970703125 2.807500000000001Q5.82177734375 2.128300781250001 7.1611328125 2.128300781250001Q8.48779296875 2.128300781250001 9.220947265625 2.807500000000001Q9.9541015625 3.486699218750001 9.9541015625 4.527714843750001Q9.9541015625 5.175175781250001 9.61767578125 5.679814453125001Q9.28125 6.184453125000001 8.671875 6.451054687500001Q9.4462890625 6.762089843750001 9.849365234375 7.358769531250001Q10.25244140625 7.955449218750001 10.25244140625 8.736210937500001Q10.25244140625 10.024785156250001 9.430419921875 10.830937500000001Q8.6083984375 11.637089843750001 7.24365234375 11.637089843750001Q5.97412109375 11.637089843750001 5.1298828125 10.970585937500001Q4.13330078125 10.183476562500001 4.13330078125 8.812382812500001Q4.13330078125 8.057011718750001 4.5078125 7.425419921875001Q4.88232421875 6.793828125000001 5.6884765625 6.451054687500001ZM6.056640625 4.654667968750001Q6.056640625 5.187871093750001 6.358154296875 5.486210937500001Q6.65966796875 5.784550781250001 7.1611328125 5.784550781250001Q7.6689453125 5.784550781250001 7.9736328125 5.483037109375001Q8.2783203125 5.181523437500001 8.2783203125 4.648320312500001Q8.2783203125 4.146855468750001 7.976806640625 3.845341796875001Q7.67529296875 3.543828125000001 7.18017578125 3.543828125000001Q6.666015625 3.543828125000001 6.361328125 3.848515625000001Q6.056640625 4.153203125000001 6.056640625 4.654667968750001ZM5.8916015625 8.640996093750001Q5.8916015625 9.377324218750001 6.269287109375 9.789921875000001Q6.64697265625 10.202519531250001 7.2119140625 10.202519531250001Q7.76416015625 10.202519531250001 8.1259765625 9.805791015625001Q8.48779296875 9.409062500000001 8.48779296875 8.660039062500001Q8.48779296875 8.006230468750001 8.11962890625 7.609501953125001Q7.75146484375 7.212773437500001 7.1865234375 7.212773437500001Q6.53271484375 7.212773437500001 6.212158203125 7.663457031250001Q5.8916015625 8.114140625000001 5.8916015625 8.640996093750001Z" /><path d="M13.84521484375 2.128300781250001Q15.197265625 2.128300781250001 15.958984375 3.093144531250001Q16.86669921875 4.235722656250001 16.86669921875 6.882695312500001Q16.86669921875 9.523320312500001 15.95263671875 10.678593750000001Q15.197265625 11.630742187500001 13.84521484375 11.630742187500001Q12.48681640625 11.630742187500001 11.6552734375 10.586552734375001Q10.82373046875 9.542363281250001 10.82373046875 6.863652343750001Q10.82373046875 4.235722656250001 11.73779296875 3.080449218750001Q12.4931640625 2.128300781250001 13.84521484375 2.128300781250001ZM13.84521484375 3.607304687500001Q13.521484375 3.607304687500001 13.267578125 3.813603515625001Q13.013671875 4.019902343750001 12.8740234375 4.553105468750001Q12.68994140625 5.245000000000001 12.68994140625 6.882695312500001Q12.68994140625 8.520390625000001 12.85498046875 9.132939453125001Q13.02001953125 9.745488281250001 13.270751953125 9.948613281250001Q13.521484375 10.151738281250001 13.84521484375 10.151738281250001Q14.1689453125 10.151738281250001 14.4228515625 9.945439453125001Q14.6767578125 9.739140625000001 14.81640625 9.205937500000001Q15.00048828125 8.520390625000001 15.00048828125 6.882695312500001Q15.00048828125 5.245000000000001 14.83544921875 4.632451171875001Q14.67041015625 4.019902343750001 14.419677734375 3.813603515625001Q14.1689453125 3.607304687500001 13.84521484375 3.607304687500001Z" /></g></svg>