<?xml version="1.0" encoding="utf-8" ?>
<svg baseProfile="full" height="14" version="1.1" width="21" xmlns="http://www.w3.org/2000/svg" xmlns:ev="http://www.w3.org/2001/xml-events" xmlns:xlink="http://www.w3.org/1999/xlink"><defs /><rect fill="black" height="14" width="21" x="0" y="0" /><rect fill="white" height="12.4" width="19.4" x="0.8" y="0.8" /><g fill="black"><path d="M4.155517578125 9.320195312500001 5.882080078125 9.129765625000001Q5.945556640625 9.656621093750001 6.212158203125 9.910527343750001Q6.478759765625 10.164433593750001 6.916748046875 10.164433593750001Q7.468994140625 10.164433593750001 7.856201171875 9.656621093750001Q8.243408203125 9.148808593750001 8.351318359375 7.549199218750001Q7.678466796875 8.329960937500001 6.669189453125 8.329960937500001Q5.571044921875 8.329960937500001 4.7744140625 7.482548828125001Q3.977783203125 6.635136718750001 3.977783203125 5.276738281250001Q3.977783203125 3.861210937500001 4.81884765625 2.994755859375001Q5.659912109375 2.128300781250001 6.961181640625 2.128300781250001Q8.376708984375 2.128300781250001 9.284423828125 3.223271484375001Q10.192138671875 4.318242187500001 10.192138671875 6.825566406250001Q10.192138671875 9.377324218750001 9.246337890625 10.507207031250001Q8.300537109375 11.637089843750001 6.783447265625 11.637089843750001Q5.691650390625 11.637089843750001 5.018798828125 11.056279296875001Q4.345947265625 10.475468750000001 4.155517578125 9.320195312500001ZM8.192626953125 5.422734375000001Q8.192626953125 4.559453125000001 7.7958984375 4.083378906250001Q7.399169921875 3.607304687500001 6.878662109375 3.607304687500001Q6.383544921875 3.607304687500001 6.056640625 3.997685546875001Q5.729736328125 4.388066406250001 5.729736328125 5.276738281250001Q5.729736328125 6.178105468750001 6.085205078125 6.600224609375001Q6.440673828125 7.022343750000001 6.973876953125 7.022343750000001Q7.488037109375 7.022343750000001 7.84033203125 6.616093750000001Q8.192626953125 6.209843750000001 8.192626953125 5.422734375000001Z" /><path d="M10.763427734375 9.078984375000001 12.540771484375 8.894902343750001Q12.616943359375 9.497929687500001 12.991455078125 9.850224609375001Q13.365966796875 10.202519531250001 13.854736328125 10.202519531250001Q14.413330078125 10.202519531250001 14.800537109375 9.748662109375001Q15.187744140625 9.294804687500001 15.187744140625 8.380742187500001Q15.187744140625 7.523808593750001 14.8037109375 7.095341796875001Q14.419677734375 6.666875000000001 13.803955078125 6.666875000000001Q13.035888671875 6.666875000000001 12.426513671875 7.346074218750001L10.979248046875 7.136601562500001L11.893310546875 2.293339843750001H16.609619140625V3.962773437500001H13.245361328125L12.966064453125 5.543339843750001Q13.562744140625 5.245000000000001 14.184814453125 5.245000000000001Q15.371826171875 5.245000000000001 16.197021484375 6.108281250000001Q17.022216796875 6.971562500000001 17.022216796875 8.349003906250001Q17.022216796875 9.497929687500001 16.355712890625 10.399296875000001Q15.447998046875 11.630742187500001 13.835693359375 11.630742187500001Q12.547119140625 11.630742187500001 11.734619140625 10.938847656250001Q10.922119140625 10.246953125000001 10.763427734375 9.078984375000001Z" /></g></svg>