<?xml version="1.0" encoding="utf-8" ?>
<svg baseProfile="full" height="17" version="1.1" width="21" xmlns="http://www.w3.org/2000/svg" xmlns:ev="http://www.w3.org/2001/xml-events" xmlns:xlink="http://www.w3.org/1999/xlink"><defs /><path d="M 0.4,0.4 L 20.6,0.4 L 10.5,16.6 Z" fill="#f4da6f" stroke="black" stroke-linejoin="round" stroke-width="0.8" /><g fill="black"><path d="M11.25537109375 8.339303385416667H9.63671875Q9.63037109375 7.990182291666667 9.63037109375 7.914010416666667Q9.63037109375 7.126901041666667 9.890625 6.619088541666667Q10.15087890625 6.111276041666667 10.931640625 5.476510416666667Q11.71240234375 4.841744791666667 11.86474609375 4.644967447916667Q12.099609375 4.333932291666667 12.099609375 3.9594205729166667Q12.099609375 3.4389127604166667 11.683837890625 3.0675748697916667Q11.26806640625 2.6962369791666667 10.5634765625 2.6962369791666667Q9.88427734375 2.6962369791666667 9.42724609375 3.0834440104166667Q8.97021484375 3.4706510416666667 8.798828125 4.264108072916667L7.1611328125 4.060983072916667Q7.23095703125 2.9247526041666667 8.129150390625 2.1312955729166667Q9.02734375 1.3378385416666667 10.4873046875 1.3378385416666667Q12.0234375 1.3378385416666667 12.93115234375 2.1408170572916667Q13.8388671875 2.9437955729166667 13.8388671875 4.010201822916667Q13.8388671875 4.600533854166667 13.505615234375 5.127389322916667Q13.17236328125 5.654244791666667 12.08056640625 6.561959635416667Q11.515625 7.031686197916667 11.379150390625 7.317330729166667Q11.24267578125 7.602975260416667 11.25537109375 8.339303385416667ZM9.63671875 10.738717447916667V8.955026041666667H11.42041015625V10.738717447916667Z" /></g></svg>