<?xml version="1.0" encoding="utf-8" ?>
<svg baseProfile="full" height="17" version="1.1" width="21" xmlns="http://www.w3.org/2000/svg" xmlns:ev="http://www.w3.org/2001/xml-events" xmlns:xlink="http://www.w3.org/1999/xlink"><defs /><path d="M 0.4,0.4 L 20.6,0.4 L 10.5,16.6 Z" fill="#f4da6f" stroke="black" stroke-linejoin="round" stroke-width="0.8" /><g fill="black"><path d="M9.03115234375 9.450709635416667H7.521875V3.7627213541666666Q6.6947265625 4.536158854166667 5.57216796875 4.906764322916667V3.5371354166666666Q6.16298828125 3.3437760416666666 6.855859375 2.8039811197916666Q7.54873046875 2.2641861979166666 7.80654296875 1.5444596354166666H9.03115234375Z" /><path d="M12.07119140625 1.5444596354166666Q13.215234375 1.5444596354166666 13.859765625 2.3608658854166666Q14.62783203125 3.3276627604166666 14.62783203125 5.567408854166667Q14.62783203125 7.801783854166667 13.85439453125 8.779322916666667Q13.215234375 9.584986979166667 12.07119140625 9.584986979166667Q10.92177734375 9.584986979166667 10.2181640625 8.701442057291667Q9.51455078125 7.817897135416667 9.51455078125 5.551295572916667Q9.51455078125 3.3276627604166666 10.28798828125 2.3501236979166666Q10.9271484375 1.5444596354166666 12.07119140625 1.5444596354166666ZM12.07119140625 2.7959244791666666Q11.797265625 2.7959244791666666 11.582421875 2.9704850260416666Q11.367578125 3.1450455729166666 11.2494140625 3.5962174479166666Q11.09365234375 4.181666666666667 11.09365234375 5.567408854166667Q11.09365234375 6.953151041666667 11.23330078125 7.471461588541667Q11.37294921875 7.989772135416667 11.585107421875 8.161647135416667Q11.797265625 8.333522135416667 12.07119140625 8.333522135416667Q12.3451171875 8.333522135416667 12.5599609375 8.158961588541667Q12.7748046875 7.984401041666667 12.89296875 7.533229166666667Q13.04873046875 6.953151041666667 13.04873046875 5.567408854166667Q13.04873046875 4.181666666666667 12.90908203125 3.6633561197916666Q12.76943359375 3.1450455729166666 12.557275390625 2.9704850260416666Q12.3451171875 2.7959244791666666 12.07119140625 2.7959244791666666Z" /></g></svg>