<?xml version="1.0" encoding="utf-8" ?>
<svg baseProfile="full" height="17" version="1.1" width="21" xmlns="http://www.w3.org/2000/svg" xmlns:ev="http://www.w3.org/2001/xml-events" xmlns:xlink="http://www.w3.org/1999/xlink"><defs /><path d="M 0.4,0.4 L 20.6,0.4 L 10.5,16.6 Z" fill="#f4da6f" stroke="black" stroke-linejoin="round" stroke-width="0.8" /><g fill="black"><path d="M8.542529296875 9.450709635416667H7.033251953124999V3.7627213541666666Q6.206103515624999 4.536158854166667 5.083544921874999 4.906764322916667V3.5371354166666666Q5.674365234374999 3.3437760416666666 6.367236328124999 2.8039811197916666Q7.060107421874999 2.2641861979166666 7.317919921874999 1.5444596354166666H8.542529296875Z" /><path d="M14.316455078125 8.048854166666667V9.450709635416667H9.025927734375Q9.111865234375 8.655787760416667 9.541552734375 7.944117838541667Q9.971240234375 7.232447916666667 11.238818359375 6.056178385416667Q12.259326171875 5.105494791666667 12.490283203125 4.767115885416667Q12.801806640625 4.299830729166667 12.801806640625 3.8432877604166666Q12.801806640625 3.3384049479166666 12.53056640625 3.0671647135416666Q12.259326171875 2.7959244791666666 11.781298828125 2.7959244791666666Q11.308642578125 2.7959244791666666 11.029345703125 3.0805924479166666Q10.750048828125 3.3652604166666666 10.707080078125 4.025904947916667L9.203173828125 3.8755143229166666Q9.337451171875 2.6294205729166666 10.046435546875 2.0869401041666666Q10.755419921875 1.5444596354166666 11.818896484375 1.5444596354166666Q12.984423828125 1.5444596354166666 13.650439453125 2.1728776041666666Q14.316455078125 2.8012955729166666 14.316455078125 3.7358658854166666Q14.316455078125 4.267604166666667 14.12578125 4.748317057291667Q13.935107421875 5.229029947916667 13.521533203125 5.755397135416667Q13.247607421875 6.104518229166667 12.533251953125 6.759791666666667Q11.818896484375 7.415065104166667 11.62822265625 7.629908854166667Q11.437548828125 7.844752604166667 11.319384765625 8.048854166666667Z" /></g></svg>