<?xml version="1.0" encoding="utf-8" ?>
<svg baseProfile="full" height="17" version="1.1" width="21" xmlns="http://www.w3.org/2000/svg" xmlns:ev="http://www.w3.org/2001/xml-events" xmlns:xlink="http://www.w3.org/1999/xlink"><defs /><path d="M 0.4,0.4 L 20.6,0.4 L 10.5,16.6 Z" fill="#f4da6f" stroke="black" stroke-linejoin="round" stroke-width="0.8" /><g fill="black"><path d="M8.9720703125 9.450709635416667H7.46279296875V3.7627213541666666Q6.63564453125 4.536158854166667 5.5130859375 4.906764322916667V3.5371354166666666Q6.10390625 3.3437760416666666 6.79677734375 2.8039811197916666Q7.4896484375 2.2641861979166666 7.7474609375 1.5444596354166666H8.9720703125Z" /><path d="M9.45546875 7.361354166666667 10.91640625 7.184108072916667Q10.98623046875 7.742701822916667 11.2923828125 8.038111979166667Q11.59853515625 8.333522135416667 12.03359375 8.333522135416667Q12.50087890625 8.333522135416667 12.820458984375 7.979029947916667Q13.1400390625 7.624537760416667 13.1400390625 7.022975260416667Q13.1400390625 6.453639322916667 12.83388671875 6.120631510416667Q12.527734375 5.787623697916667 12.0873046875 5.787623697916667Q11.797265625 5.787623697916667 11.39443359375 5.900416666666667L11.5609375 4.670436197916667Q12.1732421875 4.686549479166667 12.4955078125 4.404567057291667Q12.8177734375 4.122584635416667 12.8177734375 3.6552994791666666Q12.8177734375 3.2578385416666666 12.5814453125 3.0215104166666666Q12.3451171875 2.7851822916666666 11.95302734375 2.7851822916666666Q11.56630859375 2.7851822916666666 11.2923828125 3.0537369791666666Q11.01845703125 3.3222916666666666 10.959375 3.8379166666666666L9.56826171875 3.6015885416666666Q9.71328125 2.8872330729166666 10.006005859375 2.4602311197916666Q10.29873046875 2.0332291666666666 10.822412109375 1.7888444010416666Q11.34609375 1.5444596354166666 11.99599609375 1.5444596354166666Q13.1078125 1.5444596354166666 13.77919921875 2.2534440104166666Q14.332421875 2.8335221354166666 14.332421875 3.5639908854166666Q14.332421875 4.600611979166667 13.19912109375 5.218287760416667Q13.87587890625 5.363307291666667 14.281396484375 5.868190104166667Q14.6869140625 6.373072916666667 14.6869140625 7.087428385416667Q14.6869140625 8.124049479166667 13.92958984375 8.854518229166667Q13.172265625 9.584986979166667 12.0443359375 9.584986979166667Q10.97548828125 9.584986979166667 10.271875 8.969996744791667Q9.56826171875 8.355006510416667 9.45546875 7.361354166666667Z" /></g></svg>