<?xml version="1.0" encoding="utf-8" ?>
<svg baseProfile="full" height="17" version="1.1" width="21" xmlns="http://www.w3.org/2000/svg" xmlns:ev="http://www.w3.org/2001/xml-events" xmlns:xlink="http://www.w3.org/1999/xlink"><defs /><path d="M 0.4,0.4 L 20.6,0.4 L 10.5,16.6 Z" fill="#f4da6f" stroke="black" stroke-linejoin="round" stroke-width="0.8" /><g fill="black"><path d="M8.93984375 9.450709635416667H7.43056640625V3.7627213541666666Q6.60341796875 4.536158854166667 5.480859375 4.906764322916667V3.5371354166666666Q6.0716796875 3.3437760416666666 6.76455078125 2.8039811197916666Q7.457421875 2.2641861979166666 7.715234375 1.5444596354166666H8.93984375Z" /><path d="M9.4232421875 7.425807291666667 10.9271484375 7.270045572916667Q10.9916015625 7.780299479166667 11.30849609375 8.078395182291667Q11.625390625 8.376490885416667 12.03896484375 8.376490885416667Q12.51162109375 8.376490885416667 12.8392578125 7.992457682291667Q13.16689453125 7.608424479166667 13.16689453125 6.834986979166667Q13.16689453125 6.109889322916667 12.841943359375 5.747340494791667Q12.5169921875 5.384791666666667 11.99599609375 5.384791666666667Q11.34609375 5.384791666666667 10.83046875 5.959498697916667L9.605859375 5.782252604166667L10.379296875 1.6841080729166666H14.37001953125V3.0967057291666666H11.52333984375L11.28701171875 4.434108072916667Q11.79189453125 4.181666666666667 12.31826171875 4.181666666666667Q13.32265625 4.181666666666667 14.0208984375 4.912135416666667Q14.719140625 5.642604166666667 14.719140625 6.808131510416667Q14.719140625 7.780299479166667 14.15517578125 8.542994791666667Q13.387109375 9.584986979166667 12.0228515625 9.584986979166667Q10.93251953125 9.584986979166667 10.24501953125 8.999537760416667Q9.55751953125 8.414088541666667 9.4232421875 7.425807291666667Z" /></g></svg>