<?xml version="1.0" encoding="utf-8" ?>
<svg baseProfile="full" height="17" version="1.1" width="21" xmlns="http://www.w3.org/2000/svg" xmlns:ev="http://www.w3.org/2001/xml-events" xmlns:xlink="http://www.w3.org/1999/xlink"><defs /><path d="M 0.4,0.4 L 20.6,0.4 L 10.5,16.6 Z" fill="#f4da6f" stroke="black" stroke-linejoin="round" stroke-width="0.8" /><g fill="black"><path d="M8.958642578125 9.450709635416667H7.449365234375V3.7627213541666666Q6.622216796875 4.536158854166667 5.499658203125 4.906764322916667V3.5371354166666666Q6.090478515625 3.3437760416666666 6.783349609375 2.8039811197916666Q7.476220703125 2.2641861979166666 7.734033203125 1.5444596354166666H8.958642578125Z" /><path d="M14.555322265625 3.5049088541666666 13.094384765625 3.6660416666666666Q13.040673828125 3.2148697916666666 12.815087890625 3.0000260416666666Q12.589501953125 2.7851822916666666 12.229638671875 2.7851822916666666Q11.751611328125 2.7851822916666666 11.4212890625 3.2148697916666666Q11.090966796875 3.6445572916666666 11.005029296875 5.003444010416667Q11.568994140625 4.337428385416667 12.406884765625 4.337428385416667Q13.352197265625 4.337428385416667 14.02626953125 5.057154947916667Q14.700341796875 5.776881510416667 14.700341796875 6.915553385416667Q14.700341796875 8.124049479166667 13.991357421875 8.854518229166667Q13.282373046875 9.584986979166667 12.170556640625 9.584986979166667Q10.978173828125 9.584986979166667 10.210107421875 8.658473307291667Q9.442041015625 7.731959635416667 9.442041015625 5.621119791666667Q9.442041015625 3.4565690104166666 10.242333984375 2.5005143229166666Q11.042626953125 1.5444596354166666 12.320947265625 1.5444596354166666Q13.217919921875 1.5444596354166666 13.8060546875 2.0466569010416666Q14.394189453125 2.5488541666666666 14.555322265625 3.5049088541666666ZM11.133935546875 6.797389322916667Q11.133935546875 7.533229166666667 11.472314453125 7.933375651041667Q11.810693359375 8.333522135416667 12.245751953125 8.333522135416667Q12.664697265625 8.333522135416667 12.943994140625 8.005885416666667Q13.223291015625 7.678248697916667 13.223291015625 6.931666666666667Q13.223291015625 6.163600260416667 12.922509765625 5.806422526041667Q12.621728515625 5.449244791666667 12.170556640625 5.449244791666667Q11.735498046875 5.449244791666667 11.434716796875 5.790309244791667Q11.133935546875 6.131373697916667 11.133935546875 6.797389322916667Z" /></g></svg>