<?xml version="1.0" encoding="utf-8" ?>
<svg baseProfile="full" height="17" version="1.1" width="21" xmlns="http://www.w3.org/2000/svg" xmlns:ev="http://www.w3.org/2001/xml-events" xmlns:xlink="http://www.w3.org/1999/xlink"><defs /><path d="M 0.4,0.4 L 20.6,0.4 L 10.5,16.6 Z" fill="#f4da6f" stroke="black" stroke-linejoin="round" stroke-width="0.8" /><g fill="black"><path d="M13.626220703125 9.081979166666667V10.738717447916667H7.373779296875Q7.475341796875 9.799264322916667 7.983154296875 8.958199869791667Q8.490966796875 8.117135416666667 9.989013671875 6.726998697916667Q11.195068359375 5.603463541666667 11.468017578125 5.203561197916667Q11.836181640625 4.651315104166667 11.836181640625 4.111764322916667Q11.836181640625 3.5150846354166667 11.515625 3.1945279947916667Q11.195068359375 2.8739713541666667 10.630126953125 2.8739713541666667Q10.071533203125 2.8739713541666667 9.741455078125 3.2103971354166667Q9.411376953125 3.5468229166666667 9.360595703125 4.327584635416667L7.583251953125 4.149850260416667Q7.741943359375 2.6771940104166667 8.579833984375 2.0360807291666667Q9.417724609375 1.3949674479166667 10.674560546875 1.3949674479166667Q12.052001953125 1.3949674479166667 12.839111328125 2.1376432291666667Q13.626220703125 2.8803190104166667 13.626220703125 3.9848111979166667Q13.626220703125 4.613229166666667 13.40087890625 5.181344401041667Q13.175537109375 5.749459635416667 12.686767578125 6.371529947916667Q12.363037109375 6.784127604166667 11.518798828125 7.558541666666667Q10.674560546875 8.332955729166667 10.44921875 8.586861979166667Q10.223876953125 8.840768229166667 10.084228515625 9.081979166666667Z" /></g></svg>