<?xml version="1.0" encoding="utf-8" ?>
<svg baseProfile="full" height="17" version="1.1" width="21" xmlns="http://www.w3.org/2000/svg" xmlns:ev="http://www.w3.org/2001/xml-events" xmlns:xlink="http://www.w3.org/1999/xlink"><defs /><path d="M 0.4,0.4 L 20.6,0.4 L 10.5,16.6 Z" fill="#f4da6f" stroke="black" stroke-linejoin="round" stroke-width="0.8" /><g fill="black"><path d="M7.40869140625 8.269479166666667 9.13525390625 8.060006510416667Q9.2177734375 8.720162760416667 9.57958984375 9.069283854166667Q9.94140625 9.418404947916667 10.45556640625 9.418404947916667Q11.0078125 9.418404947916667 11.385498046875 8.999459635416667Q11.76318359375 8.580514322916667 11.76318359375 7.869576822916667Q11.76318359375 7.196725260416667 11.4013671875 6.803170572916667Q11.03955078125 6.409615885416667 10.51904296875 6.409615885416667Q10.17626953125 6.409615885416667 9.7001953125 6.542916666666667L9.89697265625 5.089303385416667Q10.62060546875 5.108346354166667 11.00146484375 4.775094401041667Q11.38232421875 4.441842447916667 11.38232421875 3.8895963541666667Q11.38232421875 3.4198697916666667 11.10302734375 3.1405729166666667Q10.82373046875 2.8612760416666667 10.3603515625 2.8612760416666667Q9.9033203125 2.8612760416666667 9.57958984375 3.1786588541666667Q9.255859375 3.4960416666666667 9.18603515625 4.105416666666667L7.5419921875 3.8261197916666667Q7.71337890625 2.9818815104166667 8.059326171875 2.4772428385416667Q8.4052734375 1.9726041666666667 9.024169921875 1.6837858072916667Q9.64306640625 1.3949674479166667 10.4111328125 1.3949674479166667Q11.72509765625 1.3949674479166667 12.5185546875 2.2328580729166667Q13.17236328125 2.9184049479166667 13.17236328125 3.7816861979166667Q13.17236328125 5.006783854166667 11.8330078125 5.736764322916667Q12.6328125 5.908151041666667 13.112060546875 6.504830729166667Q13.59130859375 7.101510416666667 13.59130859375 7.945748697916667Q13.59130859375 9.170846354166667 12.6962890625 10.034127604166667Q11.80126953125 10.897408854166667 10.46826171875 10.897408854166667Q9.205078125 10.897408854166667 8.37353515625 10.170602213541667Q7.5419921875 9.443795572916667 7.40869140625 8.269479166666667Z" /></g></svg>