<?xml version="1.0" encoding="utf-8" ?>
<svg baseProfile="full" height="17" version="1.1" width="21" xmlns="http://www.w3.org/2000/svg" xmlns:ev="http://www.w3.org/2001/xml-events" xmlns:xlink="http://www.w3.org/1999/xlink"><defs /><path d="M 0.4,0.4 L 20.6,0.4 L 10.5,16.6 Z" fill="#f4da6f" stroke="black" stroke-linejoin="round" stroke-width="0.8" /><g fill="black"><path d="M7.37060546875 8.345651041666667 9.14794921875 8.161569010416667Q9.22412109375 8.764596354166667 9.5986328125 9.116891276041667Q9.97314453125 9.469186197916667 10.4619140625 9.469186197916667Q11.0205078125 9.469186197916667 11.40771484375 9.015328776041667Q11.794921875 8.561471354166667 11.794921875 7.647408854166667Q11.794921875 6.790475260416667 11.410888671875 6.362008463541667Q11.02685546875 5.933541666666667 10.4111328125 5.933541666666667Q9.64306640625 5.933541666666667 9.03369140625 6.612740885416667L7.58642578125 6.403268229166667L8.50048828125 1.5600065104166667H13.216796875V3.2294401041666667H9.8525390625L9.5732421875 4.810006510416667Q10.169921875 4.511666666666667 10.7919921875 4.511666666666667Q11.97900390625 4.511666666666667 12.80419921875 5.374947916666667Q13.62939453125 6.238229166666667 13.62939453125 7.615670572916667Q13.62939453125 8.764596354166667 12.962890625 9.665963541666667Q12.05517578125 10.897408854166667 10.44287109375 10.897408854166667Q9.154296875 10.897408854166667 8.341796875 10.205514322916667Q7.529296875 9.513619791666667 7.37060546875 8.345651041666667Z" /></g></svg>