<?xml version="1.0" encoding="utf-8" ?>
<svg baseProfile="full" height="17" version="1.1" width="21" xmlns="http://www.w3.org/2000/svg" xmlns:ev="http://www.w3.org/2001/xml-events" xmlns:xlink="http://www.w3.org/1999/xlink"><defs /><path d="M 0.4,0.4 L 20.6,0.4 L 10.5,16.6 Z" fill="#f4da6f" stroke="black" stroke-linejoin="round" stroke-width="0.8" /><g fill="black"><path d="M13.435791015625 3.7118619791666667 11.709228515625 3.9022916666666667Q11.645751953125 3.3690885416666667 11.379150390625 3.1151822916666667Q11.112548828125 2.8612760416666667 10.687255859375 2.8612760416666667Q10.122314453125 2.8612760416666667 9.73193359375 3.3690885416666667Q9.341552734375 3.8769010416666667 9.239990234375 5.482858072916667Q9.906494140625 4.695748697916667 10.896728515625 4.695748697916667Q12.013916015625 4.695748697916667 12.810546875 5.546334635416667Q13.607177734375 6.396920572916667 13.607177734375 7.742623697916667Q13.607177734375 9.170846354166667 12.769287109375 10.034127604166667Q11.931396484375 10.897408854166667 10.617431640625 10.897408854166667Q9.208251953125 10.897408854166667 8.300537109375 9.802438151041667Q7.392822265625 8.707467447916667 7.392822265625 6.212838541666667Q7.392822265625 3.6547330729166667 8.338623046875 2.5248502604166667Q9.284423828125 1.3949674479166667 10.795166015625 1.3949674479166667Q11.855224609375 1.3949674479166667 12.55029296875 1.9884733072916667Q13.245361328125 2.5819791666666667 13.435791015625 3.7118619791666667ZM9.392333984375 7.602975260416667Q9.392333984375 8.472604166666667 9.792236328125 8.945504557291667Q10.192138671875 9.418404947916667 10.706298828125 9.418404947916667Q11.201416015625 9.418404947916667 11.531494140625 9.031197916666667Q11.861572265625 8.643990885416667 11.861572265625 7.761666666666667Q11.861572265625 6.853951822916667 11.506103515625 6.431832682291667Q11.150634765625 6.009713541666667 10.617431640625 6.009713541666667Q10.103271484375 6.009713541666667 9.747802734375 6.412789713541667Q9.392333984375 6.815865885416667 9.392333984375 7.602975260416667Z" /></g></svg>