<?xml version="1.0" encoding="utf-8" ?>
<svg baseProfile="full" height="17" version="1.1" width="21" xmlns="http://www.w3.org/2000/svg" xmlns:ev="http://www.w3.org/2001/xml-events" xmlns:xlink="http://www.w3.org/1999/xlink"><defs /><path d="M 0.4,0.4 L 20.6,0.4 L 10.5,16.6 Z" fill="#f4da6f" stroke="black" stroke-linejoin="round" stroke-width="0.8" /><g fill="black"><path d="M8.99560546875 5.717721354166667Q8.3037109375 5.425729166666667 7.989501953125 4.914742838541667Q7.67529296875 4.403756510416667 7.67529296875 3.7943815104166667Q7.67529296875 2.7533658854166667 8.402099609375 2.0741666666666667Q9.12890625 1.3949674479166667 10.46826171875 1.3949674479166667Q11.794921875 1.3949674479166667 12.528076171875 2.0741666666666667Q13.26123046875 2.7533658854166667 13.26123046875 3.7943815104166667Q13.26123046875 4.441842447916667 12.9248046875 4.946481119791667Q12.58837890625 5.451119791666667 11.97900390625 5.717721354166667Q12.75341796875 6.028756510416667 13.156494140625 6.625436197916667Q13.5595703125 7.222115885416667 13.5595703125 8.002877604166667Q13.5595703125 9.291451822916667 12.737548828125 10.097604166666667Q11.91552734375 10.903756510416667 10.55078125 10.903756510416667Q9.28125 10.903756510416667 8.43701171875 10.237252604166667Q7.4404296875 9.450143229166667 7.4404296875 8.079049479166667Q7.4404296875 7.323678385416667 7.81494140625 6.692086588541667Q8.189453125 6.060494791666667 8.99560546875 5.717721354166667ZM9.36376953125 3.9213346354166667Q9.36376953125 4.454537760416667 9.665283203125 4.752877604166667Q9.966796875 5.051217447916667 10.46826171875 5.051217447916667Q10.97607421875 5.051217447916667 11.28076171875 4.749703776041667Q11.58544921875 4.448190104166667 11.58544921875 3.9149869791666667Q11.58544921875 3.4135221354166667 11.283935546875 3.1120084635416667Q10.982421875 2.8104947916666667 10.4873046875 2.8104947916666667Q9.97314453125 2.8104947916666667 9.66845703125 3.1151822916666667Q9.36376953125 3.4198697916666667 9.36376953125 3.9213346354166667ZM9.19873046875 7.907662760416667Q9.19873046875 8.643990885416667 9.576416015625 9.056588541666667Q9.9541015625 9.469186197916667 10.51904296875 9.469186197916667Q11.0712890625 9.469186197916667 11.43310546875 9.072457682291667Q11.794921875 8.675729166666667 11.794921875 7.926705729166667Q11.794921875 7.272897135416667 11.4267578125 6.876168619791667Q11.05859375 6.479440104166667 10.49365234375 6.479440104166667Q9.83984375 6.479440104166667 9.519287109375 6.930123697916667Q9.19873046875 7.380807291666667 9.19873046875 7.907662760416667Z" /></g></svg>