<?xml version="1.0" encoding="utf-8" ?>
<svg baseProfile="full" height="17" version="1.1" width="21" xmlns="http://www.w3.org/2000/svg" xmlns:ev="http://www.w3.org/2001/xml-events" xmlns:xlink="http://www.w3.org/1999/xlink"><defs /><path d="M 0.4,0.4 L 20.6,0.4 L 10.5,16.6 Z" fill="#f4da6f" stroke="black" stroke-linejoin="round" stroke-width="0.8" /><g fill="black"><path d="M7.570556640625 8.586861979166667 9.297119140625 8.396432291666667Q9.360595703125 8.923287760416667 9.627197265625 9.177194010416667Q9.893798828125 9.431100260416667 10.331787109375 9.431100260416667Q10.884033203125 9.431100260416667 11.271240234375 8.923287760416667Q11.658447265625 8.415475260416667 11.766357421875 6.815865885416667Q11.093505859375 7.596627604166667 10.084228515625 7.596627604166667Q8.986083984375 7.596627604166667 8.189453125 6.749215494791667Q7.392822265625 5.901803385416667 7.392822265625 4.543404947916667Q7.392822265625 3.1278776041666667 8.23388671875 2.2614225260416667Q9.074951171875 1.3949674479166667 10.376220703125 1.3949674479166667Q11.791748046875 1.3949674479166667 12.699462890625 2.4899381510416667Q13.607177734375 3.5849088541666667 13.607177734375 6.092233072916667Q13.607177734375 8.643990885416667 12.661376953125 9.773873697916667Q11.715576171875 10.903756510416667 10.198486328125 10.903756510416667Q9.106689453125 10.903756510416667 8.433837890625 10.322945963541667Q7.760986328125 9.742135416666667 7.570556640625 8.586861979166667ZM11.607666015625 4.689401041666667Q11.607666015625 3.8261197916666667 11.2109375 3.3500455729166667Q10.814208984375 2.8739713541666667 10.293701171875 2.8739713541666667Q9.798583984375 2.8739713541666667 9.4716796875 3.2643522135416667Q9.144775390625 3.6547330729166667 9.144775390625 4.543404947916667Q9.144775390625 5.444772135416667 9.500244140625 5.866891276041667Q9.855712890625 6.289010416666667 10.388916015625 6.289010416666667Q10.903076171875 6.289010416666667 11.25537109375 5.882760416666667Q11.607666015625 5.476510416666667 11.607666015625 4.689401041666667Z" /></g></svg>