<?xml version="1.0" encoding="utf-8" ?>
<svg baseProfile="full" height="14" version="1.1" width="21" xmlns="http://www.w3.org/2000/svg" xmlns:ev="http://www.w3.org/2001/xml-events" xmlns:xlink="http://www.w3.org/1999/xlink"><defs /><rect fill="black" height="14" width="21" x="0" y="0" /><rect fill="white" height="12.4" width="15" x="3" y="0.8" /><circle cx="1.5" cy="3.5" fill="white" r="1.0" /><circle cx="1.5" cy="7.0" fill="white" r="1.0" /><circle cx="1.5" cy="10.5" fill="white" r="1.0" /><circle cx="19.5" cy="3.5" fill="white" r="1.0" /><circle cx="19.5" cy="7.0" fill="white" r="1.0" /><circle cx="19.5" cy="10.5" fill="white" r="1.0" /><g fill="black"><path d="M11.25537109375 9.072636718750001H9.63671875Q9.63037109375 8.723515625000001 9.63037109375 8.647343750000001Q9.63037109375 7.860234375000001 9.890625 7.352421875000001Q10.15087890625 6.844609375000001 10.931640625 6.209843750000001Q11.71240234375 5.575078125000001 11.86474609375 5.378300781250001Q12.099609375 5.067265625000001 12.099609375 4.692753906250001Q12.099609375 4.172246093750001 11.683837890625 3.800908203125001Q11.26806640625 3.429570312500001 10.5634765625 3.429570312500001Q9.88427734375 3.429570312500001 9.42724609375 3.816777343750001Q8.97021484375 4.203984375000001 8.798828125 4.997441406250001L7.1611328125 4.794316406250001Q7.23095703125 3.658085937500001 8.129150390625 2.864628906250001Q9.02734375 2.071171875000001 10.4873046875 2.071171875000001Q12.0234375 2.071171875000001 12.93115234375 2.874150390625001Q13.8388671875 3.677128906250001 13.8388671875 4.743535156250001Q13.8388671875 5.333867187500001 13.505615234375 5.860722656250001Q13.17236328125 6.387578125000001 12.08056640625 7.295292968750001Q11.515625 7.765019531250001 11.379150390625 8.050664062500001Q11.24267578125 8.336308593750001 11.25537109375 9.072636718750001ZM9.63671875 11.472050781250001V9.688359375000001H11.42041015625V11.472050781250001Z" /></g></svg>