<?xml version="1.0" encoding="utf-8" ?>
<svg baseProfile="full" height="14" version="1.1" width="21" xmlns="http://www.w3.org/2000/svg" xmlns:ev="http://www.w3.org/2001/xml-events" xmlns:xlink="http://www.w3.org/1999/xlink"><defs /><rect fill="black" height="14" width="21" x="0" y="0" /><rect fill="white" height="12.4" width="15" x="3" y="0.8" /><circle cx="1.5" cy="3.5" fill="white" r="1.0" /><circle cx="1.5" cy="7.0" fill="white" r="1.0" /><circle cx="1.5" cy="10.5" fill="white" r="1.0" /><circle cx="19.5" cy="3.5" fill="white" r="1.0" /><circle cx="19.5" cy="7.0" fill="white" r="1.0" /><circle cx="19.5" cy="10.5" fill="white" r="1.0" /><g fill="black"><path d="M6.984375 10.4400390625H5.6123046875V5.269140625Q4.8603515625 5.972265625 3.83984375 6.3091796875V5.0640625Q4.376953125 4.88828125 5.0068359375 4.39755859375Q5.63671875 3.9068359375000004 5.87109375 3.2525390625000004H6.984375Z" /><path d="M9.748046875 3.2525390625000004Q10.7880859375 3.2525390625000004 11.3740234375 3.9947265625000004Q12.072265625 4.8736328125 12.072265625 6.909765625Q12.072265625 8.941015625 11.369140625 9.8296875Q10.7880859375 10.562109375 9.748046875 10.562109375Q8.703125 10.562109375 8.0634765625 9.75888671875Q7.423828125 8.9556640625 7.423828125 6.8951171875Q7.423828125 4.8736328125 8.126953125 3.9849609375000004Q8.7080078125 3.2525390625000004 9.748046875 3.2525390625000004ZM9.748046875 4.390234375Q9.4990234375 4.390234375 9.3037109375 4.54892578125Q9.1083984375 4.7076171875 9.0009765625 5.1177734375Q8.859375 5.65 8.859375 6.909765625Q8.859375 8.16953125 8.986328125 8.64072265625Q9.11328125 9.1119140625 9.30615234375 9.2681640625Q9.4990234375 9.4244140625 9.748046875 9.4244140625Q9.9970703125 9.4244140625 10.1923828125 9.26572265625Q10.3876953125 9.10703125 10.4951171875 8.696875Q10.63671875 8.16953125 10.63671875 6.909765625Q10.63671875 5.65 10.509765625 5.17880859375Q10.3828125 4.7076171875 10.18994140625 4.54892578125Q9.9970703125 4.390234375 9.748046875 4.390234375Z" /><path d="M14.8359375 3.2525390625000004Q15.8759765625 3.2525390625000004 16.4619140625 3.9947265625000004Q17.16015625 4.8736328125 17.16015625 6.909765625Q17.16015625 8.941015625 16.45703125 9.8296875Q15.8759765625 10.562109375 14.8359375 10.562109375Q13.791015625 10.562109375 13.1513671875 9.75888671875Q12.51171875 8.9556640625 12.51171875 6.8951171875Q12.51171875 4.8736328125 13.21484375 3.9849609375000004Q13.7958984375 3.2525390625000004 14.8359375 3.2525390625000004ZM14.8359375 4.390234375Q14.5869140625 4.390234375 14.3916015625 4.54892578125Q14.1962890625 4.7076171875 14.0888671875 5.1177734375Q13.947265625 5.65 13.947265625 6.909765625Q13.947265625 8.16953125 14.07421875 8.64072265625Q14.201171875 9.1119140625 14.39404296875 9.2681640625Q14.5869140625 9.4244140625 14.8359375 9.4244140625Q15.0849609375 9.4244140625 15.2802734375 9.26572265625Q15.4755859375 9.10703125 15.5830078125 8.696875Q15.724609375 8.16953125 15.724609375 6.909765625Q15.724609375 5.65 15.59765625 5.17880859375Q15.470703125 4.7076171875 15.27783203125 4.54892578125Q15.0849609375 4.390234375 14.8359375 4.390234375Z" /></g></svg>