<?xml version="1.0" encoding="utf-8" ?>
<svg baseProfile="full" height="14" version="1.1" width="21" xmlns="http://www.w3.org/2000/svg" xmlns:ev="http://www.w3.org/2001/xml-events" xmlns:xlink="http://www.w3.org/1999/xlink"><defs /><rect fill="black" height="14" width="21" x="0" y="0" /><rect fill="white" height="12.4" width="15" x="3" y="0.8" /><circle cx="1.5" cy="3.5" fill="white" r="1.0" /><circle cx="1.5" cy="7.0" fill="white" r="1.0" /><circle cx="1.5" cy="10.5" fill="white" r="1.0" /><circle cx="19.5" cy="3.5" fill="white" r="1.0" /><circle cx="19.5" cy="7.0" fill="white" r="1.0" /><circle cx="19.5" cy="10.5" fill="white" r="1.0" /><g fill="black"><path d="M6.9013671875 10.4400390625H5.529296875V5.269140625Q4.77734375 5.972265625 3.7568359375 6.3091796875V5.0640625Q4.2939453125 4.88828125 4.923828125 4.39755859375Q5.5537109375 3.9068359375000004 5.7880859375 3.2525390625000004H6.9013671875Z" /><path d="M9.6650390625 3.2525390625000004Q10.705078125 3.2525390625000004 11.291015625 3.9947265625000004Q11.9892578125 4.8736328125 11.9892578125 6.909765625Q11.9892578125 8.941015625 11.2861328125 9.8296875Q10.705078125 10.562109375 9.6650390625 10.562109375Q8.6201171875 10.562109375 7.98046875 9.75888671875Q7.3408203125 8.9556640625 7.3408203125 6.8951171875Q7.3408203125 4.8736328125 8.0439453125 3.9849609375000004Q8.625 3.2525390625000004 9.6650390625 3.2525390625000004ZM9.6650390625 4.390234375Q9.416015625 4.390234375 9.220703125 4.54892578125Q9.025390625 4.7076171875 8.91796875 5.1177734375Q8.7763671875 5.65 8.7763671875 6.909765625Q8.7763671875 8.16953125 8.9033203125 8.64072265625Q9.0302734375 9.1119140625 9.22314453125 9.2681640625Q9.416015625 9.4244140625 9.6650390625 9.4244140625Q9.9140625 9.4244140625 10.109375 9.26572265625Q10.3046875 9.10703125 10.412109375 8.696875Q10.5537109375 8.16953125 10.5537109375 6.909765625Q10.5537109375 5.65 10.4267578125 5.17880859375Q10.2998046875 4.7076171875 10.10693359375 4.54892578125Q9.9140625 4.390234375 9.6650390625 4.390234375Z" /><path d="M12.4287109375 8.59921875 13.7958984375 8.4576171875Q13.8544921875 8.921484375 14.142578125 9.19248046875Q14.4306640625 9.4634765625 14.806640625 9.4634765625Q15.236328125 9.4634765625 15.5341796875 9.11435546875Q15.83203125 8.765234375 15.83203125 8.062109375Q15.83203125 7.4029296875 15.53662109375 7.07333984375Q15.2412109375 6.74375 14.767578125 6.74375Q14.1767578125 6.74375 13.7080078125 7.2662109375L12.5947265625 7.105078125L13.2978515625 3.3794921875000004H16.92578125V4.663671875H14.337890625L14.123046875 5.8794921875Q14.58203125 5.65 15.060546875 5.65Q15.9736328125 5.65 16.6083984375 6.3140625Q17.2431640625 6.978125 17.2431640625 8.0376953125Q17.2431640625 8.921484375 16.73046875 9.61484375Q16.0322265625 10.562109375 14.7919921875 10.562109375Q13.80078125 10.562109375 13.17578125 10.0298828125Q12.55078125 9.49765625 12.4287109375 8.59921875Z" /></g></svg>