<?xml version="1.0" encoding="utf-8" ?>
<svg baseProfile="full" height="14" version="1.1" width="21" xmlns="http://www.w3.org/2000/svg" xmlns:ev="http://www.w3.org/2001/xml-events" xmlns:xlink="http://www.w3.org/1999/xlink"><defs /><rect fill="black" height="14" width="21" x="0" y="0" /><rect fill="white" height="12.4" width="15" x="3" y="0.8" /><circle cx="1.5" cy="3.5" fill="white" r="1.0" /><circle cx="1.5" cy="7.0" fill="white" r="1.0" /><circle cx="1.5" cy="10.5" fill="white" r="1.0" /><circle cx="19.5" cy="3.5" fill="white" r="1.0" /><circle cx="19.5" cy="7.0" fill="white" r="1.0" /><circle cx="19.5" cy="10.5" fill="white" r="1.0" /><g fill="black"><path d="M8.5703125 11.472050781250001H6.78662109375V4.749882812500001Q5.80908203125 5.663945312500001 4.482421875 6.101933593750001V4.483281250000001Q5.1806640625 4.254765625000001 5.99951171875 3.616826171875001Q6.818359375 2.978886718750001 7.123046875 2.128300781250001H8.5703125Z" /><path d="M13.49609375 2.128300781250001Q14.84814453125 2.128300781250001 15.60986328125 3.093144531250001Q16.517578125 4.235722656250001 16.517578125 6.882695312500001Q16.517578125 9.523320312500001 15.603515625 10.678593750000001Q14.84814453125 11.630742187500001 13.49609375 11.630742187500001Q12.1376953125 11.630742187500001 11.30615234375 10.586552734375001Q10.474609375 9.542363281250001 10.474609375 6.863652343750001Q10.474609375 4.235722656250001 11.388671875 3.080449218750001Q12.14404296875 2.128300781250001 13.49609375 2.128300781250001ZM13.49609375 3.607304687500001Q13.17236328125 3.607304687500001 12.91845703125 3.813603515625001Q12.66455078125 4.019902343750001 12.52490234375 4.553105468750001Q12.3408203125 5.245000000000001 12.3408203125 6.882695312500001Q12.3408203125 8.520390625000001 12.505859375 9.132939453125001Q12.6708984375 9.745488281250001 12.921630859375 9.948613281250001Q13.17236328125 10.151738281250001 13.49609375 10.151738281250001Q13.81982421875 10.151738281250001 14.07373046875 9.945439453125001Q14.32763671875 9.739140625000001 14.46728515625 9.205937500000001Q14.6513671875 8.520390625000001 14.6513671875 6.882695312500001Q14.6513671875 5.245000000000001 14.486328125 4.632451171875001Q14.3212890625 4.019902343750001 14.070556640625 3.813603515625001Q13.81982421875 3.607304687500001 13.49609375 3.607304687500001Z" /></g></svg>