<?xml version="1.0" encoding="utf-8" ?>
<svg baseProfile="full" height="14" version="1.1" width="21" xmlns="http://www.w3.org/2000/svg" xmlns:ev="http://www.w3.org/2001/xml-events" xmlns:xlink="http://www.w3.org/1999/xlink"><defs /><rect fill="black" height="14" width="21" x="0" y="0" /><rect fill="white" height="12.4" width="15" x="3" y="0.8" /><circle cx="1.5" cy="3.5" fill="white" r="1.0" /><circle cx="1.5" cy="7.0" fill="white" r="1.0" /><circle cx="1.5" cy="10.5" fill="white" r="1.0" /><circle cx="19.5" cy="3.5" fill="white" r="1.0" /><circle cx="19.5" cy="7.0" fill="white" r="1.0" /><circle cx="19.5" cy="10.5" fill="white" r="1.0" /><g fill="black"><path d="M7.736328125 10.4400390625H6.3642578125V5.269140625Q5.6123046875 5.972265625 4.591796875 6.3091796875V5.0640625Q5.12890625 4.88828125 5.7587890625 4.39755859375Q6.388671875 3.9068359375000004 6.623046875 3.2525390625000004H7.736328125Z" /><path d="M11.3203125 10.4400390625H9.9482421875V5.269140625Q9.1962890625 5.972265625 8.17578125 6.3091796875V5.0640625Q8.712890625 4.88828125 9.3427734375 4.39755859375Q9.97265625 3.9068359375000004 10.20703125 3.2525390625000004H11.3203125Z" /><path d="M14.083984375 3.2525390625000004Q15.1240234375 3.2525390625000004 15.7099609375 3.9947265625000004Q16.408203125 4.8736328125 16.408203125 6.909765625Q16.408203125 8.941015625 15.705078125 9.8296875Q15.1240234375 10.562109375 14.083984375 10.562109375Q13.0390625 10.562109375 12.3994140625 9.75888671875Q11.759765625 8.9556640625 11.759765625 6.8951171875Q11.759765625 4.8736328125 12.462890625 3.9849609375000004Q13.0439453125 3.2525390625000004 14.083984375 3.2525390625000004ZM14.083984375 4.390234375Q13.8349609375 4.390234375 13.6396484375 4.54892578125Q13.4443359375 4.7076171875 13.3369140625 5.1177734375Q13.1953125 5.65 13.1953125 6.909765625Q13.1953125 8.16953125 13.322265625 8.64072265625Q13.44921875 9.1119140625 13.64208984375 9.2681640625Q13.8349609375 9.4244140625 14.083984375 9.4244140625Q14.3330078125 9.4244140625 14.5283203125 9.26572265625Q14.7236328125 9.10703125 14.8310546875 8.696875Q14.97265625 8.16953125 14.97265625 6.909765625Q14.97265625 5.65 14.845703125 5.17880859375Q14.71875 4.7076171875 14.52587890625 4.54892578125Q14.3330078125 4.390234375 14.083984375 4.390234375Z" /></g></svg>