<?xml version="1.0" encoding="utf-8" ?>
<svg baseProfile="full" height="14" version="1.1" width="21" xmlns="http://www.w3.org/2000/svg" xmlns:ev="http://www.w3.org/2001/xml-events" xmlns:xlink="http://www.w3.org/1999/xlink"><defs /><rect fill="black" height="14" width="21" x="0" y="0" /><rect fill="white" height="12.4" width="15" x="3" y="0.8" /><circle cx="1.5" cy="3.5" fill="white" r="1.0" /><circle cx="1.5" cy="7.0" fill="white" r="1.0" /><circle cx="1.5" cy="10.5" fill="white" r="1.0" /><circle cx="19.5" cy="3.5" fill="white" r="1.0" /><circle cx="19.5" cy="7.0" fill="white" r="1.0" /><circle cx="19.5" cy="10.5" fill="white" r="1.0" /><g fill="black"><path d="M7.6533203125 10.4400390625H6.28125V5.269140625Q5.529296875 5.972265625 4.5087890625 6.3091796875V5.0640625Q5.0458984375 4.88828125 5.67578125 4.39755859375Q6.3056640625 3.9068359375000004 6.5400390625 3.2525390625000004H7.6533203125Z" /><path d="M11.2373046875 10.4400390625H9.865234375V5.269140625Q9.11328125 5.972265625 8.0927734375 6.3091796875V5.0640625Q8.6298828125 4.88828125 9.259765625 4.39755859375Q9.8896484375 3.9068359375000004 10.1240234375 3.2525390625000004H11.2373046875Z" /><path d="M11.6767578125 8.59921875 13.0439453125 8.4576171875Q13.1025390625 8.921484375 13.390625 9.19248046875Q13.6787109375 9.4634765625 14.0546875 9.4634765625Q14.484375 9.4634765625 14.7822265625 9.11435546875Q15.080078125 8.765234375 15.080078125 8.062109375Q15.080078125 7.4029296875 14.78466796875 7.07333984375Q14.4892578125 6.74375 14.015625 6.74375Q13.4248046875 6.74375 12.9560546875 7.2662109375L11.8427734375 7.105078125L12.5458984375 3.3794921875000004H16.173828125V4.663671875H13.5859375L13.37109375 5.8794921875Q13.830078125 5.65 14.30859375 5.65Q15.2216796875 5.65 15.8564453125 6.3140625Q16.4912109375 6.978125 16.4912109375 8.0376953125Q16.4912109375 8.921484375 15.978515625 9.61484375Q15.2802734375 10.562109375 14.0400390625 10.562109375Q13.048828125 10.562109375 12.423828125 10.0298828125Q11.798828125 9.49765625 11.6767578125 8.59921875Z" /></g></svg>