<?xml version="1.0" encoding="utf-8" ?>
<svg baseProfile="full" height="14" version="1.1" width="21" xmlns="http://www.w3.org/2000/svg" xmlns:ev="http://www.w3.org/2001/xml-events" xmlns:xlink="http://www.w3.org/1999/xlink"><defs /><rect fill="black" height="14" width="21" x="0" y="0" /><rect fill="white" height="12.4" width="15" x="3" y="0.8" /><circle cx="1.5" cy="3.5" fill="white" r="1.0" /><circle cx="1.5" cy="7.0" fill="white" r="1.0" /><circle cx="1.5" cy="10.5" fill="white" r="1.0" /><circle cx="19.5" cy="3.5" fill="white" r="1.0" /><circle cx="19.5" cy="7.0" fill="white" r="1.0" /><circle cx="19.5" cy="10.5" fill="white" r="1.0" /><g fill="black"><path d="M6.90380859375 10.4400390625H5.53173828125V5.269140625Q4.77978515625 5.972265625 3.75927734375 6.3091796875V5.0640625Q4.29638671875 4.88828125 4.92626953125 4.39755859375Q5.55615234375 3.9068359375000004 5.79052734375 3.2525390625000004H6.90380859375Z" /><path d="M12.15283203125 9.165625V10.4400390625H7.34326171875Q7.42138671875 9.7173828125 7.81201171875 9.07041015625Q8.20263671875 8.4234375 9.35498046875 7.3541015625Q10.28271484375 6.48984375 10.49267578125 6.1822265625Q10.77587890625 5.757421875 10.77587890625 5.3423828125Q10.77587890625 4.8833984375 10.529296875 4.63681640625Q10.28271484375 4.390234375 9.84814453125 4.390234375Q9.41845703125 4.390234375 9.16455078125 4.6490234375Q8.91064453125 4.9078125 8.87158203125 5.5083984375L7.50439453125 5.3716796875Q7.62646484375 4.2388671875 8.27099609375 3.7457031250000004Q8.91552734375 3.2525390625000004 9.88232421875 3.2525390625000004Q10.94189453125 3.2525390625000004 11.54736328125 3.8238281250000004Q12.15283203125 4.3951171875 12.15283203125 5.2447265625Q12.15283203125 5.728125 11.9794921875 6.16513671875Q11.80615234375 6.6021484375 11.43017578125 7.0806640625Q11.18115234375 7.398046875 10.53173828125 7.99375Q9.88232421875 8.589453125 9.708984375 8.784765625Q9.53564453125 8.980078125 9.42822265625 9.165625Z" /><path d="M14.91650390625 3.2525390625000004Q15.95654296875 3.2525390625000004 16.54248046875 3.9947265625000004Q17.24072265625 4.8736328125 17.24072265625 6.909765625Q17.24072265625 8.941015625 16.53759765625 9.8296875Q15.95654296875 10.562109375 14.91650390625 10.562109375Q13.87158203125 10.562109375 13.23193359375 9.75888671875Q12.59228515625 8.9556640625 12.59228515625 6.8951171875Q12.59228515625 4.8736328125 13.29541015625 3.9849609375000004Q13.87646484375 3.2525390625000004 14.91650390625 3.2525390625000004ZM14.91650390625 4.390234375Q14.66748046875 4.390234375 14.47216796875 4.54892578125Q14.27685546875 4.7076171875 14.16943359375 5.1177734375Q14.02783203125 5.65 14.02783203125 6.909765625Q14.02783203125 8.16953125 14.15478515625 8.64072265625Q14.28173828125 9.1119140625 14.474609375 9.2681640625Q14.66748046875 9.4244140625 14.91650390625 9.4244140625Q15.16552734375 9.4244140625 15.36083984375 9.26572265625Q15.55615234375 9.10703125 15.66357421875 8.696875Q15.80517578125 8.16953125 15.80517578125 6.909765625Q15.80517578125 5.65 15.67822265625 5.17880859375Q15.55126953125 4.7076171875 15.3583984375 4.54892578125Q15.16552734375 4.390234375 14.91650390625 4.390234375Z" /></g></svg>