<?xml version="1.0" encoding="utf-8" ?>
<svg baseProfile="full" height="14" version="1.1" width="21" xmlns="http://www.w3.org/2000/svg" xmlns:ev="http://www.w3.org/2001/xml-events" xmlns:xlink="http://www.w3.org/1999/xlink"><defs /><rect fill="black" height="14" width="21" x="0" y="0" /><rect fill="white" height="12.4" width="15" x="3" y="0.8" /><circle cx="1.5" cy="3.5" fill="white" r="1.0" /><circle cx="1.5" cy="7.0" fill="white" r="1.0" /><circle cx="1.5" cy="10.5" fill="white" r="1.0" /><circle cx="19.5" cy="3.5" fill="white" r="1.0" /><circle cx="19.5" cy="7.0" fill="white" r="1.0" /><circle cx="19.5" cy="10.5" fill="white" r="1.0" /><g fill="black"><path d="M6.82080078125 10.4400390625H5.44873046875V5.269140625Q4.69677734375 5.972265625 3.67626953125 6.3091796875V5.0640625Q4.21337890625 4.88828125 4.84326171875 4.39755859375Q5.47314453125 3.9068359375000004 5.70751953125 3.2525390625000004H6.82080078125Z" /><path d="M12.06982421875 9.165625V10.4400390625H7.26025390625Q7.33837890625 9.7173828125 7.72900390625 9.07041015625Q8.11962890625 8.4234375 9.27197265625 7.3541015625Q10.19970703125 6.48984375 10.40966796875 6.1822265625Q10.69287109375 5.757421875 10.69287109375 5.3423828125Q10.69287109375 4.8833984375 10.4462890625 4.63681640625Q10.19970703125 4.390234375 9.76513671875 4.390234375Q9.33544921875 4.390234375 9.08154296875 4.6490234375Q8.82763671875 4.9078125 8.78857421875 5.5083984375L7.42138671875 5.3716796875Q7.54345703125 4.2388671875 8.18798828125 3.7457031250000004Q8.83251953125 3.2525390625000004 9.79931640625 3.2525390625000004Q10.85888671875 3.2525390625000004 11.46435546875 3.8238281250000004Q12.06982421875 4.3951171875 12.06982421875 5.2447265625Q12.06982421875 5.728125 11.896484375 6.16513671875Q11.72314453125 6.6021484375 11.34716796875 7.0806640625Q11.09814453125 7.398046875 10.44873046875 7.99375Q9.79931640625 8.589453125 9.6259765625 8.784765625Q9.45263671875 8.980078125 9.34521484375 9.165625Z" /><path d="M12.50927734375 8.59921875 13.87646484375 8.4576171875Q13.93505859375 8.921484375 14.22314453125 9.19248046875Q14.51123046875 9.4634765625 14.88720703125 9.4634765625Q15.31689453125 9.4634765625 15.61474609375 9.11435546875Q15.91259765625 8.765234375 15.91259765625 8.062109375Q15.91259765625 7.4029296875 15.6171875 7.07333984375Q15.32177734375 6.74375 14.84814453125 6.74375Q14.25732421875 6.74375 13.78857421875 7.2662109375L12.67529296875 7.105078125L13.37841796875 3.3794921875000004H17.00634765625V4.663671875H14.41845703125L14.20361328125 5.8794921875Q14.66259765625 5.65 15.14111328125 5.65Q16.05419921875 5.65 16.68896484375 6.3140625Q17.32373046875 6.978125 17.32373046875 8.0376953125Q17.32373046875 8.921484375 16.81103515625 9.61484375Q16.11279296875 10.562109375 14.87255859375 10.562109375Q13.88134765625 10.562109375 13.25634765625 10.0298828125Q12.63134765625 9.49765625 12.50927734375 8.59921875Z" /></g></svg>