<?xml version="1.0" encoding="utf-8" ?>
<svg baseProfile="full" height="14" version="1.1" width="21" xmlns="http://www.w3.org/2000/svg" xmlns:ev="http://www.w3.org/2001/xml-events" xmlns:xlink="http://www.w3.org/1999/xlink"><defs /><rect fill="black" height="14" width="21" x="0" y="0" /><rect fill="white" height="12.4" width="15" x="3" y="0.8" /><circle cx="1.5" cy="3.5" fill="white" r="1.0" /><circle cx="1.5" cy="7.0" fill="white" r="1.0" /><circle cx="1.5" cy="10.5" fill="white" r="1.0" /><circle cx="19.5" cy="3.5" fill="white" r="1.0" /><circle cx="19.5" cy="7.0" fill="white" r="1.0" /><circle cx="19.5" cy="10.5" fill="white" r="1.0" /><g fill="black"><path d="M6.9306640625 10.4400390625H5.55859375V5.269140625Q4.806640625 5.972265625 3.7861328125 6.3091796875V5.0640625Q4.3232421875 4.88828125 4.953125 4.39755859375Q5.5830078125 3.9068359375000004 5.8173828125 3.2525390625000004H6.9306640625Z" /><path d="M7.3701171875 8.540625 8.6982421875 8.3794921875Q8.76171875 8.8873046875 9.0400390625 9.155859375Q9.318359375 9.4244140625 9.7138671875 9.4244140625Q10.138671875 9.4244140625 10.42919921875 9.1021484375Q10.7197265625 8.7798828125 10.7197265625 8.2330078125Q10.7197265625 7.7154296875 10.44140625 7.4126953125Q10.1630859375 7.1099609375 9.7626953125 7.1099609375Q9.4990234375 7.1099609375 9.1328125 7.2125L9.2841796875 6.0943359375Q9.8408203125 6.108984375 10.1337890625 5.85263671875Q10.4267578125 5.5962890625 10.4267578125 5.171484375Q10.4267578125 4.81015625 10.2119140625 4.5953125Q9.9970703125 4.38046875 9.640625 4.38046875Q9.2890625 4.38046875 9.0400390625 4.624609375Q8.791015625 4.86875 8.7373046875 5.3375L7.47265625 5.12265625Q7.6044921875 4.4732421875 7.87060546875 4.08505859375Q8.13671875 3.6968750000000004 8.61279296875 3.4747070312500004Q9.0888671875 3.2525390625000004 9.6796875 3.2525390625000004Q10.6904296875 3.2525390625000004 11.30078125 3.8970703125000004Q11.8037109375 4.4244140625 11.8037109375 5.0884765625Q11.8037109375 6.030859375 10.7734375 6.5923828125Q11.388671875 6.72421875 11.75732421875 7.183203125Q12.1259765625 7.6421875 12.1259765625 8.2916015625Q12.1259765625 9.233984375 11.4375 9.898046875Q10.7490234375 10.562109375 9.7236328125 10.562109375Q8.751953125 10.562109375 8.1123046875 10.00302734375Q7.47265625 9.4439453125 7.3701171875 8.540625Z" /><path d="M14.8896484375 3.2525390625000004Q15.9296875 3.2525390625000004 16.515625 3.9947265625000004Q17.2138671875 4.8736328125 17.2138671875 6.909765625Q17.2138671875 8.941015625 16.5107421875 9.8296875Q15.9296875 10.562109375 14.8896484375 10.562109375Q13.8447265625 10.562109375 13.205078125 9.75888671875Q12.5654296875 8.9556640625 12.5654296875 6.8951171875Q12.5654296875 4.8736328125 13.2685546875 3.9849609375000004Q13.849609375 3.2525390625000004 14.8896484375 3.2525390625000004ZM14.8896484375 4.390234375Q14.640625 4.390234375 14.4453125 4.54892578125Q14.25 4.7076171875 14.142578125 5.1177734375Q14.0009765625 5.65 14.0009765625 6.909765625Q14.0009765625 8.16953125 14.1279296875 8.64072265625Q14.2548828125 9.1119140625 14.44775390625 9.2681640625Q14.640625 9.4244140625 14.8896484375 9.4244140625Q15.138671875 9.4244140625 15.333984375 9.26572265625Q15.529296875 9.10703125 15.63671875 8.696875Q15.7783203125 8.16953125 15.7783203125 6.909765625Q15.7783203125 5.65 15.6513671875 5.17880859375Q15.5244140625 4.7076171875 15.33154296875 4.54892578125Q15.138671875 4.390234375 14.8896484375 4.390234375Z" /></g></svg>