<?xml version="1.0" encoding="utf-8" ?>
<svg baseProfile="full" height="14" version="1.1" width="21" xmlns="http://www.w3.org/2000/svg" xmlns:ev="http://www.w3.org/2001/xml-events" xmlns:xlink="http://www.w3.org/1999/xlink"><defs /><rect fill="black" height="14" width="21" x="0" y="0" /><rect fill="white" height="12.4" width="15" x="3" y="0.8" /><circle cx="1.5" cy="3.5" fill="white" r="1.0" /><circle cx="1.5" cy="7.0" fill="white" r="1.0" /><circle cx="1.5" cy="10.5" fill="white" r="1.0" /><circle cx="19.5" cy="3.5" fill="white" r="1.0" /><circle cx="19.5" cy="7.0" fill="white" r="1.0" /><circle cx="19.5" cy="10.5" fill="white" r="1.0" /><g fill="black"><path d="M6.84765625 10.4400390625H5.4755859375V5.269140625Q4.7236328125 5.972265625 3.703125 6.3091796875V5.0640625Q4.240234375 4.88828125 4.8701171875 4.39755859375Q5.5 3.9068359375000004 5.734375 3.2525390625000004H6.84765625Z" /><path d="M7.287109375 8.540625 8.615234375 8.3794921875Q8.6787109375 8.8873046875 8.95703125 9.155859375Q9.2353515625 9.4244140625 9.630859375 9.4244140625Q10.0556640625 9.4244140625 10.34619140625 9.1021484375Q10.63671875 8.7798828125 10.63671875 8.2330078125Q10.63671875 7.7154296875 10.3583984375 7.4126953125Q10.080078125 7.1099609375 9.6796875 7.1099609375Q9.416015625 7.1099609375 9.0498046875 7.2125L9.201171875 6.0943359375Q9.7578125 6.108984375 10.05078125 5.85263671875Q10.34375 5.5962890625 10.34375 5.171484375Q10.34375 4.81015625 10.12890625 4.5953125Q9.9140625 4.38046875 9.5576171875 4.38046875Q9.2060546875 4.38046875 8.95703125 4.624609375Q8.7080078125 4.86875 8.654296875 5.3375L7.3896484375 5.12265625Q7.521484375 4.4732421875 7.78759765625 4.08505859375Q8.0537109375 3.6968750000000004 8.52978515625 3.4747070312500004Q9.005859375 3.2525390625000004 9.5966796875 3.2525390625000004Q10.607421875 3.2525390625000004 11.2177734375 3.8970703125000004Q11.720703125 4.4244140625 11.720703125 5.0884765625Q11.720703125 6.030859375 10.6904296875 6.5923828125Q11.3056640625 6.72421875 11.67431640625 7.183203125Q12.04296875 7.6421875 12.04296875 8.2916015625Q12.04296875 9.233984375 11.3544921875 9.898046875Q10.666015625 10.562109375 9.640625 10.562109375Q8.6689453125 10.562109375 8.029296875 10.00302734375Q7.3896484375 9.4439453125 7.287109375 8.540625Z" /><path d="M12.482421875 8.59921875 13.849609375 8.4576171875Q13.908203125 8.921484375 14.1962890625 9.19248046875Q14.484375 9.4634765625 14.8603515625 9.4634765625Q15.2900390625 9.4634765625 15.587890625 9.11435546875Q15.8857421875 8.765234375 15.8857421875 8.062109375Q15.8857421875 7.4029296875 15.59033203125 7.07333984375Q15.294921875 6.74375 14.8212890625 6.74375Q14.23046875 6.74375 13.76171875 7.2662109375L12.6484375 7.105078125L13.3515625 3.3794921875000004H16.9794921875V4.663671875H14.3916015625L14.1767578125 5.8794921875Q14.6357421875 5.65 15.1142578125 5.65Q16.02734375 5.65 16.662109375 6.3140625Q17.296875 6.978125 17.296875 8.0376953125Q17.296875 8.921484375 16.7841796875 9.61484375Q16.0859375 10.562109375 14.845703125 10.562109375Q13.8544921875 10.562109375 13.2294921875 10.0298828125Q12.6044921875 9.49765625 12.482421875 8.59921875Z" /></g></svg>