<?xml version="1.0" encoding="utf-8" ?>
<svg baseProfile="full" height="14" version="1.1" width="21" xmlns="http://www.w3.org/2000/svg" xmlns:ev="http://www.w3.org/2001/xml-events" xmlns:xlink="http://www.w3.org/1999/xlink"><defs /><rect fill="black" height="14" width="21" x="0" y="0" /><rect fill="white" height="12.4" width="15" x="3" y="0.8" /><circle cx="1.5" cy="3.5" fill="white" r="1.0" /><circle cx="1.5" cy="7.0" fill="white" r="1.0" /><circle cx="1.5" cy="10.5" fill="white" r="1.0" /><circle cx="19.5" cy="3.5" fill="white" r="1.0" /><circle cx="19.5" cy="7.0" fill="white" r="1.0" /><circle cx="19.5" cy="10.5" fill="white" r="1.0" /><g fill="black"><path d="M6.7353515625 10.4400390625H5.36328125V5.269140625Q4.611328125 5.972265625 3.5908203125 6.3091796875V5.0640625Q4.1279296875 4.88828125 4.7578125 4.39755859375Q5.3876953125 3.9068359375000004 5.6220703125 3.2525390625000004H6.7353515625Z" /><path d="M10.1044921875 10.4400390625V8.999609375H7.1748046875V7.7984375L10.2802734375 3.2525390625000004H11.4326171875V7.7935546875H12.3212890625V8.999609375H11.4326171875V10.4400390625ZM10.1044921875 7.7935546875V5.347265625L8.458984375 7.7935546875Z" /><path d="M15.0849609375 3.2525390625000004Q16.125 3.2525390625000004 16.7109375 3.9947265625000004Q17.4091796875 4.8736328125 17.4091796875 6.909765625Q17.4091796875 8.941015625 16.7060546875 9.8296875Q16.125 10.562109375 15.0849609375 10.562109375Q14.0400390625 10.562109375 13.400390625 9.75888671875Q12.7607421875 8.9556640625 12.7607421875 6.8951171875Q12.7607421875 4.8736328125 13.4638671875 3.9849609375000004Q14.044921875 3.2525390625000004 15.0849609375 3.2525390625000004ZM15.0849609375 4.390234375Q14.8359375 4.390234375 14.640625 4.54892578125Q14.4453125 4.7076171875 14.337890625 5.1177734375Q14.1962890625 5.65 14.1962890625 6.909765625Q14.1962890625 8.16953125 14.3232421875 8.64072265625Q14.4501953125 9.1119140625 14.64306640625 9.2681640625Q14.8359375 9.4244140625 15.0849609375 9.4244140625Q15.333984375 9.4244140625 15.529296875 9.26572265625Q15.724609375 9.10703125 15.83203125 8.696875Q15.9736328125 8.16953125 15.9736328125 6.909765625Q15.9736328125 5.65 15.8466796875 5.17880859375Q15.7197265625 4.7076171875 15.52685546875 4.54892578125Q15.333984375 4.390234375 15.0849609375 4.390234375Z" /></g></svg>