<?xml version="1.0" encoding="utf-8" ?>
<svg baseProfile="full" height="14" version="1.1" width="21" xmlns="http://www.w3.org/2000/svg" xmlns:ev="http://www.w3.org/2001/xml-events" xmlns:xlink="http://www.w3.org/1999/xlink"><defs /><rect fill="black" height="14" width="21" x="0" y="0" /><rect fill="white" height="12.4" width="15" x="3" y="0.8" /><circle cx="1.5" cy="3.5" fill="white" r="1.0" /><circle cx="1.5" cy="7.0" fill="white" r="1.0" /><circle cx="1.5" cy="10.5" fill="white" r="1.0" /><circle cx="19.5" cy="3.5" fill="white" r="1.0" /><circle cx="19.5" cy="7.0" fill="white" r="1.0" /><circle cx="19.5" cy="10.5" fill="white" r="1.0" /><g fill="black"><path d="M6.65234375 10.4400390625H5.2802734375V5.269140625Q4.5283203125 5.972265625 3.5078125 6.3091796875V5.0640625Q4.044921875 4.88828125 4.6748046875 4.39755859375Q5.3046875 3.9068359375000004 5.5390625 3.2525390625000004H6.65234375Z" /><path d="M10.021484375 10.4400390625V8.999609375H7.091796875V7.7984375L10.197265625 3.2525390625000004H11.349609375V7.7935546875H12.23828125V8.999609375H11.349609375V10.4400390625ZM10.021484375 7.7935546875V5.347265625L8.3759765625 7.7935546875Z" /><path d="M12.677734375 8.59921875 14.044921875 8.4576171875Q14.103515625 8.921484375 14.3916015625 9.19248046875Q14.6796875 9.4634765625 15.0556640625 9.4634765625Q15.4853515625 9.4634765625 15.783203125 9.11435546875Q16.0810546875 8.765234375 16.0810546875 8.062109375Q16.0810546875 7.4029296875 15.78564453125 7.07333984375Q15.490234375 6.74375 15.0166015625 6.74375Q14.42578125 6.74375 13.95703125 7.2662109375L12.84375 7.105078125L13.546875 3.3794921875000004H17.1748046875V4.663671875H14.5869140625L14.3720703125 5.8794921875Q14.8310546875 5.65 15.3095703125 5.65Q16.22265625 5.65 16.857421875 6.3140625Q17.4921875 6.978125 17.4921875 8.0376953125Q17.4921875 8.921484375 16.9794921875 9.61484375Q16.28125 10.562109375 15.041015625 10.562109375Q14.0498046875 10.562109375 13.4248046875 10.0298828125Q12.7998046875 9.49765625 12.677734375 8.59921875Z" /></g></svg>