<?xml version="1.0" encoding="utf-8" ?>
<svg baseProfile="full" height="14" version="1.1" width="21" xmlns="http://www.w3.org/2000/svg" xmlns:ev="http://www.w3.org/2001/xml-events" xmlns:xlink="http://www.w3.org/1999/xlink"><defs /><rect fill="black" height="14" width="21" x="0" y="0" /><rect fill="white" height="12.4" width="15" x="3" y="0.8" /><circle cx="1.5" cy="3.5" fill="white" r="1.0" /><circle cx="1.5" cy="7.0" fill="white" r="1.0" /><circle cx="1.5" cy="10.5" fill="white" r="1.0" /><circle cx="19.5" cy="3.5" fill="white" r="1.0" /><circle cx="19.5" cy="7.0" fill="white" r="1.0" /><circle cx="19.5" cy="10.5" fill="white" r="1.0" /><g fill="black"><path d="M6.9013671875 10.4400390625H5.529296875V5.269140625Q4.77734375 5.972265625 3.7568359375 6.3091796875V5.0640625Q4.2939453125 4.88828125 4.923828125 4.39755859375Q5.5537109375 3.9068359375000004 5.7880859375 3.2525390625000004H6.9013671875Z" /><path d="M7.3408203125 8.59921875 8.7080078125 8.4576171875Q8.7666015625 8.921484375 9.0546875 9.19248046875Q9.3427734375 9.4634765625 9.71875 9.4634765625Q10.1484375 9.4634765625 10.4462890625 9.11435546875Q10.744140625 8.765234375 10.744140625 8.062109375Q10.744140625 7.4029296875 10.44873046875 7.07333984375Q10.1533203125 6.74375 9.6796875 6.74375Q9.0888671875 6.74375 8.6201171875 7.2662109375L7.5068359375 7.105078125L8.2099609375 3.3794921875000004H11.837890625V4.663671875H9.25L9.03515625 5.8794921875Q9.494140625 5.65 9.97265625 5.65Q10.8857421875 5.65 11.5205078125 6.3140625Q12.1552734375 6.978125 12.1552734375 8.0376953125Q12.1552734375 8.921484375 11.642578125 9.61484375Q10.9443359375 10.562109375 9.7041015625 10.562109375Q8.712890625 10.562109375 8.087890625 10.0298828125Q7.462890625 9.49765625 7.3408203125 8.59921875Z" /><path d="M14.9189453125 3.2525390625000004Q15.958984375 3.2525390625000004 16.544921875 3.9947265625000004Q17.2431640625 4.8736328125 17.2431640625 6.909765625Q17.2431640625 8.941015625 16.5400390625 9.8296875Q15.958984375 10.562109375 14.9189453125 10.562109375Q13.8740234375 10.562109375 13.234375 9.75888671875Q12.5947265625 8.9556640625 12.5947265625 6.8951171875Q12.5947265625 4.8736328125 13.2978515625 3.9849609375000004Q13.87890625 3.2525390625000004 14.9189453125 3.2525390625000004ZM14.9189453125 4.390234375Q14.669921875 4.390234375 14.474609375 4.54892578125Q14.279296875 4.7076171875 14.171875 5.1177734375Q14.0302734375 5.65 14.0302734375 6.909765625Q14.0302734375 8.16953125 14.1572265625 8.64072265625Q14.2841796875 9.1119140625 14.47705078125 9.2681640625Q14.669921875 9.4244140625 14.9189453125 9.4244140625Q15.16796875 9.4244140625 15.36328125 9.26572265625Q15.55859375 9.10703125 15.666015625 8.696875Q15.8076171875 8.16953125 15.8076171875 6.909765625Q15.8076171875 5.65 15.6806640625 5.17880859375Q15.5537109375 4.7076171875 15.36083984375 4.54892578125Q15.16796875 4.390234375 14.9189453125 4.390234375Z" /></g></svg>