<?xml version="1.0" encoding="utf-8" ?>
<svg baseProfile="full" height="14" version="1.1" width="21" xmlns="http://www.w3.org/2000/svg" xmlns:ev="http://www.w3.org/2001/xml-events" xmlns:xlink="http://www.w3.org/1999/xlink"><defs /><rect fill="black" height="14" width="21" x="0" y="0" /><rect fill="white" height="12.4" width="15" x="3" y="0.8" /><circle cx="1.5" cy="3.5" fill="white" r="1.0" /><circle cx="1.5" cy="7.0" fill="white" r="1.0" /><circle cx="1.5" cy="10.5" fill="white" r="1.0" /><circle cx="19.5" cy="3.5" fill="white" r="1.0" /><circle cx="19.5" cy="7.0" fill="white" r="1.0" /><circle cx="19.5" cy="10.5" fill="white" r="1.0" /><g fill="black"><path d="M6.818359375 10.4400390625H5.4462890625V5.269140625Q4.6943359375 5.972265625 3.673828125 6.3091796875V5.0640625Q4.2109375 4.88828125 4.8408203125 4.39755859375Q5.470703125 3.9068359375000004 5.705078125 3.2525390625000004H6.818359375Z" /><path d="M7.2578125 8.59921875 8.625 8.4576171875Q8.68359375 8.921484375 8.9716796875 9.19248046875Q9.259765625 9.4634765625 9.6357421875 9.4634765625Q10.0654296875 9.4634765625 10.36328125 9.11435546875Q10.6611328125 8.765234375 10.6611328125 8.062109375Q10.6611328125 7.4029296875 10.36572265625 7.07333984375Q10.0703125 6.74375 9.5966796875 6.74375Q9.005859375 6.74375 8.537109375 7.2662109375L7.423828125 7.105078125L8.126953125 3.3794921875000004H11.7548828125V4.663671875H9.1669921875L8.9521484375 5.8794921875Q9.4111328125 5.65 9.8896484375 5.65Q10.802734375 5.65 11.4375 6.3140625Q12.072265625 6.978125 12.072265625 8.0376953125Q12.072265625 8.921484375 11.5595703125 9.61484375Q10.861328125 10.562109375 9.62109375 10.562109375Q8.6298828125 10.562109375 8.0048828125 10.0298828125Q7.3798828125 9.49765625 7.2578125 8.59921875Z" /><path d="M12.51171875 8.59921875 13.87890625 8.4576171875Q13.9375 8.921484375 14.2255859375 9.19248046875Q14.513671875 9.4634765625 14.8896484375 9.4634765625Q15.3193359375 9.4634765625 15.6171875 9.11435546875Q15.9150390625 8.765234375 15.9150390625 8.062109375Q15.9150390625 7.4029296875 15.61962890625 7.07333984375Q15.32421875 6.74375 14.8505859375 6.74375Q14.259765625 6.74375 13.791015625 7.2662109375L12.677734375 7.105078125L13.380859375 3.3794921875000004H17.0087890625V4.663671875H14.4208984375L14.2060546875 5.8794921875Q14.6650390625 5.65 15.1435546875 5.65Q16.056640625 5.65 16.69140625 6.3140625Q17.326171875 6.978125 17.326171875 8.0376953125Q17.326171875 8.921484375 16.8134765625 9.61484375Q16.115234375 10.562109375 14.875 10.562109375Q13.8837890625 10.562109375 13.2587890625 10.0298828125Q12.6337890625 9.49765625 12.51171875 8.59921875Z" /></g></svg>