<?xml version="1.0" encoding="utf-8" ?>
<svg baseProfile="full" height="14" version="1.1" width="21" xmlns="http://www.w3.org/2000/svg" xmlns:ev="http://www.w3.org/2001/xml-events" xmlns:xlink="http://www.w3.org/1999/xlink"><defs /><rect fill="black" height="14" width="21" x="0" y="0" /><rect fill="white" height="12.4" width="15" x="3" y="0.8" /><circle cx="1.5" cy="3.5" fill="white" r="1.0" /><circle cx="1.5" cy="7.0" fill="white" r="1.0" /><circle cx="1.5" cy="10.5" fill="white" r="1.0" /><circle cx="19.5" cy="3.5" fill="white" r="1.0" /><circle cx="19.5" cy="7.0" fill="white" r="1.0" /><circle cx="19.5" cy="10.5" fill="white" r="1.0" /><g fill="black"><path d="M8.46240234375 11.472050781250001H6.6787109375V4.749882812500001Q5.701171875 5.663945312500001 4.37451171875 6.101933593750001V4.483281250000001Q5.07275390625 4.254765625000001 5.8916015625 3.616826171875001Q6.71044921875 2.978886718750001 7.01513671875 2.128300781250001H8.46240234375Z" /><path d="M10.36669921875 9.078984375000001 12.14404296875 8.894902343750001Q12.22021484375 9.497929687500001 12.5947265625 9.850224609375001Q12.96923828125 10.202519531250001 13.4580078125 10.202519531250001Q14.0166015625 10.202519531250001 14.40380859375 9.748662109375001Q14.791015625 9.294804687500001 14.791015625 8.380742187500001Q14.791015625 7.523808593750001 14.406982421875 7.095341796875001Q14.02294921875 6.666875000000001 13.4072265625 6.666875000000001Q12.63916015625 6.666875000000001 12.02978515625 7.346074218750001L10.58251953125 7.136601562500001L11.49658203125 2.293339843750001H16.212890625V3.962773437500001H12.8486328125L12.5693359375 5.543339843750001Q13.166015625 5.245000000000001 13.7880859375 5.245000000000001Q14.97509765625 5.245000000000001 15.80029296875 6.108281250000001Q16.62548828125 6.971562500000001 16.62548828125 8.349003906250001Q16.62548828125 9.497929687500001 15.958984375 10.399296875000001Q15.05126953125 11.630742187500001 13.43896484375 11.630742187500001Q12.150390625 11.630742187500001 11.337890625 10.938847656250001Q10.525390625 10.246953125000001 10.36669921875 9.078984375000001Z" /></g></svg>