<?xml version="1.0" encoding="utf-8" ?>
<svg baseProfile="full" height="14" version="1.1" width="21" xmlns="http://www.w3.org/2000/svg" xmlns:ev="http://www.w3.org/2001/xml-events" xmlns:xlink="http://www.w3.org/1999/xlink"><defs /><rect fill="black" height="14" width="21" x="0" y="0" /><rect fill="white" height="12.4" width="15" x="3" y="0.8" /><circle cx="1.5" cy="3.5" fill="white" r="1.0" /><circle cx="1.5" cy="7.0" fill="white" r="1.0" /><circle cx="1.5" cy="10.5" fill="white" r="1.0" /><circle cx="19.5" cy="3.5" fill="white" r="1.0" /><circle cx="19.5" cy="7.0" fill="white" r="1.0" /><circle cx="19.5" cy="10.5" fill="white" r="1.0" /><g fill="black"><path d="M6.91845703125 10.4400390625H5.54638671875V5.269140625Q4.79443359375 5.972265625 3.77392578125 6.3091796875V5.0640625Q4.31103515625 4.88828125 4.94091796875 4.39755859375Q5.57080078125 3.9068359375000004 5.80517578125 3.2525390625000004H6.91845703125Z" /><path d="M12.00634765625 5.034765625 10.67822265625 5.18125Q10.62939453125 4.77109375 10.42431640625 4.57578125Q10.21923828125 4.38046875 9.89208984375 4.38046875Q9.45751953125 4.38046875 9.1572265625 4.77109375Q8.85693359375 5.16171875 8.77880859375 6.3970703125Q9.29150390625 5.7916015625 10.05322265625 5.7916015625Q10.91259765625 5.7916015625 11.525390625 6.4458984375Q12.13818359375 7.1001953125 12.13818359375 8.1353515625Q12.13818359375 9.233984375 11.49365234375 9.898046875Q10.84912109375 10.562109375 9.83837890625 10.562109375Q8.75439453125 10.562109375 8.05615234375 9.71982421875Q7.35791015625 8.8775390625 7.35791015625 6.95859375Q7.35791015625 4.9908203125 8.08544921875 4.1216796875Q8.81298828125 3.2525390625000004 9.97509765625 3.2525390625000004Q10.79052734375 3.2525390625000004 11.3251953125 3.7090820312500004Q11.85986328125 4.165625 12.00634765625 5.034765625ZM8.89599609375 8.0279296875Q8.89599609375 8.696875 9.20361328125 9.06064453125Q9.51123046875 9.4244140625 9.90673828125 9.4244140625Q10.28759765625 9.4244140625 10.54150390625 9.1265625Q10.79541015625 8.8287109375 10.79541015625 8.15Q10.79541015625 7.4517578125 10.52197265625 7.12705078125Q10.24853515625 6.80234375 9.83837890625 6.80234375Q9.44287109375 6.80234375 9.16943359375 7.11240234375Q8.89599609375 7.4224609375 8.89599609375 8.0279296875Z" /><path d="M14.90185546875 3.2525390625000004Q15.94189453125 3.2525390625000004 16.52783203125 3.9947265625000004Q17.22607421875 4.8736328125 17.22607421875 6.909765625Q17.22607421875 8.941015625 16.52294921875 9.8296875Q15.94189453125 10.562109375 14.90185546875 10.562109375Q13.85693359375 10.562109375 13.21728515625 9.75888671875Q12.57763671875 8.9556640625 12.57763671875 6.8951171875Q12.57763671875 4.8736328125 13.28076171875 3.9849609375000004Q13.86181640625 3.2525390625000004 14.90185546875 3.2525390625000004ZM14.90185546875 4.390234375Q14.65283203125 4.390234375 14.45751953125 4.54892578125Q14.26220703125 4.7076171875 14.15478515625 5.1177734375Q14.01318359375 5.65 14.01318359375 6.909765625Q14.01318359375 8.16953125 14.14013671875 8.64072265625Q14.26708984375 9.1119140625 14.4599609375 9.2681640625Q14.65283203125 9.4244140625 14.90185546875 9.4244140625Q15.15087890625 9.4244140625 15.34619140625 9.26572265625Q15.54150390625 9.10703125 15.64892578125 8.696875Q15.79052734375 8.16953125 15.79052734375 6.909765625Q15.79052734375 5.65 15.66357421875 5.17880859375Q15.53662109375 4.7076171875 15.34375 4.54892578125Q15.15087890625 4.390234375 14.90185546875 4.390234375Z" /></g></svg>