<?xml version="1.0" encoding="utf-8" ?>
<svg baseProfile="full" height="14" version="1.1" width="21" xmlns="http://www.w3.org/2000/svg" xmlns:ev="http://www.w3.org/2001/xml-events" xmlns:xlink="http://www.w3.org/1999/xlink"><defs /><rect fill="black" height="14" width="21" x="0" y="0" /><rect fill="white" height="12.4" width="15" x="3" y="0.8" /><circle cx="1.5" cy="3.5" fill="white" r="1.0" /><circle cx="1.5" cy="7.0" fill="white" r="1.0" /><circle cx="1.5" cy="10.5" fill="white" r="1.0" /><circle cx="19.5" cy="3.5" fill="white" r="1.0" /><circle cx="19.5" cy="7.0" fill="white" r="1.0" /><circle cx="19.5" cy="10.5" fill="white" r="1.0" /><g fill="black"><path d="M10.319091796875 9.815312500000001V11.472050781250001H4.066650390625Q4.168212890625 10.532597656250001 4.676025390625 9.691533203125001Q5.183837890625 8.850468750000001 6.681884765625 7.460332031250001Q7.887939453125 6.336796875000001 8.160888671875 5.936894531250001Q8.529052734375 5.384648437500001 8.529052734375 4.845097656250001Q8.529052734375 4.248417968750001 8.20849609375 3.927861328125001Q7.887939453125 3.607304687500001 7.322998046875 3.607304687500001Q6.764404296875 3.607304687500001 6.434326171875 3.943730468750001Q6.104248046875 4.280156250000001 6.053466796875 5.060917968750001L4.276123046875 4.883183593750001Q4.434814453125 3.410527343750001 5.272705078125 2.769414062500001Q6.110595703125 2.128300781250001 7.367431640625 2.128300781250001Q8.744873046875 2.128300781250001 9.531982421875 2.870976562500001Q10.319091796875 3.613652343750001 10.319091796875 4.718144531250001Q10.319091796875 5.346562500000001 10.09375 5.914677734375001Q9.868408203125 6.482792968750001 9.379638671875 7.104863281250001Q9.055908203125 7.517460937500001 8.211669921875 8.291875000000001Q7.367431640625 9.066289062500001 7.14208984375 9.320195312500001Q6.916748046875 9.574101562500001 6.777099609375 9.815312500000001Z" /><path d="M13.911865234375 2.128300781250001Q15.263916015625 2.128300781250001 16.025634765625 3.093144531250001Q16.933349609375 4.235722656250001 16.933349609375 6.882695312500001Q16.933349609375 9.523320312500001 16.019287109375 10.678593750000001Q15.263916015625 11.630742187500001 13.911865234375 11.630742187500001Q12.553466796875 11.630742187500001 11.721923828125 10.586552734375001Q10.890380859375 9.542363281250001 10.890380859375 6.863652343750001Q10.890380859375 4.235722656250001 11.804443359375 3.080449218750001Q12.559814453125 2.128300781250001 13.911865234375 2.128300781250001ZM13.911865234375 3.607304687500001Q13.588134765625 3.607304687500001 13.334228515625 3.813603515625001Q13.080322265625 4.019902343750001 12.940673828125 4.553105468750001Q12.756591796875 5.245000000000001 12.756591796875 6.882695312500001Q12.756591796875 8.520390625000001 12.921630859375 9.132939453125001Q13.086669921875 9.745488281250001 13.33740234375 9.948613281250001Q13.588134765625 10.151738281250001 13.911865234375 10.151738281250001Q14.235595703125 10.151738281250001 14.489501953125 9.945439453125001Q14.743408203125 9.739140625000001 14.883056640625 9.205937500000001Q15.067138671875 8.520390625000001 15.067138671875 6.882695312500001Q15.067138671875 5.245000000000001 14.902099609375 4.632451171875001Q14.737060546875 4.019902343750001 14.486328125 3.813603515625001Q14.235595703125 3.607304687500001 13.911865234375 3.607304687500001Z" /></g></svg>