<?xml version="1.0" encoding="utf-8" ?>
<svg baseProfile="full" height="14" version="1.1" width="21" xmlns="http://www.w3.org/2000/svg" xmlns:ev="http://www.w3.org/2001/xml-events" xmlns:xlink="http://www.w3.org/1999/xlink"><defs /><rect fill="black" height="14" width="21" x="0" y="0" /><rect fill="white" height="12.4" width="15" x="3" y="0.8" /><circle cx="1.5" cy="3.5" fill="white" r="1.0" /><circle cx="1.5" cy="7.0" fill="white" r="1.0" /><circle cx="1.5" cy="10.5" fill="white" r="1.0" /><circle cx="19.5" cy="3.5" fill="white" r="1.0" /><circle cx="19.5" cy="7.0" fill="white" r="1.0" /><circle cx="19.5" cy="10.5" fill="white" r="1.0" /><g fill="black"><path d="M10.211181640625 9.815312500000001V11.472050781250001H3.958740234375Q4.060302734375 10.532597656250001 4.568115234375 9.691533203125001Q5.075927734375 8.850468750000001 6.573974609375 7.460332031250001Q7.780029296875 6.336796875000001 8.052978515625 5.936894531250001Q8.421142578125 5.384648437500001 8.421142578125 4.845097656250001Q8.421142578125 4.248417968750001 8.1005859375 3.927861328125001Q7.780029296875 3.607304687500001 7.215087890625 3.607304687500001Q6.656494140625 3.607304687500001 6.326416015625 3.943730468750001Q5.996337890625 4.280156250000001 5.945556640625 5.060917968750001L4.168212890625 4.883183593750001Q4.326904296875 3.410527343750001 5.164794921875 2.769414062500001Q6.002685546875 2.128300781250001 7.259521484375 2.128300781250001Q8.636962890625 2.128300781250001 9.424072265625 2.870976562500001Q10.211181640625 3.613652343750001 10.211181640625 4.718144531250001Q10.211181640625 5.346562500000001 9.98583984375 5.914677734375001Q9.760498046875 6.482792968750001 9.271728515625 7.104863281250001Q8.947998046875 7.517460937500001 8.103759765625 8.291875000000001Q7.259521484375 9.066289062500001 7.0341796875 9.320195312500001Q6.808837890625 9.574101562500001 6.669189453125 9.815312500000001Z" /><path d="M10.782470703125 9.078984375000001 12.559814453125 8.894902343750001Q12.635986328125 9.497929687500001 13.010498046875 9.850224609375001Q13.385009765625 10.202519531250001 13.873779296875 10.202519531250001Q14.432373046875 10.202519531250001 14.819580078125 9.748662109375001Q15.206787109375 9.294804687500001 15.206787109375 8.380742187500001Q15.206787109375 7.523808593750001 14.82275390625 7.095341796875001Q14.438720703125 6.666875000000001 13.822998046875 6.666875000000001Q13.054931640625 6.666875000000001 12.445556640625 7.346074218750001L10.998291015625 7.136601562500001L11.912353515625 2.293339843750001H16.628662109375V3.962773437500001H13.264404296875L12.985107421875 5.543339843750001Q13.581787109375 5.245000000000001 14.203857421875 5.245000000000001Q15.390869140625 5.245000000000001 16.216064453125 6.108281250000001Q17.041259765625 6.971562500000001 17.041259765625 8.349003906250001Q17.041259765625 9.497929687500001 16.374755859375 10.399296875000001Q15.467041015625 11.630742187500001 13.854736328125 11.630742187500001Q12.566162109375 11.630742187500001 11.753662109375 10.938847656250001Q10.941162109375 10.246953125000001 10.782470703125 9.078984375000001Z" /></g></svg>