<?xml version="1.0" encoding="utf-8" ?>
<svg baseProfile="full" height="14" version="1.1" width="21" xmlns="http://www.w3.org/2000/svg" xmlns:ev="http://www.w3.org/2001/xml-events" xmlns:xlink="http://www.w3.org/1999/xlink"><defs /><rect fill="black" height="14" width="21" x="0" y="0" /><rect fill="white" height="12.4" width="15" x="3" y="0.8" /><circle cx="1.5" cy="3.5" fill="white" r="1.0" /><circle cx="1.5" cy="7.0" fill="white" r="1.0" /><circle cx="1.5" cy="10.5" fill="white" r="1.0" /><circle cx="19.5" cy="3.5" fill="white" r="1.0" /><circle cx="19.5" cy="7.0" fill="white" r="1.0" /><circle cx="19.5" cy="10.5" fill="white" r="1.0" /><g fill="black"><path d="M4.1015625 9.002812500000001 5.828125 8.793339843750001Q5.91064453125 9.453496093750001 6.2724609375 9.802617187500001Q6.63427734375 10.151738281250001 7.1484375 10.151738281250001Q7.70068359375 10.151738281250001 8.078369140625 9.732792968750001Q8.4560546875 9.313847656250001 8.4560546875 8.602910156250001Q8.4560546875 7.930058593750001 8.09423828125 7.536503906250001Q7.732421875 7.142949218750001 7.2119140625 7.142949218750001Q6.869140625 7.142949218750001 6.39306640625 7.276250000000001L6.58984375 5.822636718750001Q7.3134765625 5.841679687500001 7.6943359375 5.508427734375001Q8.0751953125 5.175175781250001 8.0751953125 4.622929687500001Q8.0751953125 4.153203125000001 7.7958984375 3.873906250000001Q7.5166015625 3.594609375000001 7.05322265625 3.594609375000001Q6.59619140625 3.594609375000001 6.2724609375 3.911992187500001Q5.94873046875 4.229375000000001 5.87890625 4.838750000000001L4.23486328125 4.559453125000001Q4.40625 3.715214843750001 4.752197265625 3.210576171875001Q5.09814453125 2.705937500000001 5.717041015625 2.417119140625001Q6.3359375 2.128300781250001 7.10400390625 2.128300781250001Q8.41796875 2.128300781250001 9.21142578125 2.966191406250001Q9.865234375 3.651738281250001 9.865234375 4.515019531250001Q9.865234375 5.740117187500001 8.52587890625 6.470097656250001Q9.32568359375 6.641484375000001 9.804931640625 7.238164062500001Q10.2841796875 7.834843750000001 10.2841796875 8.679082031250001Q10.2841796875 9.904179687500001 9.38916015625 10.767460937500001Q8.494140625 11.630742187500001 7.1611328125 11.630742187500001Q5.89794921875 11.630742187500001 5.06640625 10.903935546875001Q4.23486328125 10.177128906250001 4.1015625 9.002812500000001Z" /><path d="M13.876953125 2.128300781250001Q15.22900390625 2.128300781250001 15.99072265625 3.093144531250001Q16.8984375 4.235722656250001 16.8984375 6.882695312500001Q16.8984375 9.523320312500001 15.984375 10.678593750000001Q15.22900390625 11.630742187500001 13.876953125 11.630742187500001Q12.5185546875 11.630742187500001 11.68701171875 10.586552734375001Q10.85546875 9.542363281250001 10.85546875 6.863652343750001Q10.85546875 4.235722656250001 11.76953125 3.080449218750001Q12.52490234375 2.128300781250001 13.876953125 2.128300781250001ZM13.876953125 3.607304687500001Q13.55322265625 3.607304687500001 13.29931640625 3.813603515625001Q13.04541015625 4.019902343750001 12.90576171875 4.553105468750001Q12.7216796875 5.245000000000001 12.7216796875 6.882695312500001Q12.7216796875 8.520390625000001 12.88671875 9.132939453125001Q13.0517578125 9.745488281250001 13.302490234375 9.948613281250001Q13.55322265625 10.151738281250001 13.876953125 10.151738281250001Q14.20068359375 10.151738281250001 14.45458984375 9.945439453125001Q14.70849609375 9.739140625000001 14.84814453125 9.205937500000001Q15.0322265625 8.520390625000001 15.0322265625 6.882695312500001Q15.0322265625 5.245000000000001 14.8671875 4.632451171875001Q14.7021484375 4.019902343750001 14.451416015625 3.813603515625001Q14.20068359375 3.607304687500001 13.876953125 3.607304687500001Z" /></g></svg>