<?xml version="1.0" encoding="utf-8" ?>
<svg baseProfile="full" height="14" version="1.1" width="21" xmlns="http://www.w3.org/2000/svg" xmlns:ev="http://www.w3.org/2001/xml-events" xmlns:xlink="http://www.w3.org/1999/xlink"><defs /><rect fill="black" height="14" width="21" x="0" y="0" /><rect fill="white" height="12.4" width="15" x="3" y="0.8" /><circle cx="1.5" cy="3.5" fill="white" r="1.0" /><circle cx="1.5" cy="7.0" fill="white" r="1.0" /><circle cx="1.5" cy="10.5" fill="white" r="1.0" /><circle cx="19.5" cy="3.5" fill="white" r="1.0" /><circle cx="19.5" cy="7.0" fill="white" r="1.0" /><circle cx="19.5" cy="10.5" fill="white" r="1.0" /><g fill="black"><path d="M3.95556640625 9.078984375000001 5.73291015625 8.894902343750001Q5.80908203125 9.497929687500001 6.18359375 9.850224609375001Q6.55810546875 10.202519531250001 7.046875 10.202519531250001Q7.60546875 10.202519531250001 7.99267578125 9.748662109375001Q8.3798828125 9.294804687500001 8.3798828125 8.380742187500001Q8.3798828125 7.523808593750001 7.995849609375 7.095341796875001Q7.61181640625 6.666875000000001 6.99609375 6.666875000000001Q6.22802734375 6.666875000000001 5.61865234375 7.346074218750001L4.17138671875 7.136601562500001L5.08544921875 2.293339843750001H9.8017578125V3.962773437500001H6.4375L6.158203125 5.543339843750001Q6.7548828125 5.245000000000001 7.376953125 5.245000000000001Q8.56396484375 5.245000000000001 9.38916015625 6.108281250000001Q10.21435546875 6.971562500000001 10.21435546875 8.349003906250001Q10.21435546875 9.497929687500001 9.5478515625 10.399296875000001Q8.64013671875 11.630742187500001 7.02783203125 11.630742187500001Q5.7392578125 11.630742187500001 4.9267578125 10.938847656250001Q4.1142578125 10.246953125000001 3.95556640625 9.078984375000001Z" /><path d="M10.78564453125 9.078984375000001 12.56298828125 8.894902343750001Q12.63916015625 9.497929687500001 13.013671875 9.850224609375001Q13.38818359375 10.202519531250001 13.876953125 10.202519531250001Q14.435546875 10.202519531250001 14.82275390625 9.748662109375001Q15.2099609375 9.294804687500001 15.2099609375 8.380742187500001Q15.2099609375 7.523808593750001 14.825927734375 7.095341796875001Q14.44189453125 6.666875000000001 13.826171875 6.666875000000001Q13.05810546875 6.666875000000001 12.44873046875 7.346074218750001L11.00146484375 7.136601562500001L11.91552734375 2.293339843750001H16.6318359375V3.962773437500001H13.267578125L12.98828125 5.543339843750001Q13.5849609375 5.245000000000001 14.20703125 5.245000000000001Q15.39404296875 5.245000000000001 16.21923828125 6.108281250000001Q17.04443359375 6.971562500000001 17.04443359375 8.349003906250001Q17.04443359375 9.497929687500001 16.3779296875 10.399296875000001Q15.47021484375 11.630742187500001 13.85791015625 11.630742187500001Q12.5693359375 11.630742187500001 11.7568359375 10.938847656250001Q10.9443359375 10.246953125000001 10.78564453125 9.078984375000001Z" /></g></svg>