<?xml version="1.0" encoding="utf-8" ?>
<svg baseProfile="full" height="14" version="1.1" width="21" xmlns="http://www.w3.org/2000/svg" xmlns:ev="http://www.w3.org/2001/xml-events" xmlns:xlink="http://www.w3.org/1999/xlink"><defs /><rect fill="black" height="14" width="21" x="0" y="0" /><rect fill="white" height="12.4" width="15" x="3" y="0.8" /><circle cx="1.5" cy="3.5" fill="white" r="1.0" /><circle cx="1.5" cy="7.0" fill="white" r="1.0" /><circle cx="1.5" cy="10.5" fill="white" r="1.0" /><circle cx="19.5" cy="3.5" fill="white" r="1.0" /><circle cx="19.5" cy="7.0" fill="white" r="1.0" /><circle cx="19.5" cy="10.5" fill="white" r="1.0" /><g fill="black"><path d="M10.020751953125 4.445195312500001 8.294189453125 4.635625000000001Q8.230712890625 4.102421875000001 7.964111328125 3.848515625000001Q7.697509765625 3.594609375000001 7.272216796875 3.594609375000001Q6.707275390625 3.594609375000001 6.31689453125 4.102421875000001Q5.926513671875 4.610234375000001 5.824951171875 6.216191406250001Q6.491455078125 5.429082031250001 7.481689453125 5.429082031250001Q8.598876953125 5.429082031250001 9.3955078125 6.279667968750001Q10.192138671875 7.130253906250001 10.192138671875 8.475957031250001Q10.192138671875 9.904179687500001 9.354248046875 10.767460937500001Q8.516357421875 11.630742187500001 7.202392578125 11.630742187500001Q5.793212890625 11.630742187500001 4.885498046875 10.535771484375001Q3.977783203125 9.440800781250001 3.977783203125 6.946171875000001Q3.977783203125 4.388066406250001 4.923583984375 3.258183593750001Q5.869384765625 2.128300781250001 7.380126953125 2.128300781250001Q8.440185546875 2.128300781250001 9.13525390625 2.721806640625001Q9.830322265625 3.315312500000001 10.020751953125 4.445195312500001ZM5.977294921875 8.336308593750001Q5.977294921875 9.205937500000001 6.377197265625 9.678837890625001Q6.777099609375 10.151738281250001 7.291259765625 10.151738281250001Q7.786376953125 10.151738281250001 8.116455078125 9.764531250000001Q8.446533203125 9.377324218750001 8.446533203125 8.495000000000001Q8.446533203125 7.587285156250001 8.091064453125 7.165166015625001Q7.735595703125 6.743046875000001 7.202392578125 6.743046875000001Q6.688232421875 6.743046875000001 6.332763671875 7.146123046875001Q5.977294921875 7.549199218750001 5.977294921875 8.336308593750001Z" /><path d="M10.763427734375 9.078984375000001 12.540771484375 8.894902343750001Q12.616943359375 9.497929687500001 12.991455078125 9.850224609375001Q13.365966796875 10.202519531250001 13.854736328125 10.202519531250001Q14.413330078125 10.202519531250001 14.800537109375 9.748662109375001Q15.187744140625 9.294804687500001 15.187744140625 8.380742187500001Q15.187744140625 7.523808593750001 14.8037109375 7.095341796875001Q14.419677734375 6.666875000000001 13.803955078125 6.666875000000001Q13.035888671875 6.666875000000001 12.426513671875 7.346074218750001L10.979248046875 7.136601562500001L11.893310546875 2.293339843750001H16.609619140625V3.962773437500001H13.245361328125L12.966064453125 5.543339843750001Q13.562744140625 5.245000000000001 14.184814453125 5.245000000000001Q15.371826171875 5.245000000000001 16.197021484375 6.108281250000001Q17.022216796875 6.971562500000001 17.022216796875 8.349003906250001Q17.022216796875 9.497929687500001 16.355712890625 10.399296875000001Q15.447998046875 11.630742187500001 13.835693359375 11.630742187500001Q12.547119140625 11.630742187500001 11.734619140625 10.938847656250001Q10.922119140625 10.246953125000001 10.763427734375 9.078984375000001Z" /></g></svg>