<?xml version="1.0" encoding="utf-8" ?>
<svg baseProfile="full" height="14" version="1.1" width="21" xmlns="http://www.w3.org/2000/svg" xmlns:ev="http://www.w3.org/2001/xml-events" xmlns:xlink="http://www.w3.org/1999/xlink"><defs /><rect fill="black" height="14" width="21" x="0" y="0" /><rect fill="white" height="12.4" width="15" x="3" y="0.8" /><circle cx="1.5" cy="3.5" fill="white" r="1.0" /><circle cx="1.5" cy="7.0" fill="white" r="1.0" /><circle cx="1.5" cy="10.5" fill="white" r="1.0" /><circle cx="19.5" cy="3.5" fill="white" r="1.0" /><circle cx="19.5" cy="7.0" fill="white" r="1.0" /><circle cx="19.5" cy="10.5" fill="white" r="1.0" /><g fill="black"><path d="M4.142822265625 3.950078125000001V2.293339843750001H10.242919921875V3.588261718750001Q9.487548828125 4.330937500000001 8.706787109375 5.721074218750001Q7.926025390625 7.111210937500001 7.5166015625 8.675908203125001Q7.107177734375 10.240605468750001 7.113525390625 11.472050781250001H5.393310546875Q5.437744140625 9.542363281250001 6.18994140625 7.536503906250001Q6.942138671875 5.530644531250001 8.198974609375 3.950078125000001Z" /><path d="M13.835693359375 2.128300781250001Q15.187744140625 2.128300781250001 15.949462890625 3.093144531250001Q16.857177734375 4.235722656250001 16.857177734375 6.882695312500001Q16.857177734375 9.523320312500001 15.943115234375 10.678593750000001Q15.187744140625 11.630742187500001 13.835693359375 11.630742187500001Q12.477294921875 11.630742187500001 11.645751953125 10.586552734375001Q10.814208984375 9.542363281250001 10.814208984375 6.863652343750001Q10.814208984375 4.235722656250001 11.728271484375 3.080449218750001Q12.483642578125 2.128300781250001 13.835693359375 2.128300781250001ZM13.835693359375 3.607304687500001Q13.511962890625 3.607304687500001 13.258056640625 3.813603515625001Q13.004150390625 4.019902343750001 12.864501953125 4.553105468750001Q12.680419921875 5.245000000000001 12.680419921875 6.882695312500001Q12.680419921875 8.520390625000001 12.845458984375 9.132939453125001Q13.010498046875 9.745488281250001 13.26123046875 9.948613281250001Q13.511962890625 10.151738281250001 13.835693359375 10.151738281250001Q14.159423828125 10.151738281250001 14.413330078125 9.945439453125001Q14.667236328125 9.739140625000001 14.806884765625 9.205937500000001Q14.990966796875 8.520390625000001 14.990966796875 6.882695312500001Q14.990966796875 5.245000000000001 14.825927734375 4.632451171875001Q14.660888671875 4.019902343750001 14.41015625 3.813603515625001Q14.159423828125 3.607304687500001 13.835693359375 3.607304687500001Z" /></g></svg>