<?xml version="1.0" encoding="utf-8" ?>
<svg baseProfile="full" height="14" version="1.1" width="21" xmlns="http://www.w3.org/2000/svg" xmlns:ev="http://www.w3.org/2001/xml-events" xmlns:xlink="http://www.w3.org/1999/xlink"><defs /><rect fill="black" height="14" width="21" x="0" y="0" /><rect fill="white" height="12.4" width="15" x="3" y="0.8" /><circle cx="1.5" cy="3.5" fill="white" r="1.0" /><circle cx="1.5" cy="7.0" fill="white" r="1.0" /><circle cx="1.5" cy="10.5" fill="white" r="1.0" /><circle cx="19.5" cy="3.5" fill="white" r="1.0" /><circle cx="19.5" cy="7.0" fill="white" r="1.0" /><circle cx="19.5" cy="10.5" fill="white" r="1.0" /><g fill="black"><path d="M5.58056640625 6.451054687500001Q4.888671875 6.159062500000001 4.574462890625 5.648076171875001Q4.26025390625 5.137089843750001 4.26025390625 4.527714843750001Q4.26025390625 3.486699218750001 4.987060546875 2.807500000000001Q5.7138671875 2.128300781250001 7.05322265625 2.128300781250001Q8.3798828125 2.128300781250001 9.113037109375 2.807500000000001Q9.84619140625 3.486699218750001 9.84619140625 4.527714843750001Q9.84619140625 5.175175781250001 9.509765625 5.679814453125001Q9.17333984375 6.184453125000001 8.56396484375 6.451054687500001Q9.33837890625 6.762089843750001 9.741455078125 7.358769531250001Q10.14453125 7.955449218750001 10.14453125 8.736210937500001Q10.14453125 10.024785156250001 9.322509765625 10.830937500000001Q8.50048828125 11.637089843750001 7.1357421875 11.637089843750001Q5.8662109375 11.637089843750001 5.02197265625 10.970585937500001Q4.025390625 10.183476562500001 4.025390625 8.812382812500001Q4.025390625 8.057011718750001 4.39990234375 7.425419921875001Q4.7744140625 6.793828125000001 5.58056640625 6.451054687500001ZM5.94873046875 4.654667968750001Q5.94873046875 5.187871093750001 6.250244140625 5.486210937500001Q6.5517578125 5.784550781250001 7.05322265625 5.784550781250001Q7.56103515625 5.784550781250001 7.86572265625 5.483037109375001Q8.17041015625 5.181523437500001 8.17041015625 4.648320312500001Q8.17041015625 4.146855468750001 7.868896484375 3.845341796875001Q7.5673828125 3.543828125000001 7.072265625 3.543828125000001Q6.55810546875 3.543828125000001 6.25341796875 3.848515625000001Q5.94873046875 4.153203125000001 5.94873046875 4.654667968750001ZM5.78369140625 8.640996093750001Q5.78369140625 9.377324218750001 6.161376953125 9.789921875000001Q6.5390625 10.202519531250001 7.10400390625 10.202519531250001Q7.65625 10.202519531250001 8.01806640625 9.805791015625001Q8.3798828125 9.409062500000001 8.3798828125 8.660039062500001Q8.3798828125 8.006230468750001 8.01171875 7.609501953125001Q7.6435546875 7.212773437500001 7.07861328125 7.212773437500001Q6.4248046875 7.212773437500001 6.104248046875 7.663457031250001Q5.78369140625 8.114140625000001 5.78369140625 8.640996093750001Z" /><path d="M10.7158203125 9.078984375000001 12.4931640625 8.894902343750001Q12.5693359375 9.497929687500001 12.94384765625 9.850224609375001Q13.318359375 10.202519531250001 13.80712890625 10.202519531250001Q14.36572265625 10.202519531250001 14.7529296875 9.748662109375001Q15.14013671875 9.294804687500001 15.14013671875 8.380742187500001Q15.14013671875 7.523808593750001 14.756103515625 7.095341796875001Q14.3720703125 6.666875000000001 13.75634765625 6.666875000000001Q12.98828125 6.666875000000001 12.37890625 7.346074218750001L10.931640625 7.136601562500001L11.845703125 2.293339843750001H16.56201171875V3.962773437500001H13.19775390625L12.91845703125 5.543339843750001Q13.51513671875 5.245000000000001 14.13720703125 5.245000000000001Q15.32421875 5.245000000000001 16.1494140625 6.108281250000001Q16.974609375 6.971562500000001 16.974609375 8.349003906250001Q16.974609375 9.497929687500001 16.30810546875 10.399296875000001Q15.400390625 11.630742187500001 13.7880859375 11.630742187500001Q12.49951171875 11.630742187500001 11.68701171875 10.938847656250001Q10.87451171875 10.246953125000001 10.7158203125 9.078984375000001Z" /></g></svg>