<?xml version="1.0" encoding="utf-8" ?>
<svg baseProfile="full" height="14" version="1.1" width="21" xmlns="http://www.w3.org/2000/svg" xmlns:ev="http://www.w3.org/2001/xml-events" xmlns:xlink="http://www.w3.org/1999/xlink"><defs /><rect fill="black" height="14" width="21" x="0" y="0" /><rect fill="white" height="12.4" width="15" x="3" y="0.8" /><circle cx="1.5" cy="3.5" fill="white" r="1.0" /><circle cx="1.5" cy="7.0" fill="white" r="1.0" /><circle cx="1.5" cy="10.5" fill="white" r="1.0" /><circle cx="19.5" cy="3.5" fill="white" r="1.0" /><circle cx="19.5" cy="7.0" fill="white" r="1.0" /><circle cx="19.5" cy="10.5" fill="white" r="1.0" /><g fill="black"><path d="M4.263427734375 9.320195312500001 5.989990234375 9.129765625000001Q6.053466796875 9.656621093750001 6.320068359375 9.910527343750001Q6.586669921875 10.164433593750001 7.024658203125 10.164433593750001Q7.576904296875 10.164433593750001 7.964111328125 9.656621093750001Q8.351318359375 9.148808593750001 8.459228515625 7.549199218750001Q7.786376953125 8.329960937500001 6.777099609375 8.329960937500001Q5.678955078125 8.329960937500001 4.88232421875 7.482548828125001Q4.085693359375 6.635136718750001 4.085693359375 5.276738281250001Q4.085693359375 3.861210937500001 4.9267578125 2.994755859375001Q5.767822265625 2.128300781250001 7.069091796875 2.128300781250001Q8.484619140625 2.128300781250001 9.392333984375 3.223271484375001Q10.300048828125 4.318242187500001 10.300048828125 6.825566406250001Q10.300048828125 9.377324218750001 9.354248046875 10.507207031250001Q8.408447265625 11.637089843750001 6.891357421875 11.637089843750001Q5.799560546875 11.637089843750001 5.126708984375 11.056279296875001Q4.453857421875 10.475468750000001 4.263427734375 9.320195312500001ZM8.300537109375 5.422734375000001Q8.300537109375 4.559453125000001 7.90380859375 4.083378906250001Q7.507080078125 3.607304687500001 6.986572265625 3.607304687500001Q6.491455078125 3.607304687500001 6.16455078125 3.997685546875001Q5.837646484375 4.388066406250001 5.837646484375 5.276738281250001Q5.837646484375 6.178105468750001 6.193115234375 6.600224609375001Q6.548583984375 7.022343750000001 7.081787109375 7.022343750000001Q7.595947265625 7.022343750000001 7.9482421875 6.616093750000001Q8.300537109375 6.209843750000001 8.300537109375 5.422734375000001Z" /><path d="M13.892822265625 2.128300781250001Q15.244873046875 2.128300781250001 16.006591796875 3.093144531250001Q16.914306640625 4.235722656250001 16.914306640625 6.882695312500001Q16.914306640625 9.523320312500001 16.000244140625 10.678593750000001Q15.244873046875 11.630742187500001 13.892822265625 11.630742187500001Q12.534423828125 11.630742187500001 11.702880859375 10.586552734375001Q10.871337890625 9.542363281250001 10.871337890625 6.863652343750001Q10.871337890625 4.235722656250001 11.785400390625 3.080449218750001Q12.540771484375 2.128300781250001 13.892822265625 2.128300781250001ZM13.892822265625 3.607304687500001Q13.569091796875 3.607304687500001 13.315185546875 3.813603515625001Q13.061279296875 4.019902343750001 12.921630859375 4.553105468750001Q12.737548828125 5.245000000000001 12.737548828125 6.882695312500001Q12.737548828125 8.520390625000001 12.902587890625 9.132939453125001Q13.067626953125 9.745488281250001 13.318359375 9.948613281250001Q13.569091796875 10.151738281250001 13.892822265625 10.151738281250001Q14.216552734375 10.151738281250001 14.470458984375 9.945439453125001Q14.724365234375 9.739140625000001 14.864013671875 9.205937500000001Q15.048095703125 8.520390625000001 15.048095703125 6.882695312500001Q15.048095703125 5.245000000000001 14.883056640625 4.632451171875001Q14.718017578125 4.019902343750001 14.46728515625 3.813603515625001Q14.216552734375 3.607304687500001 13.892822265625 3.607304687500001Z" /></g></svg>