<?xml version="1.0" encoding="utf-8" ?>
<svg baseProfile="full" height="30.0" version="1.1" width="11" xmlns="http://www.w3.org/2000/svg" xmlns:ev="http://www.w3.org/2001/xml-events" xmlns:xlink="http://www.w3.org/1999/xlink"><defs><clipPath id="inner_clip"><rect height="28.4" width="9.4" x="0.8" y="0.8" /></clipPath></defs><rect fill="black" height="30.0" width="11" x="0" y="0" /><rect fill="#f4da6f" height="28.4" width="9.4" x="0.8" y="0.8" /><g fill="black"><path d="M1.808837890625 14.203369140625V4.897705078125H3.636962890625L7.445556640625 11.112060546875V4.897705078125H9.191162109375V14.203369140625H7.305908203125L3.554443359375 8.135009765625V14.203369140625Z" /><path d="M1.716796875 21.909423828125 3.544921875 21.731689453125Q3.7099609375 22.652099609375 4.214599609375 23.083740234375Q4.71923828125 23.515380859375 5.576171875 23.515380859375Q6.48388671875 23.515380859375 6.944091796875 23.13134765625Q7.404296875 22.747314453125 7.404296875 22.233154296875Q7.404296875 21.903076171875 7.210693359375 21.67138671875Q7.01708984375 21.439697265625 6.53466796875 21.268310546875Q6.20458984375 21.154052734375 5.0302734375 20.862060546875Q3.51953125 20.487548828125 2.91015625 19.941650390625Q2.05322265625 19.173583984375 2.05322265625 18.069091796875Q2.05322265625 17.358154296875 2.456298828125 16.7392578125Q2.859375 16.120361328125 3.617919921875 15.796630859375Q4.37646484375 15.472900390625 5.44921875 15.472900390625Q7.201171875 15.472900390625 8.086669921875 16.240966796875Q8.97216796875 17.009033203125 9.0166015625 18.291259765625L7.1376953125 18.373779296875Q7.01708984375 17.656494140625 6.620361328125 17.34228515625Q6.2236328125 17.028076171875 5.43017578125 17.028076171875Q4.611328125 17.028076171875 4.14794921875 17.364501953125Q3.849609375 17.580322265625 3.849609375 17.942138671875Q3.849609375 18.272216796875 4.12890625 18.507080078125Q4.484375 18.805419921875 5.85546875 19.129150390625Q7.2265625 19.452880859375 7.883544921875 19.798828125Q8.54052734375 20.144775390625 8.911865234375 20.74462890625Q9.283203125 21.344482421875 9.283203125 22.226806640625Q9.283203125 23.026611328125 8.8388671875 23.724853515625Q8.39453125 24.423095703125 7.58203125 24.7626953125Q6.76953125 25.102294921875 5.55712890625 25.102294921875Q3.79248046875 25.102294921875 2.8466796875 24.28662109375Q1.90087890625 23.470947265625 1.716796875 21.909423828125Z" /></g><line clip-path="url(#inner_clip)" stroke="#d9283b" stroke-width="1.6" x1="10.2" x2="0.8" y1="0.8" y2="29.2" /></svg>