<?xml version="1.0" encoding="utf-8" ?>
<svg baseProfile="full" height="30.0" version="1.1" width="11" xmlns="http://www.w3.org/2000/svg" xmlns:ev="http://www.w3.org/2001/xml-events" xmlns:xlink="http://www.w3.org/1999/xlink"><defs /><rect fill="black" height="30.0" width="11" x="0" y="0" /><rect fill="#f4da6f" height="28.4" width="9.4" x="0.8" y="0.8" /><g fill="black"><path d="M6.9091796875 14.365234375H5.12548828125V7.64306640625Q4.14794921875 8.55712890625 2.8212890625 8.9951171875V7.37646484375Q3.51953125 7.14794921875 4.33837890625 6.510009765625Q5.1572265625 5.8720703125 5.4619140625 5.021484375H6.9091796875Z" /><path d="M8.626220703125 23.32177734375V24.978515625H2.373779296875Q2.475341796875 24.0390625 2.983154296875 23.197998046875Q3.490966796875 22.35693359375 4.989013671875 20.966796875Q6.195068359375 19.84326171875 6.468017578125 19.443359375Q6.836181640625 18.89111328125 6.836181640625 18.3515625Q6.836181640625 17.7548828125 6.515625 17.434326171875Q6.195068359375 17.11376953125 5.630126953125 17.11376953125Q5.071533203125 17.11376953125 4.741455078125 17.4501953125Q4.411376953125 17.78662109375 4.360595703125 18.5673828125L2.583251953125 18.3896484375Q2.741943359375 16.9169921875 3.579833984375 16.27587890625Q4.417724609375 15.634765625 5.674560546875 15.634765625Q7.052001953125 15.634765625 7.839111328125 16.37744140625Q8.626220703125 17.1201171875 8.626220703125 18.224609375Q8.626220703125 18.85302734375 8.40087890625 19.421142578125Q8.175537109375 19.9892578125 7.686767578125 20.611328125Q7.363037109375 21.02392578125 6.518798828125 21.79833984375Q5.674560546875 22.57275390625 5.44921875 22.82666015625Q5.223876953125 23.08056640625 5.084228515625 23.32177734375Z" /></g></svg>