<?xml version="1.0" encoding="utf-8" ?>
<svg baseProfile="full" height="30.0" version="1.1" width="11" xmlns="http://www.w3.org/2000/svg" xmlns:ev="http://www.w3.org/2001/xml-events" xmlns:xlink="http://www.w3.org/1999/xlink"><defs /><rect fill="black" height="30.0" width="11" x="0" y="0" /><rect fill="#f4da6f" height="28.4" width="9.4" x="0.8" y="0.8" /><g fill="black"><path d="M6.9091796875 14.285888671875H5.12548828125V7.563720703125Q4.14794921875 8.477783203125 2.8212890625 8.915771484375V7.297119140625Q3.51953125 7.068603515625 4.33837890625 6.4306640625Q5.1572265625 5.792724609375 5.4619140625 4.942138671875H6.9091796875Z" /><path d="M2.40869140625 22.429931640625 4.13525390625 22.220458984375Q4.2177734375 22.880615234375 4.57958984375 23.229736328125Q4.94140625 23.578857421875 5.45556640625 23.578857421875Q6.0078125 23.578857421875 6.385498046875 23.159912109375Q6.76318359375 22.740966796875 6.76318359375 22.030029296875Q6.76318359375 21.357177734375 6.4013671875 20.963623046875Q6.03955078125 20.570068359375 5.51904296875 20.570068359375Q5.17626953125 20.570068359375 4.7001953125 20.703369140625L4.89697265625 19.249755859375Q5.62060546875 19.268798828125 6.00146484375 18.935546875Q6.38232421875 18.602294921875 6.38232421875 18.050048828125Q6.38232421875 17.580322265625 6.10302734375 17.301025390625Q5.82373046875 17.021728515625 5.3603515625 17.021728515625Q4.9033203125 17.021728515625 4.57958984375 17.339111328125Q4.255859375 17.656494140625 4.18603515625 18.265869140625L2.5419921875 17.986572265625Q2.71337890625 17.142333984375 3.059326171875 16.6376953125Q3.4052734375 16.133056640625 4.024169921875 15.84423828125Q4.64306640625 15.555419921875 5.4111328125 15.555419921875Q6.72509765625 15.555419921875 7.5185546875 16.393310546875Q8.17236328125 17.078857421875 8.17236328125 17.942138671875Q8.17236328125 19.167236328125 6.8330078125 19.897216796875Q7.6328125 20.068603515625 8.112060546875 20.665283203125Q8.59130859375 21.261962890625 8.59130859375 22.106201171875Q8.59130859375 23.331298828125 7.6962890625 24.194580078125Q6.80126953125 25.057861328125 5.46826171875 25.057861328125Q4.205078125 25.057861328125 3.37353515625 24.3310546875Q2.5419921875 23.604248046875 2.40869140625 22.429931640625Z" /></g></svg>