<?xml version="1.0" encoding="utf-8" ?>
<svg baseProfile="full" height="30.0" version="1.1" width="11" xmlns="http://www.w3.org/2000/svg" xmlns:ev="http://www.w3.org/2001/xml-events" xmlns:xlink="http://www.w3.org/1999/xlink"><defs /><rect fill="black" height="30.0" width="11" x="0" y="0" /><rect fill="#f4da6f" height="28.4" width="9.4" x="0.8" y="0.8" /><g fill="black"><path d="M6.9091796875 14.285888671875H5.12548828125V7.563720703125Q4.14794921875 8.477783203125 2.8212890625 8.915771484375V7.297119140625Q3.51953125 7.068603515625 4.33837890625 6.4306640625Q5.1572265625 5.792724609375 5.4619140625 4.942138671875H6.9091796875Z" /><path d="M8.435791015625 17.872314453125 6.709228515625 18.062744140625Q6.645751953125 17.529541015625 6.379150390625 17.275634765625Q6.112548828125 17.021728515625 5.687255859375 17.021728515625Q5.122314453125 17.021728515625 4.73193359375 17.529541015625Q4.341552734375 18.037353515625 4.239990234375 19.643310546875Q4.906494140625 18.856201171875 5.896728515625 18.856201171875Q7.013916015625 18.856201171875 7.810546875 19.706787109375Q8.607177734375 20.557373046875 8.607177734375 21.903076171875Q8.607177734375 23.331298828125 7.769287109375 24.194580078125Q6.931396484375 25.057861328125 5.617431640625 25.057861328125Q4.208251953125 25.057861328125 3.300537109375 23.962890625Q2.392822265625 22.867919921875 2.392822265625 20.373291015625Q2.392822265625 17.815185546875 3.338623046875 16.685302734375Q4.284423828125 15.555419921875 5.795166015625 15.555419921875Q6.855224609375 15.555419921875 7.55029296875 16.14892578125Q8.245361328125 16.742431640625 8.435791015625 17.872314453125ZM4.392333984375 21.763427734375Q4.392333984375 22.633056640625 4.792236328125 23.10595703125Q5.192138671875 23.578857421875 5.706298828125 23.578857421875Q6.201416015625 23.578857421875 6.531494140625 23.191650390625Q6.861572265625 22.804443359375 6.861572265625 21.922119140625Q6.861572265625 21.014404296875 6.506103515625 20.59228515625Q6.150634765625 20.170166015625 5.617431640625 20.170166015625Q5.103271484375 20.170166015625 4.747802734375 20.5732421875Q4.392333984375 20.976318359375 4.392333984375 21.763427734375Z" /></g></svg>