<?xml version="1.0" encoding="utf-8" ?>
<svg baseProfile="full" height="24.0" version="1.1" width="11" xmlns="http://www.w3.org/2000/svg" xmlns:ev="http://www.w3.org/2001/xml-events" xmlns:xlink="http://www.w3.org/1999/xlink"><defs /><rect fill="black" height="24.0" width="11" x="0" y="0" /><rect fill="#f4da6f" height="22.4" width="9.4" x="0.8" y="0.8" /><g fill="black"><path d="M8.626220703125 15.01513671875V16.671875H2.373779296875Q2.475341796875 15.732421875 2.983154296875 14.891357421875Q3.490966796875 14.05029296875 4.989013671875 12.66015625Q6.195068359375 11.53662109375 6.468017578125 11.13671875Q6.836181640625 10.58447265625 6.836181640625 10.044921875Q6.836181640625 9.4482421875 6.515625 9.127685546875Q6.195068359375 8.80712890625 5.630126953125 8.80712890625Q5.071533203125 8.80712890625 4.741455078125 9.1435546875Q4.411376953125 9.47998046875 4.360595703125 10.2607421875L2.583251953125 10.0830078125Q2.741943359375 8.6103515625 3.579833984375 7.96923828125Q4.417724609375 7.328125 5.674560546875 7.328125Q7.052001953125 7.328125 7.839111328125 8.07080078125Q8.626220703125 8.8134765625 8.626220703125 9.91796875Q8.626220703125 10.54638671875 8.40087890625 11.114501953125Q8.175537109375 11.6826171875 7.686767578125 12.3046875Q7.363037109375 12.71728515625 6.518798828125 13.49169921875Q5.674560546875 14.26611328125 5.44921875 14.52001953125Q5.223876953125 14.77392578125 5.084228515625 15.01513671875Z" /></g></svg>