<?xml version="1.0" encoding="utf-8" ?>
<svg baseProfile="full" height="24.0" version="1.1" width="11" xmlns="http://www.w3.org/2000/svg" xmlns:ev="http://www.w3.org/2001/xml-events" xmlns:xlink="http://www.w3.org/1999/xlink"><defs /><rect fill="black" height="24.0" width="11" x="0" y="0" /><rect fill="#f4da6f" height="22.4" width="9.4" x="0.8" y="0.8" /><g fill="black"><path d="M2.40869140625 14.123291015625 4.13525390625 13.913818359375Q4.2177734375 14.573974609375 4.57958984375 14.923095703125Q4.94140625 15.272216796875 5.45556640625 15.272216796875Q6.0078125 15.272216796875 6.385498046875 14.853271484375Q6.76318359375 14.434326171875 6.76318359375 13.723388671875Q6.76318359375 13.050537109375 6.4013671875 12.656982421875Q6.03955078125 12.263427734375 5.51904296875 12.263427734375Q5.17626953125 12.263427734375 4.7001953125 12.396728515625L4.89697265625 10.943115234375Q5.62060546875 10.962158203125 6.00146484375 10.62890625Q6.38232421875 10.295654296875 6.38232421875 9.743408203125Q6.38232421875 9.273681640625 6.10302734375 8.994384765625Q5.82373046875 8.715087890625 5.3603515625 8.715087890625Q4.9033203125 8.715087890625 4.57958984375 9.032470703125Q4.255859375 9.349853515625 4.18603515625 9.959228515625L2.5419921875 9.679931640625Q2.71337890625 8.835693359375 3.059326171875 8.3310546875Q3.4052734375 7.826416015625 4.024169921875 7.53759765625Q4.64306640625 7.248779296875 5.4111328125 7.248779296875Q6.72509765625 7.248779296875 7.5185546875 8.086669921875Q8.17236328125 8.772216796875 8.17236328125 9.635498046875Q8.17236328125 10.860595703125 6.8330078125 11.590576171875Q7.6328125 11.761962890625 8.112060546875 12.358642578125Q8.59130859375 12.955322265625 8.59130859375 13.799560546875Q8.59130859375 15.024658203125 7.6962890625 15.887939453125Q6.80126953125 16.751220703125 5.46826171875 16.751220703125Q4.205078125 16.751220703125 3.37353515625 16.0244140625Q2.5419921875 15.297607421875 2.40869140625 14.123291015625Z" /></g></svg>