<?xml version="1.0" encoding="utf-8" ?>
<svg baseProfile="full" height="24.0" version="1.1" width="11" xmlns="http://www.w3.org/2000/svg" xmlns:ev="http://www.w3.org/2001/xml-events" xmlns:xlink="http://www.w3.org/1999/xlink"><defs /><rect fill="black" height="24.0" width="11" x="0" y="0" /><rect fill="#f4da6f" height="22.4" width="9.4" x="0.8" y="0.8" /><g fill="black"><path d="M2.37060546875 14.116943359375 4.14794921875 13.932861328125Q4.22412109375 14.535888671875 4.5986328125 14.88818359375Q4.97314453125 15.240478515625 5.4619140625 15.240478515625Q6.0205078125 15.240478515625 6.40771484375 14.78662109375Q6.794921875 14.332763671875 6.794921875 13.418701171875Q6.794921875 12.561767578125 6.410888671875 12.13330078125Q6.02685546875 11.704833984375 5.4111328125 11.704833984375Q4.64306640625 11.704833984375 4.03369140625 12.384033203125L2.58642578125 12.174560546875L3.50048828125 7.331298828125H8.216796875V9.000732421875H4.8525390625L4.5732421875 10.581298828125Q5.169921875 10.282958984375 5.7919921875 10.282958984375Q6.97900390625 10.282958984375 7.80419921875 11.146240234375Q8.62939453125 12.009521484375 8.62939453125 13.386962890625Q8.62939453125 14.535888671875 7.962890625 15.437255859375Q7.05517578125 16.668701171875 5.44287109375 16.668701171875Q4.154296875 16.668701171875 3.341796875 15.976806640625Q2.529296875 15.284912109375 2.37060546875 14.116943359375Z" /></g></svg>