<?xml version="1.0" encoding="utf-8" ?>
<svg baseProfile="full" height="24.0" version="1.1" width="11" xmlns="http://www.w3.org/2000/svg" xmlns:ev="http://www.w3.org/2001/xml-events" xmlns:xlink="http://www.w3.org/1999/xlink"><defs /><rect fill="black" height="24.0" width="11" x="0" y="0" /><rect fill="#f4da6f" height="22.4" width="9.4" x="0.8" y="0.8" /><g fill="black"><path d="M8.435791015625 9.565673828125 6.709228515625 9.756103515625Q6.645751953125 9.222900390625 6.379150390625 8.968994140625Q6.112548828125 8.715087890625 5.687255859375 8.715087890625Q5.122314453125 8.715087890625 4.73193359375 9.222900390625Q4.341552734375 9.730712890625 4.239990234375 11.336669921875Q4.906494140625 10.549560546875 5.896728515625 10.549560546875Q7.013916015625 10.549560546875 7.810546875 11.400146484375Q8.607177734375 12.250732421875 8.607177734375 13.596435546875Q8.607177734375 15.024658203125 7.769287109375 15.887939453125Q6.931396484375 16.751220703125 5.617431640625 16.751220703125Q4.208251953125 16.751220703125 3.300537109375 15.65625Q2.392822265625 14.561279296875 2.392822265625 12.066650390625Q2.392822265625 9.508544921875 3.338623046875 8.378662109375Q4.284423828125 7.248779296875 5.795166015625 7.248779296875Q6.855224609375 7.248779296875 7.55029296875 7.84228515625Q8.245361328125 8.435791015625 8.435791015625 9.565673828125ZM4.392333984375 13.456787109375Q4.392333984375 14.326416015625 4.792236328125 14.79931640625Q5.192138671875 15.272216796875 5.706298828125 15.272216796875Q6.201416015625 15.272216796875 6.531494140625 14.885009765625Q6.861572265625 14.497802734375 6.861572265625 13.615478515625Q6.861572265625 12.707763671875 6.506103515625 12.28564453125Q6.150634765625 11.863525390625 5.617431640625 11.863525390625Q5.103271484375 11.863525390625 4.747802734375 12.2666015625Q4.392333984375 12.669677734375 4.392333984375 13.456787109375Z" /></g></svg>