<?xml version="1.0" encoding="utf-8" ?>
<svg baseProfile="full" height="24.0" version="1.1" width="11" xmlns="http://www.w3.org/2000/svg" xmlns:ev="http://www.w3.org/2001/xml-events" xmlns:xlink="http://www.w3.org/1999/xlink"><defs /><rect fill="black" height="24.0" width="11" x="0" y="0" /><rect fill="#f4da6f" height="22.4" width="9.4" x="0.8" y="0.8" /><g fill="black"><path d="M3.99560546875 11.568359375Q3.3037109375 11.2763671875 2.989501953125 10.765380859375Q2.67529296875 10.25439453125 2.67529296875 9.64501953125Q2.67529296875 8.60400390625 3.402099609375 7.9248046875Q4.12890625 7.24560546875 5.46826171875 7.24560546875Q6.794921875 7.24560546875 7.528076171875 7.9248046875Q8.26123046875 8.60400390625 8.26123046875 9.64501953125Q8.26123046875 10.29248046875 7.9248046875 10.797119140625Q7.58837890625 11.3017578125 6.97900390625 11.568359375Q7.75341796875 11.87939453125 8.156494140625 12.47607421875Q8.5595703125 13.07275390625 8.5595703125 13.853515625Q8.5595703125 15.14208984375 7.737548828125 15.9482421875Q6.91552734375 16.75439453125 5.55078125 16.75439453125Q4.28125 16.75439453125 3.43701171875 16.087890625Q2.4404296875 15.30078125 2.4404296875 13.9296875Q2.4404296875 13.17431640625 2.81494140625 12.542724609375Q3.189453125 11.9111328125 3.99560546875 11.568359375ZM4.36376953125 9.77197265625Q4.36376953125 10.30517578125 4.665283203125 10.603515625Q4.966796875 10.90185546875 5.46826171875 10.90185546875Q5.97607421875 10.90185546875 6.28076171875 10.600341796875Q6.58544921875 10.298828125 6.58544921875 9.765625Q6.58544921875 9.26416015625 6.283935546875 8.962646484375Q5.982421875 8.6611328125 5.4873046875 8.6611328125Q4.97314453125 8.6611328125 4.66845703125 8.9658203125Q4.36376953125 9.2705078125 4.36376953125 9.77197265625ZM4.19873046875 13.75830078125Q4.19873046875 14.49462890625 4.576416015625 14.9072265625Q4.9541015625 15.31982421875 5.51904296875 15.31982421875Q6.0712890625 15.31982421875 6.43310546875 14.923095703125Q6.794921875 14.5263671875 6.794921875 13.77734375Q6.794921875 13.12353515625 6.4267578125 12.726806640625Q6.05859375 12.330078125 5.49365234375 12.330078125Q4.83984375 12.330078125 4.519287109375 12.78076171875Q4.19873046875 13.2314453125 4.19873046875 13.75830078125Z" /></g></svg>