<?xml version="1.0" encoding="utf-8" ?>
<svg baseProfile="full" height="24.0" version="1.1" width="11" xmlns="http://www.w3.org/2000/svg" xmlns:ev="http://www.w3.org/2001/xml-events" xmlns:xlink="http://www.w3.org/1999/xlink"><defs /><rect fill="black" height="24.0" width="11" x="0" y="0" /><rect fill="#f4da6f" height="22.4" width="9.4" x="0.8" y="0.8" /><g fill="black"><path d="M2.570556640625 14.4375 4.297119140625 14.2470703125Q4.360595703125 14.77392578125 4.627197265625 15.02783203125Q4.893798828125 15.28173828125 5.331787109375 15.28173828125Q5.884033203125 15.28173828125 6.271240234375 14.77392578125Q6.658447265625 14.26611328125 6.766357421875 12.66650390625Q6.093505859375 13.447265625 5.084228515625 13.447265625Q3.986083984375 13.447265625 3.189453125 12.599853515625Q2.392822265625 11.75244140625 2.392822265625 10.39404296875Q2.392822265625 8.978515625 3.23388671875 8.112060546875Q4.074951171875 7.24560546875 5.376220703125 7.24560546875Q6.791748046875 7.24560546875 7.699462890625 8.340576171875Q8.607177734375 9.435546875 8.607177734375 11.94287109375Q8.607177734375 14.49462890625 7.661376953125 15.62451171875Q6.715576171875 16.75439453125 5.198486328125 16.75439453125Q4.106689453125 16.75439453125 3.433837890625 16.173583984375Q2.760986328125 15.5927734375 2.570556640625 14.4375ZM6.607666015625 10.5400390625Q6.607666015625 9.6767578125 6.2109375 9.20068359375Q5.814208984375 8.724609375 5.293701171875 8.724609375Q4.798583984375 8.724609375 4.4716796875 9.114990234375Q4.144775390625 9.50537109375 4.144775390625 10.39404296875Q4.144775390625 11.29541015625 4.500244140625 11.717529296875Q4.855712890625 12.1396484375 5.388916015625 12.1396484375Q5.903076171875 12.1396484375 6.25537109375 11.7333984375Q6.607666015625 11.3271484375 6.607666015625 10.5400390625Z" /></g></svg>