<?xml version="1.0" encoding="utf-8" ?>
<svg baseProfile="full" height="24.0" version="1.1" width="11" xmlns="http://www.w3.org/2000/svg" xmlns:ev="http://www.w3.org/2001/xml-events" xmlns:xlink="http://www.w3.org/1999/xlink"><defs /><rect fill="black" height="24.0" width="11" x="0" y="0" /><rect fill="white" height="22.4" width="9.4" x="0.8" y="0.8" /><g fill="black"><path d="M6.25537109375 14.301025390625H4.63671875Q4.63037109375 13.951904296875 4.63037109375 13.875732421875Q4.63037109375 13.088623046875 4.890625 12.580810546875Q5.15087890625 12.072998046875 5.931640625 11.438232421875Q6.71240234375 10.803466796875 6.86474609375 10.606689453125Q7.099609375 10.295654296875 7.099609375 9.921142578125Q7.099609375 9.400634765625 6.683837890625 9.029296875Q6.26806640625 8.657958984375 5.5634765625 8.657958984375Q4.88427734375 8.657958984375 4.42724609375 9.045166015625Q3.97021484375 9.432373046875 3.798828125 10.225830078125L2.1611328125 10.022705078125Q2.23095703125 8.886474609375 3.129150390625 8.093017578125Q4.02734375 7.299560546875 5.4873046875 7.299560546875Q7.0234375 7.299560546875 7.93115234375 8.1025390625Q8.8388671875 8.905517578125 8.8388671875 9.971923828125Q8.8388671875 10.562255859375 8.505615234375 11.089111328125Q8.17236328125 11.615966796875 7.08056640625 12.523681640625Q6.515625 12.993408203125 6.379150390625 13.279052734375Q6.24267578125 13.564697265625 6.25537109375 14.301025390625ZM4.63671875 16.700439453125V14.916748046875H6.42041015625V16.700439453125Z" /></g></svg>