<?xml version="1.0" encoding="utf-8" ?>
<svg baseProfile="full" height="36.0" version="1.1" width="11" xmlns="http://www.w3.org/2000/svg" xmlns:ev="http://www.w3.org/2001/xml-events" xmlns:xlink="http://www.w3.org/1999/xlink"><defs /><rect fill="black" height="36.0" width="11" x="0" y="0" /><rect fill="white" height="34.4" width="9.4" x="0.8" y="0.8" /><g fill="black"><path d="M6.9091796875 11.89990234375H5.12548828125V5.177734375Q4.14794921875 6.091796875 2.8212890625 6.52978515625V4.9111328125Q3.51953125 4.6826171875 4.33837890625 4.044677734375Q5.1572265625 3.40673828125 5.4619140625 2.55615234375H6.9091796875Z" /><path d="M5.5 13.16943359375Q6.85205078125 13.16943359375 7.61376953125 14.13427734375Q8.521484375 15.27685546875 8.521484375 17.923828125Q8.521484375 20.564453125 7.607421875 21.7197265625Q6.85205078125 22.671875 5.5 22.671875Q4.1416015625 22.671875 3.31005859375 21.627685546875Q2.478515625 20.58349609375 2.478515625 17.90478515625Q2.478515625 15.27685546875 3.392578125 14.12158203125Q4.14794921875 13.16943359375 5.5 13.16943359375ZM5.5 14.6484375Q5.17626953125 14.6484375 4.92236328125 14.854736328125Q4.66845703125 15.06103515625 4.52880859375 15.59423828125Q4.3447265625 16.2861328125 4.3447265625 17.923828125Q4.3447265625 19.5615234375 4.509765625 20.174072265625Q4.6748046875 20.78662109375 4.925537109375 20.98974609375Q5.17626953125 21.19287109375 5.5 21.19287109375Q5.82373046875 21.19287109375 6.07763671875 20.986572265625Q6.33154296875 20.7802734375 6.47119140625 20.2470703125Q6.6552734375 19.5615234375 6.6552734375 17.923828125Q6.6552734375 16.2861328125 6.490234375 15.673583984375Q6.3251953125 15.06103515625 6.074462890625 14.854736328125Q5.82373046875 14.6484375 5.5 14.6484375Z" /><path d="M5.5 23.94140625Q6.85205078125 23.94140625 7.61376953125 24.90625Q8.521484375 26.048828125 8.521484375 28.69580078125Q8.521484375 31.33642578125 7.607421875 32.49169921875Q6.85205078125 33.44384765625 5.5 33.44384765625Q4.1416015625 33.44384765625 3.31005859375 32.399658203125Q2.478515625 31.35546875 2.478515625 28.6767578125Q2.478515625 26.048828125 3.392578125 24.8935546875Q4.14794921875 23.94140625 5.5 23.94140625ZM5.5 25.42041015625Q5.17626953125 25.42041015625 4.92236328125 25.626708984375Q4.66845703125 25.8330078125 4.52880859375 26.3662109375Q4.3447265625 27.05810546875 4.3447265625 28.69580078125Q4.3447265625 30.33349609375 4.509765625 30.946044921875Q4.6748046875 31.55859375 4.925537109375 31.76171875Q5.17626953125 31.96484375 5.5 31.96484375Q5.82373046875 31.96484375 6.07763671875 31.758544921875Q6.33154296875 31.55224609375 6.47119140625 31.01904296875Q6.6552734375 30.33349609375 6.6552734375 28.69580078125Q6.6552734375 27.05810546875 6.490234375 26.445556640625Q6.3251953125 25.8330078125 6.074462890625 25.626708984375Q5.82373046875 25.42041015625 5.5 25.42041015625Z" /></g></svg>