<?xml version="1.0" encoding="utf-8" ?>
<svg baseProfile="full" height="36.0" version="1.1" width="11" xmlns="http://www.w3.org/2000/svg" xmlns:ev="http://www.w3.org/2001/xml-events" xmlns:xlink="http://www.w3.org/1999/xlink"><defs /><rect fill="black" height="36.0" width="11" x="0" y="0" /><rect fill="white" height="34.4" width="9.4" x="0.8" y="0.8" /><g fill="black"><path d="M6.9091796875 11.982421875H5.12548828125V5.26025390625Q4.14794921875 6.17431640625 2.8212890625 6.6123046875V4.99365234375Q3.51953125 4.76513671875 4.33837890625 4.127197265625Q5.1572265625 3.4892578125 5.4619140625 2.638671875H6.9091796875Z" /><path d="M5.5 13.251953125Q6.85205078125 13.251953125 7.61376953125 14.216796875Q8.521484375 15.359375 8.521484375 18.00634765625Q8.521484375 20.64697265625 7.607421875 21.80224609375Q6.85205078125 22.75439453125 5.5 22.75439453125Q4.1416015625 22.75439453125 3.31005859375 21.710205078125Q2.478515625 20.666015625 2.478515625 17.9873046875Q2.478515625 15.359375 3.392578125 14.2041015625Q4.14794921875 13.251953125 5.5 13.251953125ZM5.5 14.73095703125Q5.17626953125 14.73095703125 4.92236328125 14.937255859375Q4.66845703125 15.1435546875 4.52880859375 15.6767578125Q4.3447265625 16.36865234375 4.3447265625 18.00634765625Q4.3447265625 19.64404296875 4.509765625 20.256591796875Q4.6748046875 20.869140625 4.925537109375 21.072265625Q5.17626953125 21.275390625 5.5 21.275390625Q5.82373046875 21.275390625 6.07763671875 21.069091796875Q6.33154296875 20.86279296875 6.47119140625 20.32958984375Q6.6552734375 19.64404296875 6.6552734375 18.00634765625Q6.6552734375 16.36865234375 6.490234375 15.756103515625Q6.3251953125 15.1435546875 6.074462890625 14.937255859375Q5.82373046875 14.73095703125 5.5 14.73095703125Z" /><path d="M2.37060546875 30.8095703125 4.14794921875 30.62548828125Q4.22412109375 31.228515625 4.5986328125 31.580810546875Q4.97314453125 31.93310546875 5.4619140625 31.93310546875Q6.0205078125 31.93310546875 6.40771484375 31.479248046875Q6.794921875 31.025390625 6.794921875 30.111328125Q6.794921875 29.25439453125 6.410888671875 28.825927734375Q6.02685546875 28.3974609375 5.4111328125 28.3974609375Q4.64306640625 28.3974609375 4.03369140625 29.07666015625L2.58642578125 28.8671875L3.50048828125 24.02392578125H8.216796875V25.693359375H4.8525390625L4.5732421875 27.27392578125Q5.169921875 26.9755859375 5.7919921875 26.9755859375Q6.97900390625 26.9755859375 7.80419921875 27.8388671875Q8.62939453125 28.7021484375 8.62939453125 30.07958984375Q8.62939453125 31.228515625 7.962890625 32.1298828125Q7.05517578125 33.361328125 5.44287109375 33.361328125Q4.154296875 33.361328125 3.341796875 32.66943359375Q2.529296875 31.9775390625 2.37060546875 30.8095703125Z" /></g></svg>