<?xml version="1.0" encoding="utf-8" ?>
<svg baseProfile="full" height="36.0" version="1.1" width="11" xmlns="http://www.w3.org/2000/svg" xmlns:ev="http://www.w3.org/2001/xml-events" xmlns:xlink="http://www.w3.org/1999/xlink"><defs /><rect fill="black" height="36.0" width="11" x="0" y="0" /><rect fill="white" height="34.4" width="9.4" x="0.8" y="0.8" /><g fill="black"><path d="M6.9091796875 11.979248046875H5.12548828125V5.257080078125Q4.14794921875 6.171142578125 2.8212890625 6.609130859375V4.990478515625Q3.51953125 4.761962890625 4.33837890625 4.1240234375Q5.1572265625 3.486083984375 5.4619140625 2.635498046875H6.9091796875Z" /><path d="M6.9091796875 22.592529296875H5.12548828125V15.870361328125Q4.14794921875 16.784423828125 2.8212890625 17.222412109375V15.603759765625Q3.51953125 15.375244140625 4.33837890625 14.7373046875Q5.1572265625 14.099365234375 5.4619140625 13.248779296875H6.9091796875Z" /><path d="M5.5 23.862060546875Q6.85205078125 23.862060546875 7.61376953125 24.826904296875Q8.521484375 25.969482421875 8.521484375 28.616455078125Q8.521484375 31.257080078125 7.607421875 32.412353515625Q6.85205078125 33.364501953125 5.5 33.364501953125Q4.1416015625 33.364501953125 3.31005859375 32.3203125Q2.478515625 31.276123046875 2.478515625 28.597412109375Q2.478515625 25.969482421875 3.392578125 24.814208984375Q4.14794921875 23.862060546875 5.5 23.862060546875ZM5.5 25.341064453125Q5.17626953125 25.341064453125 4.92236328125 25.54736328125Q4.66845703125 25.753662109375 4.52880859375 26.286865234375Q4.3447265625 26.978759765625 4.3447265625 28.616455078125Q4.3447265625 30.254150390625 4.509765625 30.86669921875Q4.6748046875 31.479248046875 4.925537109375 31.682373046875Q5.17626953125 31.885498046875 5.5 31.885498046875Q5.82373046875 31.885498046875 6.07763671875 31.67919921875Q6.33154296875 31.472900390625 6.47119140625 30.939697265625Q6.6552734375 30.254150390625 6.6552734375 28.616455078125Q6.6552734375 26.978759765625 6.490234375 26.3662109375Q6.3251953125 25.753662109375 6.074462890625 25.54736328125Q5.82373046875 25.341064453125 5.5 25.341064453125Z" /></g></svg>