<?xml version="1.0" encoding="utf-8" ?>
<svg baseProfile="full" height="36.0" version="1.1" width="11" xmlns="http://www.w3.org/2000/svg" xmlns:ev="http://www.w3.org/2001/xml-events" xmlns:xlink="http://www.w3.org/1999/xlink"><defs /><rect fill="black" height="36.0" width="11" x="0" y="0" /><rect fill="white" height="34.4" width="9.4" x="0.8" y="0.8" /><g fill="black"><path d="M6.9091796875 11.979248046875H5.12548828125V5.257080078125Q4.14794921875 6.171142578125 2.8212890625 6.609130859375V4.990478515625Q3.51953125 4.761962890625 4.33837890625 4.1240234375Q5.1572265625 3.486083984375 5.4619140625 2.635498046875H6.9091796875Z" /><path d="M8.626220703125 20.935791015625V22.592529296875H2.373779296875Q2.475341796875 21.653076171875 2.983154296875 20.81201171875Q3.490966796875 19.970947265625 4.989013671875 18.580810546875Q6.195068359375 17.457275390625 6.468017578125 17.057373046875Q6.836181640625 16.505126953125 6.836181640625 15.965576171875Q6.836181640625 15.368896484375 6.515625 15.04833984375Q6.195068359375 14.727783203125 5.630126953125 14.727783203125Q5.071533203125 14.727783203125 4.741455078125 15.064208984375Q4.411376953125 15.400634765625 4.360595703125 16.181396484375L2.583251953125 16.003662109375Q2.741943359375 14.531005859375 3.579833984375 13.889892578125Q4.417724609375 13.248779296875 5.674560546875 13.248779296875Q7.052001953125 13.248779296875 7.839111328125 13.991455078125Q8.626220703125 14.734130859375 8.626220703125 15.838623046875Q8.626220703125 16.467041015625 8.40087890625 17.03515625Q8.175537109375 17.603271484375 7.686767578125 18.225341796875Q7.363037109375 18.637939453125 6.518798828125 19.412353515625Q5.674560546875 20.186767578125 5.44921875 20.440673828125Q5.223876953125 20.694580078125 5.084228515625 20.935791015625Z" /><path d="M5.5 23.862060546875Q6.85205078125 23.862060546875 7.61376953125 24.826904296875Q8.521484375 25.969482421875 8.521484375 28.616455078125Q8.521484375 31.257080078125 7.607421875 32.412353515625Q6.85205078125 33.364501953125 5.5 33.364501953125Q4.1416015625 33.364501953125 3.31005859375 32.3203125Q2.478515625 31.276123046875 2.478515625 28.597412109375Q2.478515625 25.969482421875 3.392578125 24.814208984375Q4.14794921875 23.862060546875 5.5 23.862060546875ZM5.5 25.341064453125Q5.17626953125 25.341064453125 4.92236328125 25.54736328125Q4.66845703125 25.753662109375 4.52880859375 26.286865234375Q4.3447265625 26.978759765625 4.3447265625 28.616455078125Q4.3447265625 30.254150390625 4.509765625 30.86669921875Q4.6748046875 31.479248046875 4.925537109375 31.682373046875Q5.17626953125 31.885498046875 5.5 31.885498046875Q5.82373046875 31.885498046875 6.07763671875 31.67919921875Q6.33154296875 31.472900390625 6.47119140625 30.939697265625Q6.6552734375 30.254150390625 6.6552734375 28.616455078125Q6.6552734375 26.978759765625 6.490234375 26.3662109375Q6.3251953125 25.753662109375 6.074462890625 25.54736328125Q5.82373046875 25.341064453125 5.5 25.341064453125Z" /></g></svg>