<?xml version="1.0" encoding="utf-8" ?>
<svg baseProfile="full" height="36.0" version="1.1" width="11" xmlns="http://www.w3.org/2000/svg" xmlns:ev="http://www.w3.org/2001/xml-events" xmlns:xlink="http://www.w3.org/1999/xlink"><defs /><rect fill="black" height="36.0" width="11" x="0" y="0" /><rect fill="white" height="34.4" width="9.4" x="0.8" y="0.8" /><g fill="black"><path d="M6.9091796875 12.061767578125H5.12548828125V5.339599609375Q4.14794921875 6.253662109375 2.8212890625 6.691650390625V5.072998046875Q3.51953125 4.844482421875 4.33837890625 4.20654296875Q5.1572265625 3.568603515625 5.4619140625 2.718017578125H6.9091796875Z" /><path d="M8.626220703125 21.018310546875V22.675048828125H2.373779296875Q2.475341796875 21.735595703125 2.983154296875 20.89453125Q3.490966796875 20.053466796875 4.989013671875 18.663330078125Q6.195068359375 17.539794921875 6.468017578125 17.139892578125Q6.836181640625 16.587646484375 6.836181640625 16.048095703125Q6.836181640625 15.451416015625 6.515625 15.130859375Q6.195068359375 14.810302734375 5.630126953125 14.810302734375Q5.071533203125 14.810302734375 4.741455078125 15.146728515625Q4.411376953125 15.483154296875 4.360595703125 16.263916015625L2.583251953125 16.086181640625Q2.741943359375 14.613525390625 3.579833984375 13.972412109375Q4.417724609375 13.331298828125 5.674560546875 13.331298828125Q7.052001953125 13.331298828125 7.839111328125 14.073974609375Q8.626220703125 14.816650390625 8.626220703125 15.921142578125Q8.626220703125 16.549560546875 8.40087890625 17.11767578125Q8.175537109375 17.685791015625 7.686767578125 18.307861328125Q7.363037109375 18.720458984375 6.518798828125 19.494873046875Q5.674560546875 20.269287109375 5.44921875 20.523193359375Q5.223876953125 20.777099609375 5.084228515625 21.018310546875Z" /><path d="M2.37060546875 30.730224609375 4.14794921875 30.546142578125Q4.22412109375 31.149169921875 4.5986328125 31.50146484375Q4.97314453125 31.853759765625 5.4619140625 31.853759765625Q6.0205078125 31.853759765625 6.40771484375 31.39990234375Q6.794921875 30.946044921875 6.794921875 30.031982421875Q6.794921875 29.175048828125 6.410888671875 28.74658203125Q6.02685546875 28.318115234375 5.4111328125 28.318115234375Q4.64306640625 28.318115234375 4.03369140625 28.997314453125L2.58642578125 28.787841796875L3.50048828125 23.944580078125H8.216796875V25.614013671875H4.8525390625L4.5732421875 27.194580078125Q5.169921875 26.896240234375 5.7919921875 26.896240234375Q6.97900390625 26.896240234375 7.80419921875 27.759521484375Q8.62939453125 28.622802734375 8.62939453125 30.000244140625Q8.62939453125 31.149169921875 7.962890625 32.050537109375Q7.05517578125 33.281982421875 5.44287109375 33.281982421875Q4.154296875 33.281982421875 3.341796875 32.590087890625Q2.529296875 31.898193359375 2.37060546875 30.730224609375Z" /></g></svg>