<?xml version="1.0" encoding="utf-8" ?>
<svg baseProfile="full" height="36.0" version="1.1" width="11" xmlns="http://www.w3.org/2000/svg" xmlns:ev="http://www.w3.org/2001/xml-events" xmlns:xlink="http://www.w3.org/1999/xlink"><defs /><rect fill="black" height="36.0" width="11" x="0" y="0" /><rect fill="white" height="34.4" width="9.4" x="0.8" y="0.8" /><g fill="black"><path d="M6.9091796875 11.89990234375H5.12548828125V5.177734375Q4.14794921875 6.091796875 2.8212890625 6.52978515625V4.9111328125Q3.51953125 4.6826171875 4.33837890625 4.044677734375Q5.1572265625 3.40673828125 5.4619140625 2.55615234375H6.9091796875Z" /><path d="M2.40869140625 20.0439453125 4.13525390625 19.83447265625Q4.2177734375 20.49462890625 4.57958984375 20.84375Q4.94140625 21.19287109375 5.45556640625 21.19287109375Q6.0078125 21.19287109375 6.385498046875 20.77392578125Q6.76318359375 20.35498046875 6.76318359375 19.64404296875Q6.76318359375 18.97119140625 6.4013671875 18.57763671875Q6.03955078125 18.18408203125 5.51904296875 18.18408203125Q5.17626953125 18.18408203125 4.7001953125 18.3173828125L4.89697265625 16.86376953125Q5.62060546875 16.8828125 6.00146484375 16.549560546875Q6.38232421875 16.21630859375 6.38232421875 15.6640625Q6.38232421875 15.1943359375 6.10302734375 14.9150390625Q5.82373046875 14.6357421875 5.3603515625 14.6357421875Q4.9033203125 14.6357421875 4.57958984375 14.953125Q4.255859375 15.2705078125 4.18603515625 15.8798828125L2.5419921875 15.6005859375Q2.71337890625 14.75634765625 3.059326171875 14.251708984375Q3.4052734375 13.7470703125 4.024169921875 13.458251953125Q4.64306640625 13.16943359375 5.4111328125 13.16943359375Q6.72509765625 13.16943359375 7.5185546875 14.00732421875Q8.17236328125 14.69287109375 8.17236328125 15.55615234375Q8.17236328125 16.78125 6.8330078125 17.51123046875Q7.6328125 17.6826171875 8.112060546875 18.279296875Q8.59130859375 18.8759765625 8.59130859375 19.72021484375Q8.59130859375 20.9453125 7.6962890625 21.80859375Q6.80126953125 22.671875 5.46826171875 22.671875Q4.205078125 22.671875 3.37353515625 21.945068359375Q2.5419921875 21.21826171875 2.40869140625 20.0439453125Z" /><path d="M5.5 23.94140625Q6.85205078125 23.94140625 7.61376953125 24.90625Q8.521484375 26.048828125 8.521484375 28.69580078125Q8.521484375 31.33642578125 7.607421875 32.49169921875Q6.85205078125 33.44384765625 5.5 33.44384765625Q4.1416015625 33.44384765625 3.31005859375 32.399658203125Q2.478515625 31.35546875 2.478515625 28.6767578125Q2.478515625 26.048828125 3.392578125 24.8935546875Q4.14794921875 23.94140625 5.5 23.94140625ZM5.5 25.42041015625Q5.17626953125 25.42041015625 4.92236328125 25.626708984375Q4.66845703125 25.8330078125 4.52880859375 26.3662109375Q4.3447265625 27.05810546875 4.3447265625 28.69580078125Q4.3447265625 30.33349609375 4.509765625 30.946044921875Q4.6748046875 31.55859375 4.925537109375 31.76171875Q5.17626953125 31.96484375 5.5 31.96484375Q5.82373046875 31.96484375 6.07763671875 31.758544921875Q6.33154296875 31.55224609375 6.47119140625 31.01904296875Q6.6552734375 30.33349609375 6.6552734375 28.69580078125Q6.6552734375 27.05810546875 6.490234375 26.445556640625Q6.3251953125 25.8330078125 6.074462890625 25.626708984375Q5.82373046875 25.42041015625 5.5 25.42041015625Z" /></g></svg>