<?xml version="1.0" encoding="utf-8" ?>
<svg baseProfile="full" height="36.0" version="1.1" width="11" xmlns="http://www.w3.org/2000/svg" xmlns:ev="http://www.w3.org/2001/xml-events" xmlns:xlink="http://www.w3.org/1999/xlink"><defs /><rect fill="black" height="36.0" width="11" x="0" y="0" /><rect fill="white" height="34.4" width="9.4" x="0.8" y="0.8" /><g fill="black"><path d="M6.9091796875 11.982421875H5.12548828125V5.26025390625Q4.14794921875 6.17431640625 2.8212890625 6.6123046875V4.99365234375Q3.51953125 4.76513671875 4.33837890625 4.127197265625Q5.1572265625 3.4892578125 5.4619140625 2.638671875H6.9091796875Z" /><path d="M2.40869140625 20.12646484375 4.13525390625 19.9169921875Q4.2177734375 20.5771484375 4.57958984375 20.92626953125Q4.94140625 21.275390625 5.45556640625 21.275390625Q6.0078125 21.275390625 6.385498046875 20.8564453125Q6.76318359375 20.4375 6.76318359375 19.7265625Q6.76318359375 19.0537109375 6.4013671875 18.66015625Q6.03955078125 18.2666015625 5.51904296875 18.2666015625Q5.17626953125 18.2666015625 4.7001953125 18.39990234375L4.89697265625 16.9462890625Q5.62060546875 16.96533203125 6.00146484375 16.632080078125Q6.38232421875 16.298828125 6.38232421875 15.74658203125Q6.38232421875 15.27685546875 6.10302734375 14.99755859375Q5.82373046875 14.71826171875 5.3603515625 14.71826171875Q4.9033203125 14.71826171875 4.57958984375 15.03564453125Q4.255859375 15.35302734375 4.18603515625 15.96240234375L2.5419921875 15.68310546875Q2.71337890625 14.8388671875 3.059326171875 14.334228515625Q3.4052734375 13.82958984375 4.024169921875 13.540771484375Q4.64306640625 13.251953125 5.4111328125 13.251953125Q6.72509765625 13.251953125 7.5185546875 14.08984375Q8.17236328125 14.775390625 8.17236328125 15.638671875Q8.17236328125 16.86376953125 6.8330078125 17.59375Q7.6328125 17.76513671875 8.112060546875 18.36181640625Q8.59130859375 18.95849609375 8.59130859375 19.802734375Q8.59130859375 21.02783203125 7.6962890625 21.89111328125Q6.80126953125 22.75439453125 5.46826171875 22.75439453125Q4.205078125 22.75439453125 3.37353515625 22.027587890625Q2.5419921875 21.30078125 2.40869140625 20.12646484375Z" /><path d="M2.37060546875 30.8095703125 4.14794921875 30.62548828125Q4.22412109375 31.228515625 4.5986328125 31.580810546875Q4.97314453125 31.93310546875 5.4619140625 31.93310546875Q6.0205078125 31.93310546875 6.40771484375 31.479248046875Q6.794921875 31.025390625 6.794921875 30.111328125Q6.794921875 29.25439453125 6.410888671875 28.825927734375Q6.02685546875 28.3974609375 5.4111328125 28.3974609375Q4.64306640625 28.3974609375 4.03369140625 29.07666015625L2.58642578125 28.8671875L3.50048828125 24.02392578125H8.216796875V25.693359375H4.8525390625L4.5732421875 27.27392578125Q5.169921875 26.9755859375 5.7919921875 26.9755859375Q6.97900390625 26.9755859375 7.80419921875 27.8388671875Q8.62939453125 28.7021484375 8.62939453125 30.07958984375Q8.62939453125 31.228515625 7.962890625 32.1298828125Q7.05517578125 33.361328125 5.44287109375 33.361328125Q4.154296875 33.361328125 3.341796875 32.66943359375Q2.529296875 31.9775390625 2.37060546875 30.8095703125Z" /></g></svg>