<?xml version="1.0" encoding="utf-8" ?>
<svg baseProfile="full" height="36.0" version="1.1" width="11" xmlns="http://www.w3.org/2000/svg" xmlns:ev="http://www.w3.org/2001/xml-events" xmlns:xlink="http://www.w3.org/1999/xlink"><defs /><rect fill="black" height="36.0" width="11" x="0" y="0" /><rect fill="white" height="34.4" width="9.4" x="0.8" y="0.8" /><g fill="black"><path d="M6.9091796875 11.982421875H5.12548828125V5.26025390625Q4.14794921875 6.17431640625 2.8212890625 6.6123046875V4.99365234375Q3.51953125 4.76513671875 4.33837890625 4.127197265625Q5.1572265625 3.4892578125 5.4619140625 2.638671875H6.9091796875Z" /><path d="M2.37060546875 20.03759765625 4.14794921875 19.853515625Q4.22412109375 20.45654296875 4.5986328125 20.808837890625Q4.97314453125 21.1611328125 5.4619140625 21.1611328125Q6.0205078125 21.1611328125 6.40771484375 20.707275390625Q6.794921875 20.25341796875 6.794921875 19.33935546875Q6.794921875 18.482421875 6.410888671875 18.053955078125Q6.02685546875 17.62548828125 5.4111328125 17.62548828125Q4.64306640625 17.62548828125 4.03369140625 18.3046875L2.58642578125 18.09521484375L3.50048828125 13.251953125H8.216796875V14.92138671875H4.8525390625L4.5732421875 16.501953125Q5.169921875 16.20361328125 5.7919921875 16.20361328125Q6.97900390625 16.20361328125 7.80419921875 17.06689453125Q8.62939453125 17.93017578125 8.62939453125 19.3076171875Q8.62939453125 20.45654296875 7.962890625 21.35791015625Q7.05517578125 22.58935546875 5.44287109375 22.58935546875Q4.154296875 22.58935546875 3.341796875 21.8974609375Q2.529296875 21.20556640625 2.37060546875 20.03759765625Z" /><path d="M5.5 23.85888671875Q6.85205078125 23.85888671875 7.61376953125 24.82373046875Q8.521484375 25.96630859375 8.521484375 28.61328125Q8.521484375 31.25390625 7.607421875 32.4091796875Q6.85205078125 33.361328125 5.5 33.361328125Q4.1416015625 33.361328125 3.31005859375 32.317138671875Q2.478515625 31.27294921875 2.478515625 28.59423828125Q2.478515625 25.96630859375 3.392578125 24.81103515625Q4.14794921875 23.85888671875 5.5 23.85888671875ZM5.5 25.337890625Q5.17626953125 25.337890625 4.92236328125 25.544189453125Q4.66845703125 25.75048828125 4.52880859375 26.28369140625Q4.3447265625 26.9755859375 4.3447265625 28.61328125Q4.3447265625 30.2509765625 4.509765625 30.863525390625Q4.6748046875 31.47607421875 4.925537109375 31.67919921875Q5.17626953125 31.88232421875 5.5 31.88232421875Q5.82373046875 31.88232421875 6.07763671875 31.676025390625Q6.33154296875 31.4697265625 6.47119140625 30.9365234375Q6.6552734375 30.2509765625 6.6552734375 28.61328125Q6.6552734375 26.9755859375 6.490234375 26.363037109375Q6.3251953125 25.75048828125 6.074462890625 25.544189453125Q5.82373046875 25.337890625 5.5 25.337890625Z" /></g></svg>