<?xml version="1.0" encoding="utf-8" ?>
<svg baseProfile="full" height="36.0" version="1.1" width="11" xmlns="http://www.w3.org/2000/svg" xmlns:ev="http://www.w3.org/2001/xml-events" xmlns:xlink="http://www.w3.org/1999/xlink"><defs /><rect fill="black" height="36.0" width="11" x="0" y="0" /><rect fill="white" height="34.4" width="9.4" x="0.8" y="0.8" /><g fill="black"><path d="M6.9091796875 12.06494140625H5.12548828125V5.3427734375Q4.14794921875 6.2568359375 2.8212890625 6.69482421875V5.076171875Q3.51953125 4.84765625 4.33837890625 4.209716796875Q5.1572265625 3.57177734375 5.4619140625 2.72119140625H6.9091796875Z" /><path d="M2.37060546875 20.1201171875 4.14794921875 19.93603515625Q4.22412109375 20.5390625 4.5986328125 20.891357421875Q4.97314453125 21.24365234375 5.4619140625 21.24365234375Q6.0205078125 21.24365234375 6.40771484375 20.789794921875Q6.794921875 20.3359375 6.794921875 19.421875Q6.794921875 18.56494140625 6.410888671875 18.136474609375Q6.02685546875 17.7080078125 5.4111328125 17.7080078125Q4.64306640625 17.7080078125 4.03369140625 18.38720703125L2.58642578125 18.177734375L3.50048828125 13.33447265625H8.216796875V15.00390625H4.8525390625L4.5732421875 16.58447265625Q5.169921875 16.2861328125 5.7919921875 16.2861328125Q6.97900390625 16.2861328125 7.80419921875 17.1494140625Q8.62939453125 18.0126953125 8.62939453125 19.39013671875Q8.62939453125 20.5390625 7.962890625 21.4404296875Q7.05517578125 22.671875 5.44287109375 22.671875Q4.154296875 22.671875 3.341796875 21.97998046875Q2.529296875 21.2880859375 2.37060546875 20.1201171875Z" /><path d="M2.37060546875 30.72705078125 4.14794921875 30.54296875Q4.22412109375 31.14599609375 4.5986328125 31.498291015625Q4.97314453125 31.8505859375 5.4619140625 31.8505859375Q6.0205078125 31.8505859375 6.40771484375 31.396728515625Q6.794921875 30.94287109375 6.794921875 30.02880859375Q6.794921875 29.171875 6.410888671875 28.743408203125Q6.02685546875 28.31494140625 5.4111328125 28.31494140625Q4.64306640625 28.31494140625 4.03369140625 28.994140625L2.58642578125 28.78466796875L3.50048828125 23.94140625H8.216796875V25.61083984375H4.8525390625L4.5732421875 27.19140625Q5.169921875 26.89306640625 5.7919921875 26.89306640625Q6.97900390625 26.89306640625 7.80419921875 27.75634765625Q8.62939453125 28.61962890625 8.62939453125 29.9970703125Q8.62939453125 31.14599609375 7.962890625 32.04736328125Q7.05517578125 33.27880859375 5.44287109375 33.27880859375Q4.154296875 33.27880859375 3.341796875 32.5869140625Q2.529296875 31.89501953125 2.37060546875 30.72705078125Z" /></g></svg>