<?xml version="1.0" encoding="utf-8" ?>
<svg baseProfile="full" height="36.0" version="1.1" width="11" xmlns="http://www.w3.org/2000/svg" xmlns:ev="http://www.w3.org/2001/xml-events" xmlns:xlink="http://www.w3.org/1999/xlink"><defs /><rect fill="black" height="36.0" width="11" x="0" y="0" /><rect fill="white" height="34.4" width="9.4" x="0.8" y="0.8" /><g fill="black"><path d="M6.9091796875 11.89990234375H5.12548828125V5.177734375Q4.14794921875 6.091796875 2.8212890625 6.52978515625V4.9111328125Q3.51953125 4.6826171875 4.33837890625 4.044677734375Q5.1572265625 3.40673828125 5.4619140625 2.55615234375H6.9091796875Z" /><path d="M8.435791015625 15.486328125 6.709228515625 15.6767578125Q6.645751953125 15.1435546875 6.379150390625 14.8896484375Q6.112548828125 14.6357421875 5.687255859375 14.6357421875Q5.122314453125 14.6357421875 4.73193359375 15.1435546875Q4.341552734375 15.6513671875 4.239990234375 17.25732421875Q4.906494140625 16.47021484375 5.896728515625 16.47021484375Q7.013916015625 16.47021484375 7.810546875 17.32080078125Q8.607177734375 18.17138671875 8.607177734375 19.51708984375Q8.607177734375 20.9453125 7.769287109375 21.80859375Q6.931396484375 22.671875 5.617431640625 22.671875Q4.208251953125 22.671875 3.300537109375 21.576904296875Q2.392822265625 20.48193359375 2.392822265625 17.9873046875Q2.392822265625 15.42919921875 3.338623046875 14.29931640625Q4.284423828125 13.16943359375 5.795166015625 13.16943359375Q6.855224609375 13.16943359375 7.55029296875 13.762939453125Q8.245361328125 14.3564453125 8.435791015625 15.486328125ZM4.392333984375 19.37744140625Q4.392333984375 20.2470703125 4.792236328125 20.719970703125Q5.192138671875 21.19287109375 5.706298828125 21.19287109375Q6.201416015625 21.19287109375 6.531494140625 20.8056640625Q6.861572265625 20.41845703125 6.861572265625 19.5361328125Q6.861572265625 18.62841796875 6.506103515625 18.206298828125Q6.150634765625 17.7841796875 5.617431640625 17.7841796875Q5.103271484375 17.7841796875 4.747802734375 18.187255859375Q4.392333984375 18.59033203125 4.392333984375 19.37744140625Z" /><path d="M5.5 23.94140625Q6.85205078125 23.94140625 7.61376953125 24.90625Q8.521484375 26.048828125 8.521484375 28.69580078125Q8.521484375 31.33642578125 7.607421875 32.49169921875Q6.85205078125 33.44384765625 5.5 33.44384765625Q4.1416015625 33.44384765625 3.31005859375 32.399658203125Q2.478515625 31.35546875 2.478515625 28.6767578125Q2.478515625 26.048828125 3.392578125 24.8935546875Q4.14794921875 23.94140625 5.5 23.94140625ZM5.5 25.42041015625Q5.17626953125 25.42041015625 4.92236328125 25.626708984375Q4.66845703125 25.8330078125 4.52880859375 26.3662109375Q4.3447265625 27.05810546875 4.3447265625 28.69580078125Q4.3447265625 30.33349609375 4.509765625 30.946044921875Q4.6748046875 31.55859375 4.925537109375 31.76171875Q5.17626953125 31.96484375 5.5 31.96484375Q5.82373046875 31.96484375 6.07763671875 31.758544921875Q6.33154296875 31.55224609375 6.47119140625 31.01904296875Q6.6552734375 30.33349609375 6.6552734375 28.69580078125Q6.6552734375 27.05810546875 6.490234375 26.445556640625Q6.3251953125 25.8330078125 6.074462890625 25.626708984375Q5.82373046875 25.42041015625 5.5 25.42041015625Z" /></g></svg>