<?xml version="1.0" encoding="utf-8" ?>
<svg baseProfile="full" height="30.0" version="1.1" width="11" xmlns="http://www.w3.org/2000/svg" xmlns:ev="http://www.w3.org/2001/xml-events" xmlns:xlink="http://www.w3.org/1999/xlink"><defs /><rect fill="black" height="30.0" width="11" x="0" y="0" /><rect fill="white" height="28.4" width="9.4" x="0.8" y="0.8" /><g fill="black"><path d="M8.626220703125 12.629150390625V14.285888671875H2.373779296875Q2.475341796875 13.346435546875 2.983154296875 12.50537109375Q3.490966796875 11.664306640625 4.989013671875 10.274169921875Q6.195068359375 9.150634765625 6.468017578125 8.750732421875Q6.836181640625 8.198486328125 6.836181640625 7.658935546875Q6.836181640625 7.062255859375 6.515625 6.74169921875Q6.195068359375 6.421142578125 5.630126953125 6.421142578125Q5.071533203125 6.421142578125 4.741455078125 6.757568359375Q4.411376953125 7.093994140625 4.360595703125 7.874755859375L2.583251953125 7.697021484375Q2.741943359375 6.224365234375 3.579833984375 5.583251953125Q4.417724609375 4.942138671875 5.674560546875 4.942138671875Q7.052001953125 4.942138671875 7.839111328125 5.684814453125Q8.626220703125 6.427490234375 8.626220703125 7.531982421875Q8.626220703125 8.160400390625 8.40087890625 8.728515625Q8.175537109375 9.296630859375 7.686767578125 9.918701171875Q7.363037109375 10.331298828125 6.518798828125 11.105712890625Q5.674560546875 11.880126953125 5.44921875 12.134033203125Q5.223876953125 12.387939453125 5.084228515625 12.629150390625Z" /><path d="M5.5 15.555419921875Q6.85205078125 15.555419921875 7.61376953125 16.520263671875Q8.521484375 17.662841796875 8.521484375 20.309814453125Q8.521484375 22.950439453125 7.607421875 24.105712890625Q6.85205078125 25.057861328125 5.5 25.057861328125Q4.1416015625 25.057861328125 3.31005859375 24.013671875Q2.478515625 22.969482421875 2.478515625 20.290771484375Q2.478515625 17.662841796875 3.392578125 16.507568359375Q4.14794921875 15.555419921875 5.5 15.555419921875ZM5.5 17.034423828125Q5.17626953125 17.034423828125 4.92236328125 17.24072265625Q4.66845703125 17.447021484375 4.52880859375 17.980224609375Q4.3447265625 18.672119140625 4.3447265625 20.309814453125Q4.3447265625 21.947509765625 4.509765625 22.56005859375Q4.6748046875 23.172607421875 4.925537109375 23.375732421875Q5.17626953125 23.578857421875 5.5 23.578857421875Q5.82373046875 23.578857421875 6.07763671875 23.37255859375Q6.33154296875 23.166259765625 6.47119140625 22.633056640625Q6.6552734375 21.947509765625 6.6552734375 20.309814453125Q6.6552734375 18.672119140625 6.490234375 18.0595703125Q6.3251953125 17.447021484375 6.074462890625 17.24072265625Q5.82373046875 17.034423828125 5.5 17.034423828125Z" /></g></svg>