<?xml version="1.0" encoding="utf-8" ?>
<svg baseProfile="full" height="30.0" version="1.1" width="11" xmlns="http://www.w3.org/2000/svg" xmlns:ev="http://www.w3.org/2001/xml-events" xmlns:xlink="http://www.w3.org/1999/xlink"><defs /><rect fill="black" height="30.0" width="11" x="0" y="0" /><rect fill="white" height="28.4" width="9.4" x="0.8" y="0.8" /><g fill="black"><path d="M8.626220703125 12.711669921875V14.368408203125H2.373779296875Q2.475341796875 13.428955078125 2.983154296875 12.587890625Q3.490966796875 11.746826171875 4.989013671875 10.356689453125Q6.195068359375 9.233154296875 6.468017578125 8.833251953125Q6.836181640625 8.281005859375 6.836181640625 7.741455078125Q6.836181640625 7.144775390625 6.515625 6.82421875Q6.195068359375 6.503662109375 5.630126953125 6.503662109375Q5.071533203125 6.503662109375 4.741455078125 6.840087890625Q4.411376953125 7.176513671875 4.360595703125 7.957275390625L2.583251953125 7.779541015625Q2.741943359375 6.306884765625 3.579833984375 5.665771484375Q4.417724609375 5.024658203125 5.674560546875 5.024658203125Q7.052001953125 5.024658203125 7.839111328125 5.767333984375Q8.626220703125 6.510009765625 8.626220703125 7.614501953125Q8.626220703125 8.242919921875 8.40087890625 8.81103515625Q8.175537109375 9.379150390625 7.686767578125 10.001220703125Q7.363037109375 10.413818359375 6.518798828125 11.188232421875Q5.674560546875 11.962646484375 5.44921875 12.216552734375Q5.223876953125 12.470458984375 5.084228515625 12.711669921875Z" /><path d="M2.37060546875 22.423583984375 4.14794921875 22.239501953125Q4.22412109375 22.842529296875 4.5986328125 23.19482421875Q4.97314453125 23.547119140625 5.4619140625 23.547119140625Q6.0205078125 23.547119140625 6.40771484375 23.09326171875Q6.794921875 22.639404296875 6.794921875 21.725341796875Q6.794921875 20.868408203125 6.410888671875 20.43994140625Q6.02685546875 20.011474609375 5.4111328125 20.011474609375Q4.64306640625 20.011474609375 4.03369140625 20.690673828125L2.58642578125 20.481201171875L3.50048828125 15.637939453125H8.216796875V17.307373046875H4.8525390625L4.5732421875 18.887939453125Q5.169921875 18.589599609375 5.7919921875 18.589599609375Q6.97900390625 18.589599609375 7.80419921875 19.452880859375Q8.62939453125 20.316162109375 8.62939453125 21.693603515625Q8.62939453125 22.842529296875 7.962890625 23.743896484375Q7.05517578125 24.975341796875 5.44287109375 24.975341796875Q4.154296875 24.975341796875 3.341796875 24.283447265625Q2.529296875 23.591552734375 2.37060546875 22.423583984375Z" /></g></svg>