<?xml version="1.0" encoding="utf-8" ?>
<svg baseProfile="full" height="30.0" version="1.1" width="11" xmlns="http://www.w3.org/2000/svg" xmlns:ev="http://www.w3.org/2001/xml-events" xmlns:xlink="http://www.w3.org/1999/xlink"><defs /><rect fill="black" height="30.0" width="11" x="0" y="0" /><rect fill="white" height="28.4" width="9.4" x="0.8" y="0.8" /><g fill="black"><path d="M2.40869140625 11.7373046875 4.13525390625 11.52783203125Q4.2177734375 12.18798828125 4.57958984375 12.537109375Q4.94140625 12.88623046875 5.45556640625 12.88623046875Q6.0078125 12.88623046875 6.385498046875 12.46728515625Q6.76318359375 12.04833984375 6.76318359375 11.33740234375Q6.76318359375 10.66455078125 6.4013671875 10.27099609375Q6.03955078125 9.87744140625 5.51904296875 9.87744140625Q5.17626953125 9.87744140625 4.7001953125 10.0107421875L4.89697265625 8.55712890625Q5.62060546875 8.576171875 6.00146484375 8.242919921875Q6.38232421875 7.90966796875 6.38232421875 7.357421875Q6.38232421875 6.8876953125 6.10302734375 6.6083984375Q5.82373046875 6.3291015625 5.3603515625 6.3291015625Q4.9033203125 6.3291015625 4.57958984375 6.646484375Q4.255859375 6.9638671875 4.18603515625 7.5732421875L2.5419921875 7.2939453125Q2.71337890625 6.44970703125 3.059326171875 5.945068359375Q3.4052734375 5.4404296875 4.024169921875 5.151611328125Q4.64306640625 4.86279296875 5.4111328125 4.86279296875Q6.72509765625 4.86279296875 7.5185546875 5.70068359375Q8.17236328125 6.38623046875 8.17236328125 7.24951171875Q8.17236328125 8.474609375 6.8330078125 9.20458984375Q7.6328125 9.3759765625 8.112060546875 9.97265625Q8.59130859375 10.5693359375 8.59130859375 11.41357421875Q8.59130859375 12.638671875 7.6962890625 13.501953125Q6.80126953125 14.365234375 5.46826171875 14.365234375Q4.205078125 14.365234375 3.37353515625 13.638427734375Q2.5419921875 12.91162109375 2.40869140625 11.7373046875Z" /><path d="M5.5 15.634765625Q6.85205078125 15.634765625 7.61376953125 16.599609375Q8.521484375 17.7421875 8.521484375 20.38916015625Q8.521484375 23.02978515625 7.607421875 24.18505859375Q6.85205078125 25.13720703125 5.5 25.13720703125Q4.1416015625 25.13720703125 3.31005859375 24.093017578125Q2.478515625 23.048828125 2.478515625 20.3701171875Q2.478515625 17.7421875 3.392578125 16.5869140625Q4.14794921875 15.634765625 5.5 15.634765625ZM5.5 17.11376953125Q5.17626953125 17.11376953125 4.92236328125 17.320068359375Q4.66845703125 17.5263671875 4.52880859375 18.0595703125Q4.3447265625 18.75146484375 4.3447265625 20.38916015625Q4.3447265625 22.02685546875 4.509765625 22.639404296875Q4.6748046875 23.251953125 4.925537109375 23.455078125Q5.17626953125 23.658203125 5.5 23.658203125Q5.82373046875 23.658203125 6.07763671875 23.451904296875Q6.33154296875 23.24560546875 6.47119140625 22.71240234375Q6.6552734375 22.02685546875 6.6552734375 20.38916015625Q6.6552734375 18.75146484375 6.490234375 18.138916015625Q6.3251953125 17.5263671875 6.074462890625 17.320068359375Q5.82373046875 17.11376953125 5.5 17.11376953125Z" /></g></svg>