<?xml version="1.0" encoding="utf-8" ?>
<svg baseProfile="full" height="30.0" version="1.1" width="11" xmlns="http://www.w3.org/2000/svg" xmlns:ev="http://www.w3.org/2001/xml-events" xmlns:xlink="http://www.w3.org/1999/xlink"><defs /><rect fill="black" height="30.0" width="11" x="0" y="0" /><rect fill="white" height="28.4" width="9.4" x="0.8" y="0.8" /><g fill="black"><path d="M2.40869140625 11.81982421875 4.13525390625 11.6103515625Q4.2177734375 12.2705078125 4.57958984375 12.61962890625Q4.94140625 12.96875 5.45556640625 12.96875Q6.0078125 12.96875 6.385498046875 12.5498046875Q6.76318359375 12.130859375 6.76318359375 11.419921875Q6.76318359375 10.7470703125 6.4013671875 10.353515625Q6.03955078125 9.9599609375 5.51904296875 9.9599609375Q5.17626953125 9.9599609375 4.7001953125 10.09326171875L4.89697265625 8.6396484375Q5.62060546875 8.65869140625 6.00146484375 8.325439453125Q6.38232421875 7.9921875 6.38232421875 7.43994140625Q6.38232421875 6.97021484375 6.10302734375 6.69091796875Q5.82373046875 6.41162109375 5.3603515625 6.41162109375Q4.9033203125 6.41162109375 4.57958984375 6.72900390625Q4.255859375 7.04638671875 4.18603515625 7.65576171875L2.5419921875 7.37646484375Q2.71337890625 6.5322265625 3.059326171875 6.027587890625Q3.4052734375 5.52294921875 4.024169921875 5.234130859375Q4.64306640625 4.9453125 5.4111328125 4.9453125Q6.72509765625 4.9453125 7.5185546875 5.783203125Q8.17236328125 6.46875 8.17236328125 7.33203125Q8.17236328125 8.55712890625 6.8330078125 9.287109375Q7.6328125 9.45849609375 8.112060546875 10.05517578125Q8.59130859375 10.65185546875 8.59130859375 11.49609375Q8.59130859375 12.72119140625 7.6962890625 13.58447265625Q6.80126953125 14.44775390625 5.46826171875 14.44775390625Q4.205078125 14.44775390625 3.37353515625 13.720947265625Q2.5419921875 12.994140625 2.40869140625 11.81982421875Z" /><path d="M2.37060546875 22.5029296875 4.14794921875 22.31884765625Q4.22412109375 22.921875 4.5986328125 23.274169921875Q4.97314453125 23.62646484375 5.4619140625 23.62646484375Q6.0205078125 23.62646484375 6.40771484375 23.172607421875Q6.794921875 22.71875 6.794921875 21.8046875Q6.794921875 20.94775390625 6.410888671875 20.519287109375Q6.02685546875 20.0908203125 5.4111328125 20.0908203125Q4.64306640625 20.0908203125 4.03369140625 20.77001953125L2.58642578125 20.560546875L3.50048828125 15.71728515625H8.216796875V17.38671875H4.8525390625L4.5732421875 18.96728515625Q5.169921875 18.6689453125 5.7919921875 18.6689453125Q6.97900390625 18.6689453125 7.80419921875 19.5322265625Q8.62939453125 20.3955078125 8.62939453125 21.77294921875Q8.62939453125 22.921875 7.962890625 23.8232421875Q7.05517578125 25.0546875 5.44287109375 25.0546875Q4.154296875 25.0546875 3.341796875 24.36279296875Q2.529296875 23.6708984375 2.37060546875 22.5029296875Z" /></g></svg>