<?xml version="1.0" encoding="utf-8" ?>
<svg baseProfile="full" height="30.0" version="1.1" width="11" xmlns="http://www.w3.org/2000/svg" xmlns:ev="http://www.w3.org/2001/xml-events" xmlns:xlink="http://www.w3.org/1999/xlink"><defs /><rect fill="black" height="30.0" width="11" x="0" y="0" /><rect fill="white" height="28.4" width="9.4" x="0.8" y="0.8" /><g fill="black"><path d="M5.96337890625 14.368408203125V12.495849609375H2.15478515625V10.934326171875L6.19189453125 5.024658203125H7.68994140625V10.927978515625H8.84521484375V12.495849609375H7.68994140625V14.368408203125ZM5.96337890625 10.927978515625V7.747802734375L3.82421875 10.927978515625Z" /><path d="M2.37060546875 22.423583984375 4.14794921875 22.239501953125Q4.22412109375 22.842529296875 4.5986328125 23.19482421875Q4.97314453125 23.547119140625 5.4619140625 23.547119140625Q6.0205078125 23.547119140625 6.40771484375 23.09326171875Q6.794921875 22.639404296875 6.794921875 21.725341796875Q6.794921875 20.868408203125 6.410888671875 20.43994140625Q6.02685546875 20.011474609375 5.4111328125 20.011474609375Q4.64306640625 20.011474609375 4.03369140625 20.690673828125L2.58642578125 20.481201171875L3.50048828125 15.637939453125H8.216796875V17.307373046875H4.8525390625L4.5732421875 18.887939453125Q5.169921875 18.589599609375 5.7919921875 18.589599609375Q6.97900390625 18.589599609375 7.80419921875 19.452880859375Q8.62939453125 20.316162109375 8.62939453125 21.693603515625Q8.62939453125 22.842529296875 7.962890625 23.743896484375Q7.05517578125 24.975341796875 5.44287109375 24.975341796875Q4.154296875 24.975341796875 3.341796875 24.283447265625Q2.529296875 23.591552734375 2.37060546875 22.423583984375Z" /></g></svg>