<?xml version="1.0" encoding="utf-8" ?>
<svg baseProfile="full" height="30.0" version="1.1" width="11" xmlns="http://www.w3.org/2000/svg" xmlns:ev="http://www.w3.org/2001/xml-events" xmlns:xlink="http://www.w3.org/1999/xlink"><defs /><rect fill="black" height="30.0" width="11" x="0" y="0" /><rect fill="white" height="28.4" width="9.4" x="0.8" y="0.8" /><g fill="black"><path d="M2.37060546875 11.73095703125 4.14794921875 11.546875Q4.22412109375 12.14990234375 4.5986328125 12.502197265625Q4.97314453125 12.8544921875 5.4619140625 12.8544921875Q6.0205078125 12.8544921875 6.40771484375 12.400634765625Q6.794921875 11.94677734375 6.794921875 11.03271484375Q6.794921875 10.17578125 6.410888671875 9.747314453125Q6.02685546875 9.31884765625 5.4111328125 9.31884765625Q4.64306640625 9.31884765625 4.03369140625 9.998046875L2.58642578125 9.78857421875L3.50048828125 4.9453125H8.216796875V6.61474609375H4.8525390625L4.5732421875 8.1953125Q5.169921875 7.89697265625 5.7919921875 7.89697265625Q6.97900390625 7.89697265625 7.80419921875 8.76025390625Q8.62939453125 9.62353515625 8.62939453125 11.0009765625Q8.62939453125 12.14990234375 7.962890625 13.05126953125Q7.05517578125 14.28271484375 5.44287109375 14.28271484375Q4.154296875 14.28271484375 3.341796875 13.5908203125Q2.529296875 12.89892578125 2.37060546875 11.73095703125Z" /><path d="M5.5 15.55224609375Q6.85205078125 15.55224609375 7.61376953125 16.51708984375Q8.521484375 17.65966796875 8.521484375 20.306640625Q8.521484375 22.947265625 7.607421875 24.1025390625Q6.85205078125 25.0546875 5.5 25.0546875Q4.1416015625 25.0546875 3.31005859375 24.010498046875Q2.478515625 22.96630859375 2.478515625 20.28759765625Q2.478515625 17.65966796875 3.392578125 16.50439453125Q4.14794921875 15.55224609375 5.5 15.55224609375ZM5.5 17.03125Q5.17626953125 17.03125 4.92236328125 17.237548828125Q4.66845703125 17.44384765625 4.52880859375 17.97705078125Q4.3447265625 18.6689453125 4.3447265625 20.306640625Q4.3447265625 21.9443359375 4.509765625 22.556884765625Q4.6748046875 23.16943359375 4.925537109375 23.37255859375Q5.17626953125 23.57568359375 5.5 23.57568359375Q5.82373046875 23.57568359375 6.07763671875 23.369384765625Q6.33154296875 23.1630859375 6.47119140625 22.6298828125Q6.6552734375 21.9443359375 6.6552734375 20.306640625Q6.6552734375 18.6689453125 6.490234375 18.056396484375Q6.3251953125 17.44384765625 6.074462890625 17.237548828125Q5.82373046875 17.03125 5.5 17.03125Z" /></g></svg>