<?xml version="1.0" encoding="utf-8" ?>
<svg baseProfile="full" height="30.0" version="1.1" width="11" xmlns="http://www.w3.org/2000/svg" xmlns:ev="http://www.w3.org/2001/xml-events" xmlns:xlink="http://www.w3.org/1999/xlink"><defs /><rect fill="black" height="30.0" width="11" x="0" y="0" /><rect fill="white" height="28.4" width="9.4" x="0.8" y="0.8" /><g fill="black"><path d="M2.37060546875 11.8134765625 4.14794921875 11.62939453125Q4.22412109375 12.232421875 4.5986328125 12.584716796875Q4.97314453125 12.93701171875 5.4619140625 12.93701171875Q6.0205078125 12.93701171875 6.40771484375 12.483154296875Q6.794921875 12.029296875 6.794921875 11.115234375Q6.794921875 10.25830078125 6.410888671875 9.829833984375Q6.02685546875 9.4013671875 5.4111328125 9.4013671875Q4.64306640625 9.4013671875 4.03369140625 10.08056640625L2.58642578125 9.87109375L3.50048828125 5.02783203125H8.216796875V6.697265625H4.8525390625L4.5732421875 8.27783203125Q5.169921875 7.9794921875 5.7919921875 7.9794921875Q6.97900390625 7.9794921875 7.80419921875 8.8427734375Q8.62939453125 9.7060546875 8.62939453125 11.08349609375Q8.62939453125 12.232421875 7.962890625 13.1337890625Q7.05517578125 14.365234375 5.44287109375 14.365234375Q4.154296875 14.365234375 3.341796875 13.67333984375Q2.529296875 12.9814453125 2.37060546875 11.8134765625Z" /><path d="M2.37060546875 22.42041015625 4.14794921875 22.236328125Q4.22412109375 22.83935546875 4.5986328125 23.191650390625Q4.97314453125 23.5439453125 5.4619140625 23.5439453125Q6.0205078125 23.5439453125 6.40771484375 23.090087890625Q6.794921875 22.63623046875 6.794921875 21.72216796875Q6.794921875 20.865234375 6.410888671875 20.436767578125Q6.02685546875 20.00830078125 5.4111328125 20.00830078125Q4.64306640625 20.00830078125 4.03369140625 20.6875L2.58642578125 20.47802734375L3.50048828125 15.634765625H8.216796875V17.30419921875H4.8525390625L4.5732421875 18.884765625Q5.169921875 18.58642578125 5.7919921875 18.58642578125Q6.97900390625 18.58642578125 7.80419921875 19.44970703125Q8.62939453125 20.31298828125 8.62939453125 21.6904296875Q8.62939453125 22.83935546875 7.962890625 23.74072265625Q7.05517578125 24.97216796875 5.44287109375 24.97216796875Q4.154296875 24.97216796875 3.341796875 24.2802734375Q2.529296875 23.58837890625 2.37060546875 22.42041015625Z" /></g></svg>