<?xml version="1.0" encoding="utf-8" ?>
<svg baseProfile="full" height="30.0" version="1.1" width="11" xmlns="http://www.w3.org/2000/svg" xmlns:ev="http://www.w3.org/2001/xml-events" xmlns:xlink="http://www.w3.org/1999/xlink"><defs /><rect fill="black" height="30.0" width="11" x="0" y="0" /><rect fill="white" height="28.4" width="9.4" x="0.8" y="0.8" /><g fill="black"><path d="M8.435791015625 7.1796875 6.709228515625 7.3701171875Q6.645751953125 6.8369140625 6.379150390625 6.5830078125Q6.112548828125 6.3291015625 5.687255859375 6.3291015625Q5.122314453125 6.3291015625 4.73193359375 6.8369140625Q4.341552734375 7.3447265625 4.239990234375 8.95068359375Q4.906494140625 8.16357421875 5.896728515625 8.16357421875Q7.013916015625 8.16357421875 7.810546875 9.01416015625Q8.607177734375 9.86474609375 8.607177734375 11.21044921875Q8.607177734375 12.638671875 7.769287109375 13.501953125Q6.931396484375 14.365234375 5.617431640625 14.365234375Q4.208251953125 14.365234375 3.300537109375 13.270263671875Q2.392822265625 12.17529296875 2.392822265625 9.6806640625Q2.392822265625 7.12255859375 3.338623046875 5.99267578125Q4.284423828125 4.86279296875 5.795166015625 4.86279296875Q6.855224609375 4.86279296875 7.55029296875 5.456298828125Q8.245361328125 6.0498046875 8.435791015625 7.1796875ZM4.392333984375 11.07080078125Q4.392333984375 11.9404296875 4.792236328125 12.413330078125Q5.192138671875 12.88623046875 5.706298828125 12.88623046875Q6.201416015625 12.88623046875 6.531494140625 12.4990234375Q6.861572265625 12.11181640625 6.861572265625 11.2294921875Q6.861572265625 10.32177734375 6.506103515625 9.899658203125Q6.150634765625 9.4775390625 5.617431640625 9.4775390625Q5.103271484375 9.4775390625 4.747802734375 9.880615234375Q4.392333984375 10.28369140625 4.392333984375 11.07080078125Z" /><path d="M5.5 15.634765625Q6.85205078125 15.634765625 7.61376953125 16.599609375Q8.521484375 17.7421875 8.521484375 20.38916015625Q8.521484375 23.02978515625 7.607421875 24.18505859375Q6.85205078125 25.13720703125 5.5 25.13720703125Q4.1416015625 25.13720703125 3.31005859375 24.093017578125Q2.478515625 23.048828125 2.478515625 20.3701171875Q2.478515625 17.7421875 3.392578125 16.5869140625Q4.14794921875 15.634765625 5.5 15.634765625ZM5.5 17.11376953125Q5.17626953125 17.11376953125 4.92236328125 17.320068359375Q4.66845703125 17.5263671875 4.52880859375 18.0595703125Q4.3447265625 18.75146484375 4.3447265625 20.38916015625Q4.3447265625 22.02685546875 4.509765625 22.639404296875Q4.6748046875 23.251953125 4.925537109375 23.455078125Q5.17626953125 23.658203125 5.5 23.658203125Q5.82373046875 23.658203125 6.07763671875 23.451904296875Q6.33154296875 23.24560546875 6.47119140625 22.71240234375Q6.6552734375 22.02685546875 6.6552734375 20.38916015625Q6.6552734375 18.75146484375 6.490234375 18.138916015625Q6.3251953125 17.5263671875 6.074462890625 17.320068359375Q5.82373046875 17.11376953125 5.5 17.11376953125Z" /></g></svg>