<?xml version="1.0" encoding="utf-8" ?>
<svg baseProfile="full" height="30.0" version="1.1" width="11" xmlns="http://www.w3.org/2000/svg" xmlns:ev="http://www.w3.org/2001/xml-events" xmlns:xlink="http://www.w3.org/1999/xlink"><defs /><rect fill="black" height="30.0" width="11" x="0" y="0" /><rect fill="white" height="28.4" width="9.4" x="0.8" y="0.8" /><g fill="black"><path d="M8.435791015625 7.26220703125 6.709228515625 7.45263671875Q6.645751953125 6.91943359375 6.379150390625 6.66552734375Q6.112548828125 6.41162109375 5.687255859375 6.41162109375Q5.122314453125 6.41162109375 4.73193359375 6.91943359375Q4.341552734375 7.42724609375 4.239990234375 9.033203125Q4.906494140625 8.24609375 5.896728515625 8.24609375Q7.013916015625 8.24609375 7.810546875 9.0966796875Q8.607177734375 9.947265625 8.607177734375 11.29296875Q8.607177734375 12.72119140625 7.769287109375 13.58447265625Q6.931396484375 14.44775390625 5.617431640625 14.44775390625Q4.208251953125 14.44775390625 3.300537109375 13.352783203125Q2.392822265625 12.2578125 2.392822265625 9.76318359375Q2.392822265625 7.205078125 3.338623046875 6.0751953125Q4.284423828125 4.9453125 5.795166015625 4.9453125Q6.855224609375 4.9453125 7.55029296875 5.538818359375Q8.245361328125 6.13232421875 8.435791015625 7.26220703125ZM4.392333984375 11.1533203125Q4.392333984375 12.02294921875 4.792236328125 12.495849609375Q5.192138671875 12.96875 5.706298828125 12.96875Q6.201416015625 12.96875 6.531494140625 12.58154296875Q6.861572265625 12.1943359375 6.861572265625 11.31201171875Q6.861572265625 10.404296875 6.506103515625 9.982177734375Q6.150634765625 9.56005859375 5.617431640625 9.56005859375Q5.103271484375 9.56005859375 4.747802734375 9.963134765625Q4.392333984375 10.3662109375 4.392333984375 11.1533203125Z" /><path d="M2.37060546875 22.5029296875 4.14794921875 22.31884765625Q4.22412109375 22.921875 4.5986328125 23.274169921875Q4.97314453125 23.62646484375 5.4619140625 23.62646484375Q6.0205078125 23.62646484375 6.40771484375 23.172607421875Q6.794921875 22.71875 6.794921875 21.8046875Q6.794921875 20.94775390625 6.410888671875 20.519287109375Q6.02685546875 20.0908203125 5.4111328125 20.0908203125Q4.64306640625 20.0908203125 4.03369140625 20.77001953125L2.58642578125 20.560546875L3.50048828125 15.71728515625H8.216796875V17.38671875H4.8525390625L4.5732421875 18.96728515625Q5.169921875 18.6689453125 5.7919921875 18.6689453125Q6.97900390625 18.6689453125 7.80419921875 19.5322265625Q8.62939453125 20.3955078125 8.62939453125 21.77294921875Q8.62939453125 22.921875 7.962890625 23.8232421875Q7.05517578125 25.0546875 5.44287109375 25.0546875Q4.154296875 25.0546875 3.341796875 24.36279296875Q2.529296875 23.6708984375 2.37060546875 22.5029296875Z" /></g></svg>