<?xml version="1.0" encoding="utf-8" ?>
<svg baseProfile="full" height="30.0" version="1.1" width="11" xmlns="http://www.w3.org/2000/svg" xmlns:ev="http://www.w3.org/2001/xml-events" xmlns:xlink="http://www.w3.org/1999/xlink"><defs /><rect fill="black" height="30.0" width="11" x="0" y="0" /><rect fill="white" height="28.4" width="9.4" x="0.8" y="0.8" /><g fill="black"><path d="M2.449951171875 6.681396484375V5.024658203125H8.550048828125V6.319580078125Q7.794677734375 7.062255859375 7.013916015625 8.452392578125Q6.233154296875 9.842529296875 5.82373046875 11.4072265625Q5.414306640625 12.971923828125 5.420654296875 14.203369140625H3.700439453125Q3.744873046875 12.273681640625 4.4970703125 10.267822265625Q5.249267578125 8.261962890625 6.506103515625 6.681396484375Z" /><path d="M5.5 15.472900390625Q6.85205078125 15.472900390625 7.61376953125 16.437744140625Q8.521484375 17.580322265625 8.521484375 20.227294921875Q8.521484375 22.867919921875 7.607421875 24.023193359375Q6.85205078125 24.975341796875 5.5 24.975341796875Q4.1416015625 24.975341796875 3.31005859375 23.93115234375Q2.478515625 22.886962890625 2.478515625 20.208251953125Q2.478515625 17.580322265625 3.392578125 16.425048828125Q4.14794921875 15.472900390625 5.5 15.472900390625ZM5.5 16.951904296875Q5.17626953125 16.951904296875 4.92236328125 17.158203125Q4.66845703125 17.364501953125 4.52880859375 17.897705078125Q4.3447265625 18.589599609375 4.3447265625 20.227294921875Q4.3447265625 21.864990234375 4.509765625 22.4775390625Q4.6748046875 23.090087890625 4.925537109375 23.293212890625Q5.17626953125 23.496337890625 5.5 23.496337890625Q5.82373046875 23.496337890625 6.07763671875 23.2900390625Q6.33154296875 23.083740234375 6.47119140625 22.550537109375Q6.6552734375 21.864990234375 6.6552734375 20.227294921875Q6.6552734375 18.589599609375 6.490234375 17.97705078125Q6.3251953125 17.364501953125 6.074462890625 17.158203125Q5.82373046875 16.951904296875 5.5 16.951904296875Z" /></g></svg>