<?xml version="1.0" encoding="utf-8" ?>
<svg baseProfile="full" height="30.0" version="1.1" width="11" xmlns="http://www.w3.org/2000/svg" xmlns:ev="http://www.w3.org/2001/xml-events" xmlns:xlink="http://www.w3.org/1999/xlink"><defs /><rect fill="black" height="30.0" width="11" x="0" y="0" /><rect fill="white" height="28.4" width="9.4" x="0.8" y="0.8" /><g fill="black"><path d="M2.449951171875 6.763916015625V5.107177734375H8.550048828125V6.402099609375Q7.794677734375 7.144775390625 7.013916015625 8.534912109375Q6.233154296875 9.925048828125 5.82373046875 11.48974609375Q5.414306640625 13.054443359375 5.420654296875 14.285888671875H3.700439453125Q3.744873046875 12.356201171875 4.4970703125 10.350341796875Q5.249267578125 8.344482421875 6.506103515625 6.763916015625Z" /><path d="M2.37060546875 22.341064453125 4.14794921875 22.156982421875Q4.22412109375 22.760009765625 4.5986328125 23.1123046875Q4.97314453125 23.464599609375 5.4619140625 23.464599609375Q6.0205078125 23.464599609375 6.40771484375 23.0107421875Q6.794921875 22.556884765625 6.794921875 21.642822265625Q6.794921875 20.785888671875 6.410888671875 20.357421875Q6.02685546875 19.928955078125 5.4111328125 19.928955078125Q4.64306640625 19.928955078125 4.03369140625 20.608154296875L2.58642578125 20.398681640625L3.50048828125 15.555419921875H8.216796875V17.224853515625H4.8525390625L4.5732421875 18.805419921875Q5.169921875 18.507080078125 5.7919921875 18.507080078125Q6.97900390625 18.507080078125 7.80419921875 19.370361328125Q8.62939453125 20.233642578125 8.62939453125 21.611083984375Q8.62939453125 22.760009765625 7.962890625 23.661376953125Q7.05517578125 24.892822265625 5.44287109375 24.892822265625Q4.154296875 24.892822265625 3.341796875 24.200927734375Q2.529296875 23.509033203125 2.37060546875 22.341064453125Z" /></g></svg>