<?xml version="1.0" encoding="utf-8" ?>
<svg baseProfile="full" height="30.0" version="1.1" width="11" xmlns="http://www.w3.org/2000/svg" xmlns:ev="http://www.w3.org/2001/xml-events" xmlns:xlink="http://www.w3.org/1999/xlink"><defs /><rect fill="black" height="30.0" width="11" x="0" y="0" /><rect fill="white" height="28.4" width="9.4" x="0.8" y="0.8" /><g fill="black"><path d="M3.99560546875 9.182373046875Q3.3037109375 8.890380859375 2.989501953125 8.37939453125Q2.67529296875 7.868408203125 2.67529296875 7.259033203125Q2.67529296875 6.218017578125 3.402099609375 5.538818359375Q4.12890625 4.859619140625 5.46826171875 4.859619140625Q6.794921875 4.859619140625 7.528076171875 5.538818359375Q8.26123046875 6.218017578125 8.26123046875 7.259033203125Q8.26123046875 7.906494140625 7.9248046875 8.4111328125Q7.58837890625 8.915771484375 6.97900390625 9.182373046875Q7.75341796875 9.493408203125 8.156494140625 10.090087890625Q8.5595703125 10.686767578125 8.5595703125 11.467529296875Q8.5595703125 12.756103515625 7.737548828125 13.562255859375Q6.91552734375 14.368408203125 5.55078125 14.368408203125Q4.28125 14.368408203125 3.43701171875 13.701904296875Q2.4404296875 12.914794921875 2.4404296875 11.543701171875Q2.4404296875 10.788330078125 2.81494140625 10.15673828125Q3.189453125 9.525146484375 3.99560546875 9.182373046875ZM4.36376953125 7.385986328125Q4.36376953125 7.919189453125 4.665283203125 8.217529296875Q4.966796875 8.515869140625 5.46826171875 8.515869140625Q5.97607421875 8.515869140625 6.28076171875 8.21435546875Q6.58544921875 7.912841796875 6.58544921875 7.379638671875Q6.58544921875 6.878173828125 6.283935546875 6.57666015625Q5.982421875 6.275146484375 5.4873046875 6.275146484375Q4.97314453125 6.275146484375 4.66845703125 6.579833984375Q4.36376953125 6.884521484375 4.36376953125 7.385986328125ZM4.19873046875 11.372314453125Q4.19873046875 12.108642578125 4.576416015625 12.521240234375Q4.9541015625 12.933837890625 5.51904296875 12.933837890625Q6.0712890625 12.933837890625 6.43310546875 12.537109375Q6.794921875 12.140380859375 6.794921875 11.391357421875Q6.794921875 10.737548828125 6.4267578125 10.3408203125Q6.05859375 9.944091796875 5.49365234375 9.944091796875Q4.83984375 9.944091796875 4.519287109375 10.394775390625Q4.19873046875 10.845458984375 4.19873046875 11.372314453125Z" /><path d="M5.5 15.637939453125Q6.85205078125 15.637939453125 7.61376953125 16.602783203125Q8.521484375 17.745361328125 8.521484375 20.392333984375Q8.521484375 23.032958984375 7.607421875 24.188232421875Q6.85205078125 25.140380859375 5.5 25.140380859375Q4.1416015625 25.140380859375 3.31005859375 24.09619140625Q2.478515625 23.052001953125 2.478515625 20.373291015625Q2.478515625 17.745361328125 3.392578125 16.590087890625Q4.14794921875 15.637939453125 5.5 15.637939453125ZM5.5 17.116943359375Q5.17626953125 17.116943359375 4.92236328125 17.3232421875Q4.66845703125 17.529541015625 4.52880859375 18.062744140625Q4.3447265625 18.754638671875 4.3447265625 20.392333984375Q4.3447265625 22.030029296875 4.509765625 22.642578125Q4.6748046875 23.255126953125 4.925537109375 23.458251953125Q5.17626953125 23.661376953125 5.5 23.661376953125Q5.82373046875 23.661376953125 6.07763671875 23.455078125Q6.33154296875 23.248779296875 6.47119140625 22.715576171875Q6.6552734375 22.030029296875 6.6552734375 20.392333984375Q6.6552734375 18.754638671875 6.490234375 18.14208984375Q6.3251953125 17.529541015625 6.074462890625 17.3232421875Q5.82373046875 17.116943359375 5.5 17.116943359375Z" /></g></svg>