<?xml version="1.0" encoding="utf-8" ?>
<svg baseProfile="full" height="30.0" version="1.1" width="11" xmlns="http://www.w3.org/2000/svg" xmlns:ev="http://www.w3.org/2001/xml-events" xmlns:xlink="http://www.w3.org/1999/xlink"><defs /><rect fill="black" height="30.0" width="11" x="0" y="0" /><rect fill="white" height="28.4" width="9.4" x="0.8" y="0.8" /><g fill="black"><path d="M3.99560546875 9.264892578125Q3.3037109375 8.972900390625 2.989501953125 8.4619140625Q2.67529296875 7.950927734375 2.67529296875 7.341552734375Q2.67529296875 6.300537109375 3.402099609375 5.621337890625Q4.12890625 4.942138671875 5.46826171875 4.942138671875Q6.794921875 4.942138671875 7.528076171875 5.621337890625Q8.26123046875 6.300537109375 8.26123046875 7.341552734375Q8.26123046875 7.989013671875 7.9248046875 8.49365234375Q7.58837890625 8.998291015625 6.97900390625 9.264892578125Q7.75341796875 9.575927734375 8.156494140625 10.172607421875Q8.5595703125 10.769287109375 8.5595703125 11.550048828125Q8.5595703125 12.838623046875 7.737548828125 13.644775390625Q6.91552734375 14.450927734375 5.55078125 14.450927734375Q4.28125 14.450927734375 3.43701171875 13.784423828125Q2.4404296875 12.997314453125 2.4404296875 11.626220703125Q2.4404296875 10.870849609375 2.81494140625 10.2392578125Q3.189453125 9.607666015625 3.99560546875 9.264892578125ZM4.36376953125 7.468505859375Q4.36376953125 8.001708984375 4.665283203125 8.300048828125Q4.966796875 8.598388671875 5.46826171875 8.598388671875Q5.97607421875 8.598388671875 6.28076171875 8.296875Q6.58544921875 7.995361328125 6.58544921875 7.462158203125Q6.58544921875 6.960693359375 6.283935546875 6.6591796875Q5.982421875 6.357666015625 5.4873046875 6.357666015625Q4.97314453125 6.357666015625 4.66845703125 6.662353515625Q4.36376953125 6.967041015625 4.36376953125 7.468505859375ZM4.19873046875 11.454833984375Q4.19873046875 12.191162109375 4.576416015625 12.603759765625Q4.9541015625 13.016357421875 5.51904296875 13.016357421875Q6.0712890625 13.016357421875 6.43310546875 12.61962890625Q6.794921875 12.222900390625 6.794921875 11.473876953125Q6.794921875 10.820068359375 6.4267578125 10.42333984375Q6.05859375 10.026611328125 5.49365234375 10.026611328125Q4.83984375 10.026611328125 4.519287109375 10.477294921875Q4.19873046875 10.927978515625 4.19873046875 11.454833984375Z" /><path d="M2.37060546875 22.506103515625 4.14794921875 22.322021484375Q4.22412109375 22.925048828125 4.5986328125 23.27734375Q4.97314453125 23.629638671875 5.4619140625 23.629638671875Q6.0205078125 23.629638671875 6.40771484375 23.17578125Q6.794921875 22.721923828125 6.794921875 21.807861328125Q6.794921875 20.950927734375 6.410888671875 20.5224609375Q6.02685546875 20.093994140625 5.4111328125 20.093994140625Q4.64306640625 20.093994140625 4.03369140625 20.773193359375L2.58642578125 20.563720703125L3.50048828125 15.720458984375H8.216796875V17.389892578125H4.8525390625L4.5732421875 18.970458984375Q5.169921875 18.672119140625 5.7919921875 18.672119140625Q6.97900390625 18.672119140625 7.80419921875 19.535400390625Q8.62939453125 20.398681640625 8.62939453125 21.776123046875Q8.62939453125 22.925048828125 7.962890625 23.826416015625Q7.05517578125 25.057861328125 5.44287109375 25.057861328125Q4.154296875 25.057861328125 3.341796875 24.365966796875Q2.529296875 23.674072265625 2.37060546875 22.506103515625Z" /></g></svg>