<?xml version="1.0" encoding="utf-8" ?>
<svg baseProfile="full" height="30.0" version="1.1" width="11" xmlns="http://www.w3.org/2000/svg" xmlns:ev="http://www.w3.org/2001/xml-events" xmlns:xlink="http://www.w3.org/1999/xlink"><defs /><rect fill="black" height="30.0" width="11" x="0" y="0" /><rect fill="white" height="28.4" width="9.4" x="0.8" y="0.8" /><g fill="black"><path d="M2.570556640625 12.051513671875 4.297119140625 11.861083984375Q4.360595703125 12.387939453125 4.627197265625 12.641845703125Q4.893798828125 12.895751953125 5.331787109375 12.895751953125Q5.884033203125 12.895751953125 6.271240234375 12.387939453125Q6.658447265625 11.880126953125 6.766357421875 10.280517578125Q6.093505859375 11.061279296875 5.084228515625 11.061279296875Q3.986083984375 11.061279296875 3.189453125 10.2138671875Q2.392822265625 9.366455078125 2.392822265625 8.008056640625Q2.392822265625 6.592529296875 3.23388671875 5.72607421875Q4.074951171875 4.859619140625 5.376220703125 4.859619140625Q6.791748046875 4.859619140625 7.699462890625 5.95458984375Q8.607177734375 7.049560546875 8.607177734375 9.556884765625Q8.607177734375 12.108642578125 7.661376953125 13.238525390625Q6.715576171875 14.368408203125 5.198486328125 14.368408203125Q4.106689453125 14.368408203125 3.433837890625 13.78759765625Q2.760986328125 13.206787109375 2.570556640625 12.051513671875ZM6.607666015625 8.154052734375Q6.607666015625 7.290771484375 6.2109375 6.814697265625Q5.814208984375 6.338623046875 5.293701171875 6.338623046875Q4.798583984375 6.338623046875 4.4716796875 6.72900390625Q4.144775390625 7.119384765625 4.144775390625 8.008056640625Q4.144775390625 8.909423828125 4.500244140625 9.33154296875Q4.855712890625 9.753662109375 5.388916015625 9.753662109375Q5.903076171875 9.753662109375 6.25537109375 9.347412109375Q6.607666015625 8.941162109375 6.607666015625 8.154052734375Z" /><path d="M5.5 15.637939453125Q6.85205078125 15.637939453125 7.61376953125 16.602783203125Q8.521484375 17.745361328125 8.521484375 20.392333984375Q8.521484375 23.032958984375 7.607421875 24.188232421875Q6.85205078125 25.140380859375 5.5 25.140380859375Q4.1416015625 25.140380859375 3.31005859375 24.09619140625Q2.478515625 23.052001953125 2.478515625 20.373291015625Q2.478515625 17.745361328125 3.392578125 16.590087890625Q4.14794921875 15.637939453125 5.5 15.637939453125ZM5.5 17.116943359375Q5.17626953125 17.116943359375 4.92236328125 17.3232421875Q4.66845703125 17.529541015625 4.52880859375 18.062744140625Q4.3447265625 18.754638671875 4.3447265625 20.392333984375Q4.3447265625 22.030029296875 4.509765625 22.642578125Q4.6748046875 23.255126953125 4.925537109375 23.458251953125Q5.17626953125 23.661376953125 5.5 23.661376953125Q5.82373046875 23.661376953125 6.07763671875 23.455078125Q6.33154296875 23.248779296875 6.47119140625 22.715576171875Q6.6552734375 22.030029296875 6.6552734375 20.392333984375Q6.6552734375 18.754638671875 6.490234375 18.14208984375Q6.3251953125 17.529541015625 6.074462890625 17.3232421875Q5.82373046875 17.116943359375 5.5 17.116943359375Z" /></g></svg>