<?xml version="1.0" encoding="utf-8" ?>
<svg baseProfile="full" height="30.0" version="1.1" width="11" xmlns="http://www.w3.org/2000/svg" xmlns:ev="http://www.w3.org/2001/xml-events" xmlns:xlink="http://www.w3.org/1999/xlink"><defs /><rect fill="black" height="30.0" width="11" x="0" y="0" /><rect fill="white" height="28.4" width="9.4" x="0.8" y="0.8" /><g fill="black"><path d="M2.570556640625 12.134033203125 4.297119140625 11.943603515625Q4.360595703125 12.470458984375 4.627197265625 12.724365234375Q4.893798828125 12.978271484375 5.331787109375 12.978271484375Q5.884033203125 12.978271484375 6.271240234375 12.470458984375Q6.658447265625 11.962646484375 6.766357421875 10.363037109375Q6.093505859375 11.143798828125 5.084228515625 11.143798828125Q3.986083984375 11.143798828125 3.189453125 10.29638671875Q2.392822265625 9.448974609375 2.392822265625 8.090576171875Q2.392822265625 6.675048828125 3.23388671875 5.80859375Q4.074951171875 4.942138671875 5.376220703125 4.942138671875Q6.791748046875 4.942138671875 7.699462890625 6.037109375Q8.607177734375 7.132080078125 8.607177734375 9.639404296875Q8.607177734375 12.191162109375 7.661376953125 13.321044921875Q6.715576171875 14.450927734375 5.198486328125 14.450927734375Q4.106689453125 14.450927734375 3.433837890625 13.8701171875Q2.760986328125 13.289306640625 2.570556640625 12.134033203125ZM6.607666015625 8.236572265625Q6.607666015625 7.373291015625 6.2109375 6.897216796875Q5.814208984375 6.421142578125 5.293701171875 6.421142578125Q4.798583984375 6.421142578125 4.4716796875 6.8115234375Q4.144775390625 7.201904296875 4.144775390625 8.090576171875Q4.144775390625 8.991943359375 4.500244140625 9.4140625Q4.855712890625 9.836181640625 5.388916015625 9.836181640625Q5.903076171875 9.836181640625 6.25537109375 9.429931640625Q6.607666015625 9.023681640625 6.607666015625 8.236572265625Z" /><path d="M2.37060546875 22.506103515625 4.14794921875 22.322021484375Q4.22412109375 22.925048828125 4.5986328125 23.27734375Q4.97314453125 23.629638671875 5.4619140625 23.629638671875Q6.0205078125 23.629638671875 6.40771484375 23.17578125Q6.794921875 22.721923828125 6.794921875 21.807861328125Q6.794921875 20.950927734375 6.410888671875 20.5224609375Q6.02685546875 20.093994140625 5.4111328125 20.093994140625Q4.64306640625 20.093994140625 4.03369140625 20.773193359375L2.58642578125 20.563720703125L3.50048828125 15.720458984375H8.216796875V17.389892578125H4.8525390625L4.5732421875 18.970458984375Q5.169921875 18.672119140625 5.7919921875 18.672119140625Q6.97900390625 18.672119140625 7.80419921875 19.535400390625Q8.62939453125 20.398681640625 8.62939453125 21.776123046875Q8.62939453125 22.925048828125 7.962890625 23.826416015625Q7.05517578125 25.057861328125 5.44287109375 25.057861328125Q4.154296875 25.057861328125 3.341796875 24.365966796875Q2.529296875 23.674072265625 2.37060546875 22.506103515625Z" /></g></svg>